{"glyphs":{"0":{"ha":803,"x_min":0,"x_max":0,"o":"m 401 1086 b 733 543 613 1086 733 879 b 401 0 733 207 613 0 b 69 543 190 0 69 201 b 401 1086 69 885 190 1086 m 401 943 b 213 543 274 943 213 772 b 401 144 213 311 275 144 b 590 543 529 144 590 315 b 401 943 590 769 528 943 "},"1":{"ha":546,"x_min":0,"x_max":0,"o":"m 164 875 b 119 865 147 868 132 865 b 49 935 78 865 49 894 b 94 1001 49 964 63 990 l 311 1079 b 338 1085 319 1082 331 1085 b 407 1013 379 1085 407 1054 l 407 71 b 335 0 407 32 375 0 b 265 71 297 0 265 32 l 265 918 l 164 875 "},"2":{"ha":817,"x_min":0,"x_max":0,"o":"m 675 142 b 747 71 715 142 747 108 b 675 0 747 32 715 0 l 161 0 b 90 71 121 0 90 32 b 110 121 90 90 97 108 l 504 582 b 592 756 560 646 592 704 b 418 954 592 876 525 954 b 232 756 313 954 232 863 b 161 686 232 718 201 686 b 90 756 122 686 90 718 b 418 1085 90 943 231 1085 b 728 756 606 1085 728 958 b 604 503 728 665 663 569 l 286 142 l 675 142 "},"3":{"ha":832,"x_min":0,"x_max":0,"o":"m 436 1086 b 726 818 600 1086 726 971 b 561 601 726 710 644 639 b 769 315 707 551 769 444 b 433 0 769 133 615 0 b 76 333 225 0 76 143 b 140 406 76 375 104 406 b 204 333 176 406 204 375 b 425 124 204 218 300 124 b 629 317 547 124 629 194 b 439 524 629 433 546 524 b 368 596 399 524 368 554 b 439 667 368 636 399 667 b 597 818 517 667 597 732 b 439 963 597 899 532 963 b 247 808 332 963 247 894 b 183 733 247 765 219 733 b 119 804 147 733 119 764 b 436 1086 119 965 257 1086 "},"4":{"ha":907,"x_min":0,"x_max":0,"o":"m 781 374 b 851 310 819 374 851 357 b 781 246 851 275 819 246 l 697 246 l 697 71 b 628 0 697 32 668 0 b 561 71 590 0 561 32 l 561 246 l 99 246 b 42 357 35 246 10 315 l 574 1054 b 632 1085 588 1072 607 1085 b 697 1013 671 1085 697 1053 l 697 374 l 781 374 m 561 374 l 561 833 l 211 374 "},"5":{"ha":874,"x_min":0,"x_max":0,"o":"m 443 708 b 797 354 644 708 797 556 b 443 0 797 153 644 0 b 90 354 242 0 90 153 b 160 425 90 394 119 425 b 232 354 200 425 232 394 b 443 142 232 233 322 142 b 656 354 564 142 656 233 b 443 567 656 475 564 567 l 211 567 b 142 638 171 567 142 597 l 142 1013 b 211 1085 142 1053 171 1085 l 675 1085 b 746 1013 714 1085 746 1051 b 675 943 746 975 715 943 l 282 943 l 282 708 l 443 708 "},"6":{"ha":807,"x_min":0,"x_max":0,"o":"m 418 660 b 744 329 608 660 744 522 b 418 0 744 138 610 0 b 90 329 225 0 90 138 b 143 519 90 401 110 467 l 458 1044 b 522 1083 475 1071 497 1083 b 585 975 579 1083 615 1024 l 394 660 l 418 660 m 417 125 b 611 329 531 125 611 208 b 417 535 611 450 531 535 b 224 329 303 535 224 450 b 417 125 224 208 303 125 "},"7":{"ha":760,"x_min":0,"x_max":0,"o":"m 118 943 b 47 1014 78 943 47 974 b 118 1085 47 1054 78 1085 l 647 1085 b 718 1014 686 1085 718 1053 b 708 976 718 1001 714 989 l 264 39 b 199 0 250 14 225 0 b 129 71 161 0 129 32 b 142 115 129 85 133 99 l 540 943 l 118 943 "},"8":{"ha":807,"x_min":0,"x_max":0,"o":"m 575 610 b 724 335 667 554 725 454 b 404 1 722 144 585 1 b 83 335 221 1 83 144 b 232 608 83 454 142 553 b 129 817 168 656 129 731 b 404 1093 129 974 246 1092 b 678 817 563 1094 679 976 b 575 610 676 731 638 657 m 267 821 b 404 669 265 738 324 669 b 540 821 482 669 539 738 b 404 964 542 904 483 964 b 267 821 326 964 268 904 m 585 335 b 404 529 586 446 508 529 b 222 335 300 529 222 446 b 404 129 221 221 299 129 b 585 335 507 129 585 221 "},"9":{"ha":807,"x_min":0,"x_max":0,"o":"m 717 757 b 664 567 717 685 697 619 l 349 42 b 285 3 332 15 310 3 b 222 111 228 3 192 63 l 413 426 l 389 426 b 63 757 199 426 63 564 b 389 1086 63 949 197 1086 b 717 757 582 1086 717 949 m 196 757 b 390 551 196 636 276 551 b 583 757 504 551 583 636 b 390 961 583 878 504 961 b 196 757 276 961 196 878 "},"A":{"ha":976,"x_min":0,"x_max":0,"o":"m 950 101 b 885 0 971 50 938 0 b 818 44 857 0 829 17 l 740 239 l 242 239 l 163 44 b 96 0 150 15 122 0 b 32 104 43 0 10 54 l 422 1036 b 490 1085 436 1069 460 1085 b 558 1036 522 1085 546 1069 l 950 101 m 692 358 l 493 853 l 290 358 "},"Á":{"ha":976,"x_min":0,"x_max":0,"o":"m 494 1204 b 424 1275 453 1204 424 1233 b 440 1322 424 1294 429 1310 l 576 1458 b 626 1479 590 1472 608 1479 b 697 1407 668 1479 697 1447 b 678 1358 697 1388 692 1371 l 543 1224 b 494 1204 529 1210 514 1204 m 950 101 b 885 0 971 50 938 0 b 818 44 857 0 829 17 l 740 239 l 242 239 l 163 44 b 96 0 150 15 122 0 b 32 104 43 0 10 54 l 422 1036 b 490 1085 436 1069 460 1085 b 558 1036 522 1085 546 1069 l 950 101 m 692 358 l 493 853 l 290 358 "},"Ă":{"ha":976,"x_min":0,"x_max":0,"o":"m 489 1165 b 263 1339 364 1165 263 1240 b 329 1410 263 1379 289 1410 b 396 1353 363 1410 396 1388 b 489 1279 396 1310 444 1279 b 581 1353 546 1279 581 1310 b 649 1410 581 1388 613 1410 b 714 1339 689 1410 714 1379 b 489 1165 714 1240 613 1165 m 950 101 b 885 0 971 50 938 0 b 818 44 857 0 829 17 l 740 239 l 242 239 l 163 44 b 96 0 150 15 122 0 b 32 104 43 0 10 54 l 422 1036 b 490 1085 436 1069 460 1085 b 558 1036 522 1085 546 1069 l 950 101 m 692 358 l 493 853 l 290 358 "},"Ắ":{"ha":976,"x_min":0,"x_max":0,"o":"m 494 1446 b 424 1517 453 1446 424 1475 b 440 1564 424 1536 429 1551 l 576 1700 b 626 1721 590 1714 608 1721 b 697 1649 668 1721 697 1689 b 678 1600 697 1629 692 1613 l 543 1465 b 494 1446 529 1451 514 1446 m 489 1165 b 263 1339 364 1165 263 1240 b 329 1410 263 1379 289 1410 b 396 1353 363 1410 396 1388 b 489 1279 396 1310 444 1279 b 581 1353 546 1279 581 1310 b 649 1410 581 1388 613 1410 b 714 1339 689 1410 714 1379 b 489 1165 714 1240 613 1165 m 950 101 b 885 0 971 50 938 0 b 818 44 857 0 829 17 l 740 239 l 242 239 l 163 44 b 96 0 150 15 122 0 b 32 104 43 0 10 54 l 422 1036 b 490 1085 436 1069 460 1085 b 558 1036 522 1085 546 1069 l 950 101 m 692 358 l 493 853 l 290 358 "},"Ặ":{"ha":976,"x_min":0,"x_max":0,"o":"m 489 1165 b 263 1339 364 1165 263 1240 b 329 1410 263 1379 289 1410 b 396 1353 363 1410 396 1388 b 489 1279 396 1310 444 1279 b 581 1353 546 1279 581 1310 b 649 1410 581 1388 613 1410 b 714 1339 689 1410 714 1379 b 489 1165 714 1240 613 1165 m 950 101 b 885 0 971 50 938 0 b 818 44 857 0 829 17 l 740 239 l 242 239 l 163 44 b 96 0 150 15 122 0 b 32 104 43 0 10 54 l 422 1036 b 490 1085 436 1069 460 1085 b 558 1036 522 1085 546 1069 l 950 101 m 692 358 l 493 853 l 290 358 m 489 -128 b 581 -219 539 -128 581 -169 b 489 -311 581 -269 539 -311 b 397 -219 439 -311 397 -269 b 489 -128 397 -169 439 -128 "},"Ằ":{"ha":976,"x_min":0,"x_max":0,"o":"m 300 1600 b 282 1649 288 1613 282 1629 b 351 1721 282 1689 311 1721 b 403 1700 371 1721 388 1714 l 538 1564 b 556 1517 550 1551 556 1536 b 485 1446 556 1475 525 1446 b 436 1465 465 1446 449 1451 m 489 1165 b 263 1339 364 1165 263 1240 b 329 1410 263 1379 289 1410 b 396 1353 363 1410 396 1388 b 489 1279 396 1310 444 1279 b 581 1353 546 1279 581 1310 b 649 1410 581 1388 613 1410 b 714 1339 689 1410 714 1379 b 489 1165 714 1240 613 1165 m 950 101 b 885 0 971 50 938 0 b 818 44 857 0 829 17 l 740 239 l 242 239 l 163 44 b 96 0 150 15 122 0 b 32 104 43 0 10 54 l 422 1036 b 490 1085 436 1069 460 1085 b 558 1036 522 1085 546 1069 l 950 101 m 692 358 l 493 853 l 290 358 "},"Ẳ":{"ha":976,"x_min":0,"x_max":0,"o":"m 404 1642 b 353 1690 376 1642 353 1657 b 375 1739 353 1710 361 1728 b 513 1785 411 1768 454 1785 b 682 1631 613 1785 682 1718 b 525 1489 683 1538 611 1500 l 551 1492 b 489 1401 551 1429 524 1401 b 426 1464 454 1401 426 1429 l 426 1494 b 482 1563 426 1532 444 1554 l 518 1571 b 575 1626 550 1578 575 1597 b 515 1679 575 1663 550 1679 b 450 1657 489 1679 464 1668 b 404 1642 439 1647 419 1642 m 489 1165 b 263 1339 364 1165 263 1240 b 329 1410 263 1379 289 1410 b 396 1353 363 1410 396 1388 b 489 1279 396 1310 444 1279 b 581 1353 546 1279 581 1310 b 649 1410 581 1388 613 1410 b 714 1339 689 1410 714 1379 b 489 1165 714 1240 613 1165 m 950 101 b 885 0 971 50 938 0 b 818 44 857 0 829 17 l 740 239 l 242 239 l 163 44 b 96 0 150 15 122 0 b 32 104 43 0 10 54 l 422 1036 b 490 1085 436 1069 460 1085 b 558 1036 522 1085 546 1069 l 950 101 m 692 358 l 493 853 l 290 358 "},"Ẵ":{"ha":976,"x_min":0,"x_max":0,"o":"m 289 1461 b 261 1542 257 1475 243 1510 b 403 1643 300 1611 346 1643 b 525 1582 467 1643 501 1603 b 572 1557 547 1563 560 1557 b 603 1578 585 1557 593 1564 b 686 1610 624 1607 656 1622 b 714 1526 721 1593 733 1558 b 588 1439 678 1465 638 1439 b 467 1496 539 1439 501 1463 b 414 1529 444 1517 432 1529 b 369 1490 394 1529 383 1514 b 289 1461 353 1463 319 1449 m 650 1410 b 715 1339 690 1410 715 1379 b 490 1165 715 1240 614 1165 b 264 1339 365 1165 264 1240 b 331 1410 264 1379 290 1410 b 397 1353 364 1410 397 1388 b 490 1279 397 1310 446 1279 b 582 1353 547 1279 582 1310 b 650 1410 582 1388 614 1410 m 950 101 b 885 0 971 50 938 0 b 818 44 857 0 829 17 l 740 239 l 242 239 l 163 44 b 96 0 150 15 122 0 b 32 104 43 0 10 54 l 422 1036 b 490 1085 436 1069 460 1085 b 558 1036 522 1085 546 1069 l 950 101 m 692 358 l 493 853 l 290 358 "},"Â":{"ha":976,"x_min":0,"x_max":0,"o":"m 335 1179 b 264 1236 294 1179 264 1203 b 297 1297 264 1260 275 1281 l 453 1399 b 489 1410 464 1406 476 1410 b 526 1399 503 1410 514 1407 l 681 1297 b 714 1236 703 1281 714 1260 b 644 1179 714 1203 685 1179 b 599 1194 626 1179 614 1183 l 489 1272 l 379 1194 b 335 1179 365 1183 351 1179 m 950 101 b 885 0 971 50 938 0 b 818 44 857 0 829 17 l 740 239 l 242 239 l 163 44 b 96 0 150 15 122 0 b 32 104 43 0 10 54 l 422 1036 b 490 1085 436 1069 460 1085 b 558 1036 522 1085 546 1069 l 950 101 m 692 358 l 493 853 l 290 358 "},"Ấ":{"ha":976,"x_min":0,"x_max":0,"o":"m 639 1404 b 568 1475 597 1404 568 1433 b 585 1522 568 1494 574 1510 l 721 1658 b 771 1679 735 1672 753 1679 b 842 1607 813 1679 842 1647 b 822 1558 842 1588 836 1571 l 688 1424 b 639 1404 674 1410 658 1404 m 335 1179 b 264 1236 294 1179 264 1203 b 297 1297 264 1260 275 1281 l 453 1399 b 489 1410 464 1406 476 1410 b 526 1399 503 1410 514 1407 l 681 1297 b 714 1236 703 1281 714 1260 b 644 1179 714 1203 685 1179 b 599 1194 626 1179 614 1183 l 489 1272 l 379 1194 b 335 1179 365 1183 351 1179 m 950 101 b 885 0 971 50 938 0 b 818 44 857 0 829 17 l 740 239 l 242 239 l 163 44 b 96 0 150 15 122 0 b 32 104 43 0 10 54 l 422 1036 b 490 1085 436 1069 460 1085 b 558 1036 522 1085 546 1069 l 950 101 m 692 358 l 493 853 l 290 358 "},"Ậ":{"ha":976,"x_min":0,"x_max":0,"o":"m 335 1179 b 264 1236 294 1179 264 1203 b 297 1297 264 1260 275 1281 l 453 1399 b 489 1410 464 1406 476 1410 b 526 1399 503 1410 514 1407 l 681 1297 b 714 1236 703 1281 714 1260 b 644 1179 714 1203 685 1179 b 599 1194 626 1179 614 1183 l 489 1272 l 379 1194 b 335 1179 365 1183 351 1179 m 950 101 b 885 0 971 50 938 0 b 818 44 857 0 829 17 l 740 239 l 242 239 l 163 44 b 96 0 150 15 122 0 b 32 104 43 0 10 54 l 422 1036 b 490 1085 436 1069 460 1085 b 558 1036 522 1085 546 1069 l 950 101 m 692 358 l 493 853 l 290 358 m 489 -128 b 581 -219 539 -128 581 -169 b 489 -311 581 -269 539 -311 b 397 -219 439 -311 397 -269 b 489 -128 397 -169 439 -128 "},"Ầ":{"ha":976,"x_min":0,"x_max":0,"o":"m 444 1558 b 426 1607 432 1571 426 1588 b 496 1679 426 1647 456 1679 b 547 1658 515 1679 532 1672 l 682 1522 b 700 1475 694 1510 700 1494 b 629 1404 700 1433 669 1404 b 581 1424 610 1404 593 1410 m 335 1179 b 264 1236 294 1179 264 1203 b 297 1297 264 1260 275 1281 l 453 1399 b 489 1410 464 1406 476 1410 b 526 1399 503 1410 514 1407 l 681 1297 b 714 1236 703 1281 714 1260 b 644 1179 714 1203 685 1179 b 599 1194 626 1179 614 1183 l 489 1272 l 379 1194 b 335 1179 365 1183 351 1179 m 950 101 b 885 0 971 50 938 0 b 818 44 857 0 829 17 l 740 239 l 242 239 l 163 44 b 96 0 150 15 122 0 b 32 104 43 0 10 54 l 422 1036 b 490 1085 436 1069 460 1085 b 558 1036 522 1085 546 1069 l 950 101 m 692 358 l 493 853 l 290 358 "},"Ẩ":{"ha":976,"x_min":0,"x_max":0,"o":"m 556 1600 b 504 1649 528 1600 504 1615 b 526 1697 504 1668 513 1686 b 664 1743 563 1726 606 1743 b 833 1589 764 1743 833 1676 b 676 1447 835 1496 763 1458 l 703 1450 b 640 1360 703 1388 675 1360 b 578 1422 606 1360 578 1388 l 578 1453 b 633 1521 578 1490 596 1513 l 669 1529 b 726 1585 701 1536 726 1556 b 667 1638 726 1621 701 1638 b 601 1615 640 1638 615 1626 b 556 1600 590 1606 571 1600 m 342 1179 b 271 1236 301 1179 271 1203 b 304 1297 271 1260 282 1281 l 460 1399 b 496 1410 471 1406 483 1410 b 533 1399 510 1410 521 1407 l 688 1297 b 721 1236 710 1281 721 1260 b 651 1179 721 1203 692 1179 b 606 1194 633 1179 621 1183 l 496 1272 l 386 1194 b 342 1179 372 1183 358 1179 m 950 101 b 885 0 971 50 938 0 b 818 44 857 0 829 17 l 740 239 l 242 239 l 163 44 b 96 0 150 15 122 0 b 32 104 43 0 10 54 l 422 1036 b 490 1085 436 1069 460 1085 b 558 1036 522 1085 546 1069 l 950 101 m 692 358 l 493 853 l 290 358 "},"Ẫ":{"ha":976,"x_min":0,"x_max":0,"o":"m 278 1467 b 250 1547 246 1481 232 1515 b 392 1649 289 1617 335 1649 b 514 1588 456 1649 490 1608 b 561 1563 536 1568 549 1563 b 592 1583 574 1563 582 1569 b 675 1615 613 1613 644 1628 b 703 1532 710 1599 722 1564 b 576 1444 667 1471 626 1444 b 456 1501 528 1444 490 1468 b 403 1535 433 1522 421 1535 b 358 1496 383 1535 372 1519 b 278 1467 342 1468 308 1454 m 688 1297 b 721 1236 710 1281 721 1260 b 651 1179 721 1203 692 1179 b 606 1194 633 1179 621 1183 l 496 1272 l 386 1194 b 342 1179 372 1183 358 1179 b 271 1236 301 1179 271 1203 b 304 1297 271 1260 282 1281 l 460 1399 b 496 1410 471 1406 483 1410 b 533 1399 510 1410 521 1407 l 688 1297 m 950 101 b 885 0 971 50 938 0 b 818 44 857 0 829 17 l 740 239 l 242 239 l 163 44 b 96 0 150 15 122 0 b 32 104 43 0 10 54 l 422 1036 b 490 1085 436 1069 460 1085 b 558 1036 522 1085 546 1069 l 950 101 m 692 358 l 493 853 l 290 358 "},"Ȁ":{"ha":976,"x_min":0,"x_max":0,"o":"m 299 1382 b 292 1408 293 1392 293 1401 b 364 1479 292 1446 324 1479 b 429 1435 393 1479 422 1460 l 483 1263 b 486 1240 485 1254 486 1246 b 429 1182 486 1203 456 1182 b 375 1218 404 1182 388 1194 m 497 1382 b 492 1408 493 1392 492 1401 b 564 1479 492 1446 522 1479 b 629 1435 593 1479 622 1460 l 682 1263 b 686 1240 685 1254 686 1246 b 628 1182 686 1203 654 1182 b 575 1218 604 1182 586 1194 m 950 101 b 885 0 971 50 938 0 b 818 44 857 0 829 17 l 740 239 l 242 239 l 163 44 b 96 0 150 15 122 0 b 32 104 43 0 10 54 l 422 1036 b 490 1085 436 1069 460 1085 b 558 1036 522 1085 546 1069 l 950 101 m 692 358 l 493 853 l 290 358 "},"Ä":{"ha":976,"x_min":0,"x_max":0,"o":"m 335 1201 b 250 1285 288 1201 250 1238 b 335 1368 250 1329 288 1368 b 418 1285 379 1368 418 1329 b 335 1201 418 1238 379 1201 m 643 1201 b 560 1285 596 1201 560 1238 b 643 1368 560 1329 596 1368 b 726 1285 688 1368 726 1329 b 643 1201 726 1238 688 1201 m 950 101 b 885 0 971 50 938 0 b 818 44 857 0 829 17 l 740 239 l 242 239 l 163 44 b 96 0 150 15 122 0 b 32 104 43 0 10 54 l 422 1036 b 490 1085 436 1069 460 1085 b 558 1036 522 1085 546 1069 l 950 101 m 692 358 l 493 853 l 290 358 "},"Ạ":{"ha":976,"x_min":0,"x_max":0,"o":"m 950 101 b 885 0 971 50 938 0 b 818 44 857 0 829 17 l 740 239 l 242 239 l 163 44 b 96 0 150 15 122 0 b 32 104 43 0 10 54 l 422 1036 b 490 1085 436 1069 460 1085 b 558 1036 522 1085 546 1069 l 950 101 m 692 358 l 493 853 l 290 358 m 489 -128 b 581 -219 539 -128 581 -169 b 489 -311 581 -269 539 -311 b 397 -219 439 -311 397 -269 b 489 -128 397 -169 439 -128 "},"À":{"ha":976,"x_min":0,"x_max":0,"o":"m 300 1358 b 282 1407 288 1371 282 1388 b 351 1479 282 1447 311 1479 b 403 1458 371 1479 388 1472 l 538 1322 b 556 1275 550 1310 556 1294 b 485 1204 556 1233 525 1204 b 436 1224 465 1204 449 1210 m 950 101 b 885 0 971 50 938 0 b 818 44 857 0 829 17 l 740 239 l 242 239 l 163 44 b 96 0 150 15 122 0 b 32 104 43 0 10 54 l 422 1036 b 490 1085 436 1069 460 1085 b 558 1036 522 1085 546 1069 l 950 101 m 692 358 l 493 853 l 290 358 "},"Ả":{"ha":976,"x_min":0,"x_max":0,"o":"m 404 1400 b 353 1449 376 1400 353 1415 b 375 1497 353 1468 361 1486 b 513 1543 411 1526 454 1543 b 682 1389 613 1543 682 1476 b 525 1247 683 1296 611 1258 l 551 1250 b 489 1160 551 1188 524 1160 b 426 1222 454 1160 426 1188 l 426 1253 b 482 1321 426 1290 444 1313 l 518 1329 b 575 1385 550 1336 575 1356 b 515 1438 575 1421 550 1438 b 450 1415 489 1438 464 1426 b 404 1400 439 1406 419 1400 m 950 101 b 885 0 971 50 938 0 b 818 44 857 0 829 17 l 740 239 l 242 239 l 163 44 b 96 0 150 15 122 0 b 32 104 43 0 10 54 l 422 1036 b 490 1085 436 1069 460 1085 b 558 1036 522 1085 546 1069 l 950 101 m 692 358 l 493 853 l 290 358 "},"Ȃ":{"ha":976,"x_min":0,"x_max":0,"o":"m 329 1165 b 263 1236 289 1165 263 1196 b 489 1410 263 1335 364 1410 b 714 1236 613 1410 714 1335 b 649 1165 714 1196 689 1165 b 581 1222 613 1165 581 1188 b 489 1296 581 1265 546 1296 b 396 1222 444 1296 396 1265 b 329 1165 396 1188 363 1165 m 950 101 b 885 0 971 50 938 0 b 818 44 857 0 829 17 l 740 239 l 242 239 l 163 44 b 96 0 150 15 122 0 b 32 104 43 0 10 54 l 422 1036 b 490 1085 436 1069 460 1085 b 558 1036 522 1085 546 1069 l 950 101 m 692 358 l 493 853 l 290 358 "},"Ā":{"ha":976,"x_min":0,"x_max":0,"o":"m 314 1224 b 243 1288 274 1224 243 1246 b 314 1349 243 1328 274 1349 l 661 1349 b 733 1288 701 1349 733 1328 b 661 1224 733 1246 701 1224 l 314 1224 m 950 101 b 885 0 971 50 938 0 b 818 44 857 0 829 17 l 740 239 l 242 239 l 163 44 b 96 0 150 15 122 0 b 32 104 43 0 10 54 l 422 1036 b 490 1085 436 1069 460 1085 b 558 1036 522 1085 546 1069 l 950 101 m 692 358 l 493 853 l 290 358 "},"Ą":{"ha":976,"x_min":0,"x_max":0,"o":"m 982 -149 b 1053 -219 1024 -149 1053 -179 b 1028 -276 1053 -243 1044 -261 l 975 -311 b 879 -342 946 -332 914 -342 b 706 -168 786 -342 706 -264 b 778 -26 706 -111 731 -65 b 817 18 797 -12 810 4 b 825 31 819 22 822 28 b 818 44 822 35 819 40 l 740 239 l 242 239 l 163 44 b 96 0 150 15 122 0 b 32 104 43 0 10 54 l 422 1036 b 490 1085 436 1069 460 1085 b 558 1036 522 1085 546 1069 l 950 101 b 939 24 963 72 956 42 b 950 -14 944 13 949 0 b 861 -140 950 -57 919 -99 b 847 -168 851 -149 847 -160 b 879 -200 847 -186 861 -200 b 896 -194 886 -200 892 -199 l 939 -162 b 982 -149 951 -154 965 -149 m 692 358 l 493 853 l 290 358 "},"Å":{"ha":976,"x_min":0,"x_max":0,"o":"m 489 1139 b 340 1288 401 1139 340 1200 b 489 1438 340 1375 401 1438 b 638 1288 576 1438 638 1375 b 489 1139 638 1200 576 1139 m 489 1360 b 417 1288 447 1360 417 1329 b 489 1217 417 1246 447 1217 b 560 1288 531 1217 560 1246 b 489 1360 560 1329 531 1360 m 950 101 b 885 0 971 50 938 0 b 818 44 857 0 829 17 l 740 239 l 242 239 l 163 44 b 96 0 150 15 122 0 b 32 104 43 0 10 54 l 422 1036 b 490 1085 436 1069 460 1085 b 558 1036 522 1085 546 1069 l 950 101 m 692 358 l 493 853 l 290 358 "},"Ǻ":{"ha":976,"x_min":0,"x_max":0,"o":"m 494 1488 b 424 1558 453 1488 424 1517 b 440 1606 424 1578 429 1593 l 576 1742 b 626 1763 590 1756 608 1763 b 697 1690 668 1763 697 1731 b 678 1642 697 1671 692 1654 l 543 1507 b 494 1488 529 1493 514 1488 m 489 1139 b 340 1288 401 1139 340 1200 b 489 1438 340 1375 401 1438 b 638 1288 576 1438 638 1375 b 489 1139 638 1200 576 1139 m 489 1360 b 417 1288 447 1360 417 1329 b 489 1217 417 1246 447 1217 b 560 1288 531 1217 560 1246 b 489 1360 560 1329 531 1360 m 950 101 b 885 0 971 50 938 0 b 818 44 857 0 829 17 l 740 239 l 242 239 l 163 44 b 96 0 150 15 122 0 b 32 104 43 0 10 54 l 422 1036 b 490 1085 436 1069 460 1085 b 558 1036 522 1085 546 1069 l 950 101 m 692 358 l 493 853 l 290 358 "},"Ã":{"ha":976,"x_min":0,"x_max":0,"o":"m 288 1219 b 260 1300 256 1233 242 1268 b 401 1401 299 1369 344 1401 b 524 1340 465 1401 500 1361 b 571 1315 546 1321 558 1315 b 601 1336 583 1315 592 1322 b 685 1368 622 1365 654 1381 b 713 1285 719 1351 732 1317 b 586 1197 676 1224 636 1197 b 465 1254 538 1197 500 1221 b 413 1288 443 1275 431 1288 b 368 1249 393 1288 382 1272 b 288 1219 351 1221 318 1207 m 950 101 b 885 0 971 50 938 0 b 818 44 857 0 829 17 l 740 239 l 242 239 l 163 44 b 96 0 150 15 122 0 b 32 104 43 0 10 54 l 422 1036 b 490 1085 436 1069 460 1085 b 558 1036 522 1085 546 1069 l 950 101 m 692 358 l 493 853 l 290 358 "},"Æ":{"ha":1390,"x_min":0,"x_max":0,"o":"m 1257 133 b 1328 68 1299 133 1328 107 b 1257 0 1328 28 1299 0 l 685 0 b 613 72 643 0 613 31 l 613 239 l 285 239 l 165 44 b 99 0 149 17 125 0 b 35 104 46 0 7 57 l 618 1040 b 694 1085 635 1067 658 1085 l 1257 1085 b 1328 1017 1299 1085 1328 1057 b 1257 951 1328 978 1299 951 l 757 951 l 757 614 l 1100 614 b 1171 547 1142 614 1171 586 b 1100 481 1171 508 1142 481 l 757 481 l 757 133 l 1257 133 m 613 358 l 613 781 l 358 358 "},"Ǽ":{"ha":1390,"x_min":0,"x_max":0,"o":"m 896 1204 b 825 1275 854 1204 825 1233 b 842 1322 825 1294 831 1310 l 978 1458 b 1028 1479 992 1472 1010 1479 b 1099 1407 1069 1479 1099 1447 b 1079 1358 1099 1388 1093 1371 l 944 1224 b 896 1204 931 1210 915 1204 m 1257 133 b 1328 68 1299 133 1328 107 b 1257 0 1328 28 1299 0 l 685 0 b 613 72 643 0 613 31 l 613 239 l 285 239 l 165 44 b 99 0 149 17 125 0 b 35 104 46 0 7 57 l 618 1040 b 694 1085 635 1067 658 1085 l 1257 1085 b 1328 1017 1299 1085 1328 1057 b 1257 951 1328 978 1299 951 l 757 951 l 757 614 l 1100 614 b 1171 547 1142 614 1171 586 b 1100 481 1171 508 1142 481 l 757 481 l 757 133 l 1257 133 m 613 358 l 613 781 l 358 358 "},"B":{"ha":1004,"x_min":0,"x_max":0,"o":"m 543 1085 b 863 796 731 1085 863 965 b 725 586 863 704 810 629 b 928 328 847 557 928 468 b 572 0 928 136 781 0 l 211 0 b 139 72 169 0 139 31 l 139 1013 b 211 1085 139 1054 169 1085 l 543 1085 m 543 639 b 724 796 649 639 724 690 b 543 951 724 901 649 951 l 283 951 l 283 639 l 543 639 m 572 133 b 789 328 699 133 789 200 b 572 506 789 446 699 506 l 283 506 l 283 133 l 572 133 "},"C":{"ha":1079,"x_min":0,"x_max":0,"o":"m 625 1099 b 964 979 767 1099 860 1064 b 992 922 986 961 992 946 b 876 876 992 868 925 838 b 625 968 807 936 746 968 b 228 543 406 968 228 778 b 625 118 228 306 406 118 b 881 210 719 118 803 151 b 988 158 929 246 988 218 b 965 107 988 139 981 122 b 625 -14 865 26 751 -14 b 89 543 324 -14 89 229 b 625 1099 89 853 322 1099 "},"Ć":{"ha":1079,"x_min":0,"x_max":0,"o":"m 711 1458 b 761 1479 725 1472 743 1479 b 832 1407 803 1479 832 1447 b 813 1358 832 1388 826 1371 l 678 1224 b 629 1204 664 1210 649 1204 b 558 1275 588 1204 558 1233 b 575 1322 558 1294 564 1310 l 711 1458 m 625 1099 b 964 979 767 1099 860 1064 b 992 922 986 961 992 946 b 876 876 992 868 925 838 b 625 968 807 936 746 968 b 228 543 406 968 228 778 b 625 118 228 306 406 118 b 881 210 719 118 803 151 b 988 158 929 246 988 218 b 965 107 988 139 981 122 b 625 -14 865 26 751 -14 b 89 543 324 -14 89 229 b 625 1099 89 853 322 1099 "},"Č":{"ha":1079,"x_min":0,"x_max":0,"o":"m 733 1388 b 849 1367 803 1435 849 1404 b 815 1307 849 1343 838 1324 l 661 1204 b 624 1193 649 1196 638 1193 b 588 1204 611 1193 599 1196 l 432 1307 b 399 1367 410 1324 399 1343 b 514 1388 399 1404 450 1432 l 624 1314 l 733 1388 m 625 1099 b 964 979 767 1099 860 1064 b 992 922 986 961 992 946 b 876 876 992 868 925 838 b 625 968 807 936 746 968 b 228 543 406 968 228 778 b 625 118 228 306 406 118 b 881 210 719 118 803 151 b 988 158 929 246 988 218 b 965 107 988 139 981 122 b 625 -14 865 26 751 -14 b 89 543 324 -14 89 229 b 625 1099 89 853 322 1099 "},"Ç":{"ha":1079,"x_min":0,"x_max":0,"o":"m 881 210 b 988 158 929 246 988 218 b 965 107 988 139 981 122 b 692 -10 883 40 792 1 l 675 -49 b 814 -181 771 -69 814 -111 b 608 -325 814 -253 735 -325 b 418 -208 497 -325 418 -271 b 483 -142 418 -172 449 -142 b 531 -176 506 -142 521 -150 b 610 -225 543 -210 574 -225 b 674 -176 646 -225 674 -206 b 611 -115 674 -143 657 -124 b 549 -21 553 -106 528 -81 l 553 -10 b 89 543 288 26 89 254 b 625 1099 89 853 322 1099 b 964 979 767 1099 860 1064 b 992 922 986 961 992 946 b 876 876 992 868 925 838 b 625 968 807 936 746 968 b 228 543 406 968 228 778 b 625 118 228 306 406 118 b 881 210 719 118 803 151 "},"Ĉ":{"ha":1079,"x_min":0,"x_max":0,"o":"m 514 1194 b 469 1179 500 1183 486 1179 b 399 1236 429 1179 399 1203 b 432 1297 399 1260 410 1281 l 588 1399 b 624 1410 599 1406 611 1410 b 661 1399 638 1410 649 1407 l 815 1297 b 849 1236 838 1281 849 1260 b 779 1179 849 1203 819 1179 b 733 1194 761 1179 749 1183 l 624 1272 l 514 1194 m 625 1099 b 964 979 767 1099 860 1064 b 992 922 986 961 992 946 b 876 876 992 868 925 838 b 625 968 807 936 746 968 b 228 543 406 968 228 778 b 625 118 228 306 406 118 b 881 210 719 118 803 151 b 988 158 929 246 988 218 b 965 107 988 139 981 122 b 625 -14 865 26 751 -14 b 89 543 324 -14 89 229 b 625 1099 89 853 322 1099 "},"Ċ":{"ha":1079,"x_min":0,"x_max":0,"o":"m 624 1392 b 715 1300 674 1392 715 1350 b 624 1208 715 1250 674 1208 b 532 1300 574 1208 532 1250 b 624 1392 532 1350 574 1392 m 625 1099 b 964 979 767 1099 860 1064 b 992 922 986 961 992 946 b 876 876 992 868 925 838 b 625 968 807 936 746 968 b 228 543 406 968 228 778 b 625 118 228 306 406 118 b 881 210 719 118 803 151 b 988 158 929 246 988 218 b 965 107 988 139 981 122 b 625 -14 865 26 751 -14 b 89 543 324 -14 89 229 b 625 1099 89 853 322 1099 "},"D":{"ha":1088,"x_min":0,"x_max":0,"o":"m 463 1085 b 1000 543 779 1085 1000 860 b 463 0 1000 225 779 0 l 211 0 b 139 72 169 0 139 31 l 139 1013 b 211 1085 139 1054 169 1085 l 463 1085 m 463 128 b 861 543 696 128 861 300 b 463 957 861 786 696 957 l 283 957 l 283 128 l 463 128 "},"Ð":{"ha":1088,"x_min":0,"x_max":0,"o":"m 463 1085 b 1000 543 779 1085 1000 860 b 463 0 1000 225 779 0 l 211 0 b 139 72 169 0 139 31 l 139 481 l 69 481 b -1 543 28 481 -1 504 b 69 606 -1 582 28 606 l 139 606 l 139 1013 b 211 1085 139 1054 169 1085 l 463 1085 m 463 128 b 861 543 696 128 861 300 b 463 957 861 786 696 957 l 283 957 l 283 606 l 461 606 b 533 543 503 606 533 582 b 461 481 533 504 503 481 l 283 481 l 283 128 l 463 128 "},"Ď":{"ha":1088,"x_min":0,"x_max":0,"o":"m 654 1388 b 769 1367 724 1435 769 1404 b 736 1307 769 1343 758 1324 l 582 1204 b 544 1193 569 1196 558 1193 b 508 1204 532 1193 519 1196 l 353 1307 b 319 1367 331 1324 319 1343 b 435 1388 319 1404 371 1432 l 544 1314 l 654 1388 m 463 1085 b 1000 543 779 1085 1000 860 b 463 0 1000 225 779 0 l 211 0 b 139 72 169 0 139 31 l 139 1013 b 211 1085 139 1054 169 1085 l 463 1085 m 463 128 b 861 543 696 128 861 300 b 463 957 861 786 696 957 l 283 957 l 283 128 l 463 128 "},"Đ":{"ha":1088,"x_min":0,"x_max":0,"o":"m 463 1085 b 1000 543 779 1085 1000 860 b 463 0 1000 225 779 0 l 211 0 b 139 72 169 0 139 31 l 139 481 l 69 481 b -1 543 28 481 -1 504 b 69 606 -1 582 28 606 l 139 606 l 139 1013 b 211 1085 139 1054 169 1085 l 463 1085 m 463 128 b 861 543 696 128 861 300 b 463 957 861 786 696 957 l 283 957 l 283 606 l 461 606 b 533 543 503 606 533 582 b 461 481 533 504 503 481 l 283 481 l 283 128 l 463 128 "},"E":{"ha":972,"x_min":0,"x_max":0,"o":"m 839 133 b 910 68 881 133 910 107 b 839 0 910 28 881 0 l 211 0 b 139 72 169 0 139 31 l 139 1013 b 211 1085 139 1054 169 1085 l 839 1085 b 910 1017 881 1085 910 1057 b 839 951 910 978 881 951 l 283 951 l 283 614 l 682 614 b 753 547 724 614 753 586 b 682 481 753 508 724 481 l 283 481 l 283 133 l 839 133 "},"É":{"ha":972,"x_min":0,"x_max":0,"o":"m 629 1458 b 679 1479 643 1472 661 1479 b 750 1407 721 1479 750 1447 b 731 1358 750 1388 744 1371 l 596 1224 b 547 1204 582 1210 567 1204 b 476 1275 506 1204 476 1233 b 493 1322 476 1294 482 1310 l 629 1458 m 839 133 b 910 68 881 133 910 107 b 839 0 910 28 881 0 l 211 0 b 139 72 169 0 139 31 l 139 1013 b 211 1085 139 1054 169 1085 l 839 1085 b 910 1017 881 1085 910 1057 b 839 951 910 978 881 951 l 283 951 l 283 614 l 682 614 b 753 547 724 614 753 586 b 682 481 753 508 724 481 l 283 481 l 283 133 l 839 133 "},"Ĕ":{"ha":972,"x_min":0,"x_max":0,"o":"m 382 1410 b 449 1353 415 1410 449 1388 b 542 1279 449 1310 497 1279 b 633 1353 599 1279 633 1310 b 701 1410 633 1388 665 1410 b 767 1339 742 1410 767 1379 b 542 1165 767 1240 665 1165 b 315 1339 417 1165 315 1240 b 382 1410 315 1379 342 1410 m 839 133 b 910 68 881 133 910 107 b 839 0 910 28 881 0 l 211 0 b 139 72 169 0 139 31 l 139 1013 b 211 1085 139 1054 169 1085 l 839 1085 b 910 1017 881 1085 910 1057 b 839 951 910 978 881 951 l 283 951 l 283 614 l 682 614 b 753 547 724 614 753 586 b 682 481 753 508 724 481 l 283 481 l 283 133 l 839 133 "},"Ě":{"ha":972,"x_min":0,"x_max":0,"o":"m 651 1388 b 767 1367 721 1435 767 1404 b 733 1307 767 1343 756 1324 l 579 1204 b 542 1193 567 1196 556 1193 b 506 1204 529 1193 517 1196 l 350 1307 b 317 1367 328 1324 317 1343 b 432 1388 317 1404 368 1432 l 542 1314 l 651 1388 m 839 133 b 910 68 881 133 910 107 b 839 0 910 28 881 0 l 211 0 b 139 72 169 0 139 31 l 139 1013 b 211 1085 139 1054 169 1085 l 839 1085 b 910 1017 881 1085 910 1057 b 839 951 910 978 881 951 l 283 951 l 283 614 l 682 614 b 753 547 724 614 753 586 b 682 481 753 508 724 481 l 283 481 l 283 133 l 839 133 "},"Ê":{"ha":972,"x_min":0,"x_max":0,"o":"m 432 1194 b 388 1179 418 1183 404 1179 b 317 1236 347 1179 317 1203 b 350 1297 317 1260 328 1281 l 506 1399 b 542 1410 517 1406 529 1410 b 579 1399 556 1410 567 1407 l 733 1297 b 767 1236 756 1281 767 1260 b 697 1179 767 1203 738 1179 b 651 1194 679 1179 667 1183 l 542 1272 l 432 1194 m 839 133 b 910 68 881 133 910 107 b 839 0 910 28 881 0 l 211 0 b 139 72 169 0 139 31 l 139 1013 b 211 1085 139 1054 169 1085 l 839 1085 b 910 1017 881 1085 910 1057 b 839 951 910 978 881 951 l 283 951 l 283 614 l 682 614 b 753 547 724 614 753 586 b 682 481 753 508 724 481 l 283 481 l 283 133 l 839 133 "},"Ế":{"ha":972,"x_min":0,"x_max":0,"o":"m 774 1658 b 824 1679 788 1672 806 1679 b 894 1607 865 1679 894 1647 b 875 1558 894 1588 889 1571 l 740 1424 b 692 1404 726 1410 711 1404 b 621 1475 650 1404 621 1433 b 638 1522 621 1494 626 1510 l 774 1658 m 432 1194 b 388 1179 418 1183 404 1179 b 317 1236 347 1179 317 1203 b 350 1297 317 1260 328 1281 l 506 1399 b 542 1410 517 1406 529 1410 b 579 1399 556 1410 567 1407 l 733 1297 b 767 1236 756 1281 767 1260 b 697 1179 767 1203 738 1179 b 651 1194 679 1179 667 1183 l 542 1272 l 432 1194 m 839 133 b 910 68 881 133 910 107 b 839 0 910 28 881 0 l 211 0 b 139 72 169 0 139 31 l 139 1013 b 211 1085 139 1054 169 1085 l 839 1085 b 910 1017 881 1085 910 1057 b 839 951 910 978 881 951 l 283 951 l 283 614 l 682 614 b 753 547 724 614 753 586 b 682 481 753 508 724 481 l 283 481 l 283 133 l 839 133 "},"Ệ":{"ha":972,"x_min":0,"x_max":0,"o":"m 432 1194 b 388 1179 418 1183 404 1179 b 317 1236 347 1179 317 1203 b 350 1297 317 1260 328 1281 l 506 1399 b 542 1410 517 1406 529 1410 b 579 1399 556 1410 567 1407 l 733 1297 b 767 1236 756 1281 767 1260 b 697 1179 767 1203 738 1179 b 651 1194 679 1179 667 1183 l 542 1272 l 432 1194 m 839 133 b 910 68 881 133 910 107 b 839 0 910 28 881 0 l 211 0 b 139 72 169 0 139 31 l 139 1013 b 211 1085 139 1054 169 1085 l 839 1085 b 910 1017 881 1085 910 1057 b 839 951 910 978 881 951 l 283 951 l 283 614 l 682 614 b 753 547 724 614 753 586 b 682 481 753 508 724 481 l 283 481 l 283 133 l 839 133 m 514 -128 b 606 -219 564 -128 606 -169 b 514 -311 606 -269 564 -311 b 422 -219 464 -311 422 -269 b 514 -128 422 -169 464 -128 "},"Ề":{"ha":972,"x_min":0,"x_max":0,"o":"m 497 1558 b 479 1607 485 1571 479 1588 b 549 1679 479 1647 508 1679 b 600 1658 568 1679 585 1672 l 735 1522 b 753 1475 747 1510 753 1494 b 682 1404 753 1433 722 1404 b 633 1424 663 1404 646 1410 l 497 1558 m 432 1194 b 388 1179 418 1183 404 1179 b 317 1236 347 1179 317 1203 b 350 1297 317 1260 328 1281 l 506 1399 b 542 1410 517 1406 529 1410 b 579 1399 556 1410 567 1407 l 733 1297 b 767 1236 756 1281 767 1260 b 697 1179 767 1203 738 1179 b 651 1194 679 1179 667 1183 l 542 1272 l 432 1194 m 839 133 b 910 68 881 133 910 107 b 839 0 910 28 881 0 l 211 0 b 139 72 169 0 139 31 l 139 1013 b 211 1085 139 1054 169 1085 l 839 1085 b 910 1017 881 1085 910 1057 b 839 951 910 978 881 951 l 283 951 l 283 614 l 682 614 b 753 547 724 614 753 586 b 682 481 753 508 724 481 l 283 481 l 283 133 l 839 133 "},"Ể":{"ha":972,"x_min":0,"x_max":0,"o":"m 722 1529 b 779 1585 754 1536 779 1556 b 719 1638 779 1621 754 1638 b 654 1615 693 1638 668 1626 b 608 1600 643 1606 624 1600 b 557 1649 581 1600 557 1615 b 579 1697 557 1668 565 1686 b 717 1743 615 1726 658 1743 b 886 1589 817 1743 886 1676 b 729 1447 888 1496 815 1458 l 756 1450 b 693 1360 756 1388 728 1360 b 631 1422 658 1360 631 1388 l 631 1453 b 686 1521 631 1490 649 1513 l 722 1529 m 439 1194 b 394 1179 425 1183 411 1179 b 324 1236 354 1179 324 1203 b 357 1297 324 1260 335 1281 l 513 1399 b 549 1410 524 1406 536 1410 b 586 1399 563 1410 574 1407 l 740 1297 b 774 1236 763 1281 774 1260 b 704 1179 774 1203 744 1179 b 658 1194 686 1179 674 1183 l 549 1272 l 439 1194 m 839 133 b 910 68 881 133 910 107 b 839 0 910 28 881 0 l 211 0 b 139 72 169 0 139 31 l 139 1013 b 211 1085 139 1054 169 1085 l 839 1085 b 910 1017 881 1085 910 1057 b 839 951 910 978 881 951 l 283 951 l 283 614 l 682 614 b 753 547 724 614 753 586 b 682 481 753 508 724 481 l 283 481 l 283 133 l 839 133 "},"Ễ":{"ha":972,"x_min":0,"x_max":0,"o":"m 444 1649 b 567 1588 508 1649 543 1608 b 614 1563 589 1568 601 1563 b 644 1583 626 1563 635 1569 b 728 1615 665 1613 697 1628 b 756 1532 763 1599 775 1564 b 629 1444 719 1471 679 1444 b 508 1501 581 1444 543 1468 b 456 1535 486 1522 474 1535 b 411 1496 436 1535 425 1519 b 331 1467 394 1468 361 1454 b 303 1547 299 1481 285 1515 b 444 1649 342 1617 388 1649 m 439 1194 b 394 1179 425 1183 411 1179 b 324 1236 354 1179 324 1203 b 357 1297 324 1260 335 1281 l 513 1399 b 549 1410 524 1406 536 1410 b 586 1399 563 1410 574 1407 l 740 1297 b 774 1236 763 1281 774 1260 b 704 1179 774 1203 744 1179 b 658 1194 686 1179 674 1183 l 549 1272 l 439 1194 m 839 133 b 910 68 881 133 910 107 b 839 0 910 28 881 0 l 211 0 b 139 72 169 0 139 31 l 139 1013 b 211 1085 139 1054 169 1085 l 839 1085 b 910 1017 881 1085 910 1057 b 839 951 910 978 881 951 l 283 951 l 283 614 l 682 614 b 753 547 724 614 753 586 b 682 481 753 508 724 481 l 283 481 l 283 133 l 839 133 "},"Ȅ":{"ha":972,"x_min":0,"x_max":0,"o":"m 536 1263 b 539 1240 538 1254 539 1246 b 482 1182 539 1203 508 1182 b 428 1218 457 1182 440 1194 l 351 1382 b 344 1408 346 1392 346 1401 b 417 1479 344 1446 376 1479 b 482 1435 446 1479 475 1460 m 735 1263 b 739 1240 738 1254 739 1246 b 681 1182 739 1203 707 1182 b 628 1218 657 1182 639 1194 l 550 1382 b 544 1408 546 1392 544 1401 b 617 1479 544 1446 575 1479 b 682 1435 646 1479 675 1460 m 839 133 b 910 68 881 133 910 107 b 839 0 910 28 881 0 l 211 0 b 139 72 169 0 139 31 l 139 1013 b 211 1085 139 1054 169 1085 l 839 1085 b 910 1017 881 1085 910 1057 b 839 951 910 978 881 951 l 283 951 l 283 614 l 682 614 b 753 547 724 614 753 586 b 682 481 753 508 724 481 l 283 481 l 283 133 l 839 133 "},"Ë":{"ha":972,"x_min":0,"x_max":0,"o":"m 388 1368 b 471 1285 432 1368 471 1329 b 388 1201 471 1238 432 1201 b 303 1285 340 1201 303 1238 b 388 1368 303 1329 340 1368 m 696 1368 b 779 1285 740 1368 779 1329 b 696 1201 779 1238 740 1201 b 613 1285 649 1201 613 1238 b 696 1368 613 1329 649 1368 m 839 133 b 910 68 881 133 910 107 b 839 0 910 28 881 0 l 211 0 b 139 72 169 0 139 31 l 139 1013 b 211 1085 139 1054 169 1085 l 839 1085 b 910 1017 881 1085 910 1057 b 839 951 910 978 881 951 l 283 951 l 283 614 l 682 614 b 753 547 724 614 753 586 b 682 481 753 508 724 481 l 283 481 l 283 133 l 839 133 "},"Ė":{"ha":972,"x_min":0,"x_max":0,"o":"m 542 1392 b 633 1300 592 1392 633 1350 b 542 1208 633 1250 592 1208 b 450 1300 492 1208 450 1250 b 542 1392 450 1350 492 1392 m 839 133 b 910 68 881 133 910 107 b 839 0 910 28 881 0 l 211 0 b 139 72 169 0 139 31 l 139 1013 b 211 1085 139 1054 169 1085 l 839 1085 b 910 1017 881 1085 910 1057 b 839 951 910 978 881 951 l 283 951 l 283 614 l 682 614 b 753 547 724 614 753 586 b 682 481 753 508 724 481 l 283 481 l 283 133 l 839 133 "},"Ẹ":{"ha":972,"x_min":0,"x_max":0,"o":"m 839 133 b 910 68 881 133 910 107 b 839 0 910 28 881 0 l 211 0 b 139 72 169 0 139 31 l 139 1013 b 211 1085 139 1054 169 1085 l 839 1085 b 910 1017 881 1085 910 1057 b 839 951 910 978 881 951 l 283 951 l 283 614 l 682 614 b 753 547 724 614 753 586 b 682 481 753 508 724 481 l 283 481 l 283 133 l 839 133 m 514 -128 b 606 -219 564 -128 606 -169 b 514 -311 606 -269 564 -311 b 422 -219 464 -311 422 -269 b 514 -128 422 -169 464 -128 "},"È":{"ha":972,"x_min":0,"x_max":0,"o":"m 353 1358 b 335 1407 340 1371 335 1388 b 404 1479 335 1447 364 1479 b 456 1458 424 1479 440 1472 l 590 1322 b 608 1275 603 1310 608 1294 b 538 1204 608 1233 578 1204 b 489 1224 518 1204 501 1210 l 353 1358 m 839 133 b 910 68 881 133 910 107 b 839 0 910 28 881 0 l 211 0 b 139 72 169 0 139 31 l 139 1013 b 211 1085 139 1054 169 1085 l 839 1085 b 910 1017 881 1085 910 1057 b 839 951 910 978 881 951 l 283 951 l 283 614 l 682 614 b 753 547 724 614 753 586 b 682 481 753 508 724 481 l 283 481 l 283 133 l 839 133 "},"Ẻ":{"ha":972,"x_min":0,"x_max":0,"o":"m 571 1329 b 628 1385 603 1336 628 1356 b 568 1438 628 1421 603 1438 b 503 1415 542 1438 517 1426 b 457 1400 492 1406 472 1400 b 406 1449 429 1400 406 1415 b 428 1497 406 1468 414 1486 b 565 1543 464 1526 507 1543 b 735 1389 665 1543 735 1476 b 578 1247 736 1296 664 1258 l 604 1250 b 542 1160 604 1188 576 1160 b 479 1222 507 1160 479 1188 l 479 1253 b 535 1321 479 1290 497 1313 l 571 1329 m 839 133 b 910 68 881 133 910 107 b 839 0 910 28 881 0 l 211 0 b 139 72 169 0 139 31 l 139 1013 b 211 1085 139 1054 169 1085 l 839 1085 b 910 1017 881 1085 910 1057 b 839 951 910 978 881 951 l 283 951 l 283 614 l 682 614 b 753 547 724 614 753 586 b 682 481 753 508 724 481 l 283 481 l 283 133 l 839 133 "},"Ȇ":{"ha":972,"x_min":0,"x_max":0,"o":"m 382 1165 b 315 1236 342 1165 315 1196 b 542 1410 315 1335 417 1410 b 767 1236 665 1410 767 1335 b 701 1165 767 1196 742 1165 b 633 1222 665 1165 633 1188 b 542 1296 633 1265 599 1296 b 449 1222 497 1296 449 1265 b 382 1165 449 1188 415 1165 m 839 133 b 910 68 881 133 910 107 b 839 0 910 28 881 0 l 211 0 b 139 72 169 0 139 31 l 139 1013 b 211 1085 139 1054 169 1085 l 839 1085 b 910 1017 881 1085 910 1057 b 839 951 910 978 881 951 l 283 951 l 283 614 l 682 614 b 753 547 724 614 753 586 b 682 481 753 508 724 481 l 283 481 l 283 133 l 839 133 "},"Ē":{"ha":972,"x_min":0,"x_max":0,"o":"m 714 1349 b 786 1288 754 1349 786 1328 b 714 1224 786 1246 754 1224 l 367 1224 b 296 1288 326 1224 296 1246 b 367 1349 296 1328 326 1349 l 714 1349 m 839 133 b 910 68 881 133 910 107 b 839 0 910 28 881 0 l 211 0 b 139 72 169 0 139 31 l 139 1013 b 211 1085 139 1054 169 1085 l 839 1085 b 910 1017 881 1085 910 1057 b 839 951 910 978 881 951 l 283 951 l 283 614 l 682 614 b 753 547 724 614 753 586 b 682 481 753 508 724 481 l 283 481 l 283 133 l 839 133 "},"Ę":{"ha":972,"x_min":0,"x_max":0,"o":"m 978 -190 b 1049 -261 1019 -190 1049 -221 b 1024 -318 1049 -285 1040 -303 l 971 -353 b 875 -383 942 -374 910 -383 b 701 -210 782 -383 701 -306 b 774 -68 701 -153 726 -107 b 813 -24 793 -54 806 -37 b 832 0 818 -14 824 -6 l 211 0 b 139 72 169 0 139 31 l 139 1013 b 211 1085 139 1054 169 1085 l 839 1085 b 910 1017 881 1085 910 1057 b 839 951 910 978 881 951 l 283 951 l 283 614 l 682 614 b 753 547 724 614 753 586 b 682 481 753 508 724 481 l 283 481 l 283 133 l 839 133 b 910 68 881 133 910 107 b 883 14 910 44 900 25 b 946 -56 918 10 943 -18 b 857 -182 946 -99 915 -140 b 843 -210 847 -190 843 -201 b 875 -242 843 -228 857 -242 b 892 -236 882 -242 888 -240 l 935 -204 b 978 -190 947 -196 961 -190 "},"Ẽ":{"ha":972,"x_min":0,"x_max":0,"o":"m 467 1375 b 603 1333 526 1375 571 1350 b 686 1301 644 1310 661 1301 b 742 1325 710 1301 729 1313 b 824 1344 768 1351 789 1365 b 831 1254 851 1328 854 1283 b 690 1189 796 1211 747 1189 b 549 1232 628 1189 582 1214 b 457 1264 508 1254 479 1264 b 390 1226 431 1264 413 1257 b 300 1196 368 1196 335 1179 b 288 1281 274 1208 267 1250 b 467 1375 331 1343 394 1375 m 839 133 b 910 68 881 133 910 107 b 839 0 910 28 881 0 l 211 0 b 139 72 169 0 139 31 l 139 1013 b 211 1085 139 1054 169 1085 l 839 1085 b 910 1017 881 1085 910 1057 b 839 951 910 978 881 951 l 283 951 l 283 614 l 682 614 b 753 547 724 614 753 586 b 682 481 753 508 724 481 l 283 481 l 283 133 l 839 133 "},"F":{"ha":868,"x_min":0,"x_max":0,"o":"m 594 614 b 665 547 636 614 665 586 b 594 481 665 508 636 481 l 196 481 l 196 72 b 124 0 196 32 164 0 b 51 72 83 0 51 32 l 51 1013 b 124 1085 51 1054 82 1085 l 751 1085 b 822 1017 793 1085 822 1057 b 751 951 822 978 793 951 l 196 951 l 196 614 l 594 614 "},"G":{"ha":1079,"x_min":0,"x_max":0,"o":"m 917 563 b 988 490 958 563 988 532 l 988 158 b 965 107 988 139 982 121 b 625 -14 867 25 751 -14 b 89 543 324 -14 89 229 b 625 1099 89 853 322 1099 b 964 979 767 1099 860 1064 b 992 922 986 961 992 946 b 876 876 992 868 924 836 b 625 968 807 936 746 968 b 228 543 406 968 228 778 b 625 118 228 306 406 118 b 849 188 707 118 781 143 l 849 435 l 657 435 b 585 499 615 435 585 461 b 657 563 585 536 615 563 l 917 563 "},"Ğ":{"ha":1079,"x_min":0,"x_max":0,"o":"m 624 1165 b 397 1339 499 1165 397 1240 b 464 1410 397 1379 424 1410 b 531 1353 497 1410 531 1388 b 624 1279 531 1310 579 1279 b 715 1353 681 1279 715 1310 b 783 1410 715 1388 747 1410 b 849 1339 824 1410 849 1379 b 624 1165 849 1240 747 1165 m 917 563 b 988 490 958 563 988 532 l 988 158 b 965 107 988 139 982 121 b 625 -14 867 25 751 -14 b 89 543 324 -14 89 229 b 625 1099 89 853 322 1099 b 964 979 767 1099 860 1064 b 992 922 986 961 992 946 b 876 876 992 868 924 836 b 625 968 807 936 746 968 b 228 543 406 968 228 778 b 625 118 228 306 406 118 b 849 188 707 118 781 143 l 849 435 l 657 435 b 585 499 615 435 585 461 b 657 563 585 536 615 563 l 917 563 "},"Ǧ":{"ha":1079,"x_min":0,"x_max":0,"o":"m 432 1307 b 399 1367 410 1324 399 1343 b 514 1388 399 1404 450 1432 l 624 1314 l 733 1388 b 849 1367 803 1435 849 1404 b 815 1307 849 1343 838 1324 l 661 1204 b 624 1193 649 1196 638 1193 b 588 1204 611 1193 599 1196 l 432 1307 m 917 563 b 988 490 958 563 988 532 l 988 158 b 965 107 988 139 982 121 b 625 -14 867 25 751 -14 b 89 543 324 -14 89 229 b 625 1099 89 853 322 1099 b 964 979 767 1099 860 1064 b 992 922 986 961 992 946 b 876 876 992 868 924 836 b 625 968 807 936 746 968 b 228 543 406 968 228 778 b 625 118 228 306 406 118 b 849 188 707 118 781 143 l 849 435 l 657 435 b 585 499 615 435 585 461 b 657 563 585 536 615 563 l 917 563 "},"Ĝ":{"ha":1079,"x_min":0,"x_max":0,"o":"m 469 1179 b 399 1236 429 1179 399 1203 b 432 1297 399 1260 410 1281 l 588 1399 b 624 1410 599 1406 611 1410 b 661 1399 638 1410 649 1407 l 815 1297 b 849 1236 838 1281 849 1260 b 779 1179 849 1203 819 1179 b 733 1194 761 1179 749 1183 l 624 1272 l 514 1194 b 469 1179 500 1183 486 1179 m 917 563 b 988 490 958 563 988 532 l 988 158 b 965 107 988 139 982 121 b 625 -14 867 25 751 -14 b 89 543 324 -14 89 229 b 625 1099 89 853 322 1099 b 964 979 767 1099 860 1064 b 992 922 986 961 992 946 b 876 876 992 868 924 836 b 625 968 807 936 746 968 b 228 543 406 968 228 778 b 625 118 228 306 406 118 b 849 188 707 118 781 143 l 849 435 l 657 435 b 585 499 615 435 585 461 b 657 563 585 536 615 563 l 917 563 "},"Ģ":{"ha":1079,"x_min":0,"x_max":0,"o":"m 917 563 b 988 490 958 563 988 532 l 988 158 b 965 107 988 139 982 121 b 625 -14 867 25 751 -14 b 89 543 324 -14 89 229 b 625 1099 89 853 322 1099 b 964 979 767 1099 860 1064 b 992 922 986 961 992 946 b 876 876 992 868 924 836 b 625 968 807 936 746 968 b 228 543 406 968 228 778 b 625 118 228 306 406 118 b 849 188 707 118 781 143 l 849 435 l 657 435 b 585 499 615 435 585 461 b 657 563 585 536 615 563 l 917 563 m 596 -56 b 782 -199 707 -56 782 -115 b 601 -343 782 -289 704 -343 b 428 -233 525 -343 428 -310 b 476 -187 428 -206 449 -187 b 613 -254 533 -187 528 -254 b 686 -206 665 -254 686 -242 b 582 -149 686 -169 653 -149 b 515 -104 543 -149 515 -133 b 596 -56 515 -72 543 -56 "},"Ġ":{"ha":1079,"x_min":0,"x_max":0,"o":"m 624 1208 b 532 1300 574 1208 532 1250 b 624 1392 532 1350 574 1392 b 715 1300 674 1392 715 1350 b 624 1208 715 1250 674 1208 m 917 563 b 988 490 958 563 988 532 l 988 158 b 965 107 988 139 982 121 b 625 -14 867 25 751 -14 b 89 543 324 -14 89 229 b 625 1099 89 853 322 1099 b 964 979 767 1099 860 1064 b 992 922 986 961 992 946 b 876 876 992 868 924 836 b 625 968 807 936 746 968 b 228 543 406 968 228 778 b 625 118 228 306 406 118 b 849 188 707 118 781 143 l 849 435 l 657 435 b 585 499 615 435 585 461 b 657 563 585 536 615 563 l 917 563 "},"H":{"ha":1210,"x_min":0,"x_max":0,"o":"m 928 1013 b 1000 1085 928 1054 958 1085 b 1071 1013 1042 1085 1071 1054 l 1071 72 b 1000 0 1071 31 1042 0 b 928 72 958 0 928 31 l 928 486 l 283 486 l 283 72 b 211 0 283 31 253 0 b 139 72 169 0 139 31 l 139 1013 b 211 1085 139 1054 169 1085 b 283 1013 253 1085 283 1054 l 283 614 l 928 614 l 928 1013 "},"Ħ":{"ha":1210,"x_min":0,"x_max":0,"o":"m 1106 883 b 1178 835 1147 883 1178 874 b 1106 786 1178 796 1147 786 l 1071 786 l 1071 72 b 1000 0 1071 31 1042 0 b 928 72 958 0 928 31 l 928 486 l 283 486 l 283 72 b 211 0 283 31 253 0 b 139 72 169 0 139 31 l 139 786 l 103 786 b 32 835 61 786 32 796 b 103 883 32 874 61 883 l 139 883 l 139 1013 b 211 1085 139 1054 169 1085 b 283 1013 253 1085 283 1054 l 283 883 l 928 883 l 928 1013 b 1000 1085 928 1054 958 1085 b 1071 1013 1042 1085 1071 1054 l 1071 883 l 1106 883 m 928 786 l 283 786 l 283 614 l 928 614 "},"Ĥ":{"ha":1210,"x_min":0,"x_max":0,"o":"m 496 1194 b 451 1179 482 1183 468 1179 b 381 1236 411 1179 381 1203 b 414 1297 381 1260 392 1281 l 569 1399 b 606 1410 581 1406 593 1410 b 643 1399 619 1410 631 1407 l 797 1297 b 831 1236 819 1281 831 1260 b 761 1179 831 1203 801 1179 b 715 1194 743 1179 731 1183 l 606 1272 l 496 1194 m 928 1013 b 1000 1085 928 1054 958 1085 b 1071 1013 1042 1085 1071 1054 l 1071 72 b 1000 0 1071 31 1042 0 b 928 72 958 0 928 31 l 928 486 l 283 486 l 283 72 b 211 0 283 31 253 0 b 139 72 169 0 139 31 l 139 1013 b 211 1085 139 1054 169 1085 b 283 1013 253 1085 283 1054 l 283 614 l 928 614 l 928 1013 "},"I":{"ha":422,"x_min":0,"x_max":0,"o":"m 139 1013 b 211 1085 139 1054 169 1085 b 283 1013 253 1085 283 1054 l 283 72 b 211 0 283 31 253 0 b 139 72 169 0 139 31 l 139 1013 "},"Ĳ":{"ha":904,"x_min":0,"x_max":0,"o":"m 765 319 b 431 -14 765 124 626 -14 b 139 236 260 -14 139 89 b 211 308 139 278 169 308 b 283 236 253 308 283 278 b 431 117 283 165 344 117 b 621 319 542 117 621 200 l 621 1013 b 692 1085 621 1054 650 1085 b 765 1013 735 1085 765 1054 l 765 319 m 139 1013 b 211 1085 139 1054 169 1085 b 283 1013 253 1085 283 1054 l 283 475 b 211 403 283 433 253 403 b 139 475 169 403 139 433 l 139 1013 "},"Í":{"ha":422,"x_min":0,"x_max":0,"o":"m 299 1458 b 349 1479 313 1472 331 1479 b 419 1407 390 1479 419 1447 b 400 1358 419 1388 414 1371 l 265 1224 b 217 1204 251 1210 236 1204 b 146 1275 175 1204 146 1233 b 163 1322 146 1294 151 1310 l 299 1458 m 139 1013 b 211 1085 139 1054 169 1085 b 283 1013 253 1085 283 1054 l 283 72 b 211 0 283 31 253 0 b 139 72 169 0 139 31 l 139 1013 "},"Ĭ":{"ha":422,"x_min":0,"x_max":0,"o":"m 51 1410 b 118 1353 85 1410 118 1388 b 211 1279 118 1310 167 1279 b 303 1353 268 1279 303 1310 b 371 1410 303 1388 335 1410 b 436 1339 411 1410 436 1379 b 211 1165 436 1240 335 1165 b -15 1339 86 1165 -15 1240 b 51 1410 -15 1379 11 1410 m 139 1013 b 211 1085 139 1054 169 1085 b 283 1013 253 1085 283 1054 l 283 72 b 211 0 283 31 253 0 b 139 72 169 0 139 31 l 139 1013 "},"Î":{"ha":422,"x_min":0,"x_max":0,"o":"m 101 1194 b 57 1179 88 1183 74 1179 b -14 1236 17 1179 -14 1203 b 19 1297 -14 1260 -3 1281 l 175 1399 b 211 1410 186 1406 199 1410 b 249 1399 225 1410 236 1407 l 403 1297 b 436 1236 425 1281 436 1260 b 367 1179 436 1203 407 1179 b 321 1194 349 1179 336 1183 l 211 1272 l 101 1194 m 139 1013 b 211 1085 139 1054 169 1085 b 283 1013 253 1085 283 1054 l 283 72 b 211 0 283 31 253 0 b 139 72 169 0 139 31 l 139 1013 "},"Ȉ":{"ha":422,"x_min":0,"x_max":0,"o":"m 206 1263 b 208 1240 207 1254 208 1246 b 151 1182 208 1203 178 1182 b 97 1218 126 1182 110 1194 l 21 1382 b 14 1408 15 1392 15 1401 b 86 1479 14 1446 46 1479 b 151 1435 115 1479 144 1460 m 404 1263 b 408 1240 407 1254 408 1246 b 350 1182 408 1203 376 1182 b 297 1218 326 1182 308 1194 l 219 1382 b 214 1408 215 1392 214 1401 b 286 1479 214 1446 244 1479 b 351 1435 315 1479 344 1460 m 139 1013 b 211 1085 139 1054 169 1085 b 283 1013 253 1085 283 1054 l 283 72 b 211 0 283 31 253 0 b 139 72 169 0 139 31 l 139 1013 "},"Ï":{"ha":422,"x_min":0,"x_max":0,"o":"m 57 1368 b 140 1285 101 1368 140 1329 b 57 1201 140 1238 101 1201 b -28 1285 10 1201 -28 1238 b 57 1368 -28 1329 10 1368 m 365 1368 b 449 1285 410 1368 449 1329 b 365 1201 449 1238 410 1201 b 282 1285 318 1201 282 1238 b 365 1368 282 1329 318 1368 m 139 1013 b 211 1085 139 1054 169 1085 b 283 1013 253 1085 283 1054 l 283 72 b 211 0 283 31 253 0 b 139 72 169 0 139 31 l 139 1013 "},"İ":{"ha":422,"x_min":0,"x_max":0,"o":"m 211 1392 b 303 1300 261 1392 303 1350 b 211 1208 303 1250 261 1208 b 119 1300 161 1208 119 1250 b 211 1392 119 1350 161 1392 m 139 1013 b 211 1085 139 1054 169 1085 b 283 1013 253 1085 283 1054 l 283 72 b 211 0 283 31 253 0 b 139 72 169 0 139 31 l 139 1013 "},"Ị":{"ha":422,"x_min":0,"x_max":0,"o":"m 139 1013 b 211 1085 139 1054 169 1085 b 283 1013 253 1085 283 1054 l 283 72 b 211 0 283 31 253 0 b 139 72 169 0 139 31 l 139 1013 m 211 -128 b 303 -219 261 -128 303 -169 b 211 -311 303 -269 261 -311 b 119 -219 161 -311 119 -269 b 211 -128 119 -169 161 -128 "},"Ì":{"ha":422,"x_min":0,"x_max":0,"o":"m 22 1358 b 4 1407 10 1371 4 1388 b 74 1479 4 1447 33 1479 b 125 1458 93 1479 110 1472 l 260 1322 b 278 1275 272 1310 278 1294 b 207 1204 278 1233 247 1204 b 158 1224 188 1204 171 1210 l 22 1358 m 139 1013 b 211 1085 139 1054 169 1085 b 283 1013 253 1085 283 1054 l 283 72 b 211 0 283 31 253 0 b 139 72 169 0 139 31 l 139 1013 "},"Ỉ":{"ha":422,"x_min":0,"x_max":0,"o":"m 240 1329 b 297 1385 272 1336 297 1356 b 238 1438 297 1421 272 1438 b 172 1415 211 1438 186 1426 b 126 1400 161 1406 142 1400 b 75 1449 99 1400 75 1415 b 97 1497 75 1468 83 1486 b 235 1543 133 1526 176 1543 b 404 1389 335 1543 404 1476 b 247 1247 406 1296 333 1258 l 274 1250 b 211 1160 274 1188 246 1160 b 149 1222 176 1160 149 1188 l 149 1253 b 204 1321 149 1290 167 1313 l 240 1329 m 139 1013 b 211 1085 139 1054 169 1085 b 283 1013 253 1085 283 1054 l 283 72 b 211 0 283 31 253 0 b 139 72 169 0 139 31 l 139 1013 "},"Ȋ":{"ha":422,"x_min":0,"x_max":0,"o":"m 51 1165 b -15 1236 11 1165 -15 1196 b 211 1410 -15 1335 86 1410 b 436 1236 335 1410 436 1335 b 371 1165 436 1196 411 1165 b 303 1222 335 1165 303 1188 b 211 1296 303 1265 268 1296 b 118 1222 167 1296 118 1265 b 51 1165 118 1188 85 1165 m 139 1013 b 211 1085 139 1054 169 1085 b 283 1013 253 1085 283 1054 l 283 72 b 211 0 283 31 253 0 b 139 72 169 0 139 31 l 139 1013 "},"Ī":{"ha":422,"x_min":0,"x_max":0,"o":"m 383 1349 b 456 1288 424 1349 456 1328 b 383 1224 456 1246 424 1224 l 36 1224 b -35 1288 -4 1224 -35 1246 b 36 1349 -35 1328 -4 1349 l 383 1349 m 139 1013 b 211 1085 139 1054 169 1085 b 283 1013 253 1085 283 1054 l 283 72 b 211 0 283 31 253 0 b 139 72 169 0 139 31 l 139 1013 "},"Į":{"ha":422,"x_min":0,"x_max":0,"o":"m 314 -190 b 385 -261 356 -190 385 -221 b 360 -318 385 -285 376 -303 l 307 -353 b 211 -383 278 -374 246 -383 b 38 -210 118 -383 38 -306 b 110 -68 38 -153 63 -107 b 149 -24 129 -54 142 -37 b 179 7 156 -10 165 0 b 139 72 154 18 139 42 l 139 1013 b 211 1085 139 1054 169 1085 b 283 1013 253 1085 283 1054 l 283 72 b 243 7 283 42 268 18 b 282 -56 265 -4 281 -28 b 193 -182 282 -99 251 -140 b 179 -210 183 -190 179 -201 b 211 -242 179 -228 193 -242 b 228 -236 218 -242 224 -240 l 271 -204 b 314 -190 283 -196 297 -190 "},"Ĩ":{"ha":422,"x_min":0,"x_max":0,"o":"m 124 1401 b 246 1340 188 1401 222 1361 b 293 1315 268 1321 281 1315 b 324 1336 306 1315 314 1322 b 407 1368 344 1365 376 1381 b 435 1285 442 1351 454 1317 b 308 1197 399 1224 358 1197 b 188 1254 260 1197 222 1221 b 135 1288 165 1275 153 1288 b 90 1249 115 1288 104 1272 b 10 1219 74 1221 40 1207 b -18 1300 -22 1233 -36 1268 b 124 1401 21 1369 67 1401 m 139 1013 b 211 1085 139 1054 169 1085 b 283 1013 253 1085 283 1054 l 283 72 b 211 0 283 31 253 0 b 139 72 169 0 139 31 l 139 1013 "},"J":{"ha":869,"x_min":0,"x_max":0,"o":"m 731 319 b 396 -14 731 124 592 -14 b 63 319 200 -14 63 124 b 135 392 63 361 93 392 b 207 319 176 392 207 361 b 396 117 207 200 285 117 b 586 319 507 117 586 200 l 586 1013 b 657 1085 586 1054 615 1085 b 731 1013 700 1085 731 1054 l 731 319 "},"Ĵ":{"ha":869,"x_min":0,"x_max":0,"o":"m 549 1194 b 504 1179 535 1183 521 1179 b 433 1236 464 1179 433 1203 b 467 1297 433 1260 444 1281 l 622 1399 b 658 1410 633 1406 646 1410 b 696 1399 672 1410 683 1407 l 850 1297 b 883 1236 872 1281 883 1260 b 814 1179 883 1203 854 1179 b 768 1194 796 1179 783 1183 l 658 1272 l 549 1194 m 731 319 b 396 -14 731 124 592 -14 b 63 319 200 -14 63 124 b 135 392 63 361 93 392 b 207 319 176 392 207 361 b 396 117 207 200 285 117 b 586 319 507 117 586 200 l 586 1013 b 657 1085 586 1054 615 1085 b 731 1013 700 1085 731 1054 l 731 319 "},"K":{"ha":926,"x_min":0,"x_max":0,"o":"m 283 72 b 211 0 283 32 251 0 b 139 72 172 0 139 32 l 139 1013 b 211 1085 139 1053 172 1085 b 283 1013 251 1085 283 1053 l 283 596 l 743 1056 b 803 1085 765 1078 782 1085 b 838 963 872 1085 882 1008 l 483 607 l 844 115 b 794 0 876 68 849 0 b 735 31 768 0 749 10 l 383 507 l 283 407 l 283 72 "},"Ķ":{"ha":926,"x_min":0,"x_max":0,"o":"m 283 72 b 211 0 283 32 251 0 b 139 72 172 0 139 32 l 139 1013 b 211 1085 139 1053 172 1085 b 283 1013 251 1085 283 1053 l 283 596 l 743 1056 b 803 1085 765 1078 782 1085 b 838 963 872 1085 882 1008 l 483 607 l 844 115 b 794 0 876 68 849 0 b 735 31 768 0 749 10 l 383 507 l 283 407 l 283 72 m 464 -56 b 650 -199 575 -56 650 -115 b 469 -343 650 -289 572 -343 b 296 -233 393 -343 296 -310 b 344 -187 296 -206 317 -187 b 481 -254 401 -187 396 -254 b 554 -206 533 -254 554 -242 b 450 -149 554 -169 521 -149 b 383 -104 411 -149 383 -133 b 464 -56 383 -72 411 -56 "},"L":{"ha":892,"x_min":0,"x_max":0,"o":"m 785 144 b 857 72 825 144 857 113 b 785 0 857 32 825 0 l 210 0 b 139 72 169 0 139 31 l 139 1013 b 210 1085 139 1053 171 1085 b 282 1013 250 1085 282 1053 l 282 144 l 785 144 "},"Ĺ":{"ha":892,"x_min":0,"x_max":0,"o":"m 297 1458 b 347 1479 311 1472 329 1479 b 418 1407 389 1479 418 1447 b 399 1358 418 1388 413 1371 l 264 1224 b 215 1204 250 1210 235 1204 b 144 1275 174 1204 144 1233 b 161 1322 144 1294 150 1310 l 297 1458 m 785 144 b 857 72 825 144 857 113 b 785 0 857 32 825 0 l 210 0 b 139 72 169 0 139 31 l 139 1013 b 210 1085 139 1053 171 1085 b 282 1013 250 1085 282 1053 l 282 144 l 785 144 "},"Ľ":{"ha":892,"x_min":0,"x_max":0,"o":"m 624 1096 b 711 965 683 1096 719 1035 b 526 699 700 835 581 692 b 492 736 503 701 489 713 b 578 903 497 785 569 836 b 556 1038 585 961 556 979 b 624 1096 556 1074 586 1096 m 785 144 b 857 72 825 144 857 113 b 785 0 857 32 825 0 l 210 0 b 139 72 169 0 139 31 l 139 1013 b 210 1085 139 1053 171 1085 b 282 1013 250 1085 282 1053 l 282 144 l 785 144 "},"Ļ":{"ha":892,"x_min":0,"x_max":0,"o":"m 785 144 b 857 72 825 144 857 113 b 785 0 857 32 825 0 l 210 0 b 139 72 169 0 139 31 l 139 1013 b 210 1085 139 1053 171 1085 b 282 1013 250 1085 282 1053 l 282 144 l 785 144 m 460 -56 b 646 -199 571 -56 646 -115 b 465 -343 646 -289 568 -343 b 292 -233 389 -343 292 -310 b 340 -187 292 -206 313 -187 b 476 -254 397 -187 392 -254 b 550 -206 529 -254 550 -242 b 446 -149 550 -169 517 -149 b 379 -104 407 -149 379 -133 b 460 -56 379 -72 407 -56 "},"Ŀ":{"ha":814,"x_min":0,"x_max":0,"o":"m 785 144 b 857 72 825 144 857 113 b 785 0 857 32 825 0 l 210 0 b 139 72 169 0 139 31 l 139 1013 b 210 1085 139 1053 171 1085 b 282 1013 250 1085 282 1053 l 282 144 l 785 144 m 622 606 b 718 508 675 606 718 561 b 622 413 718 457 676 413 b 526 508 569 413 526 456 b 622 606 526 563 571 606 "},"Ł":{"ha":922,"x_min":0,"x_max":0,"o":"m 803 144 b 875 72 843 144 875 113 b 803 0 875 31 843 0 l 228 0 b 156 72 188 0 156 31 l 156 372 l 139 354 b 90 333 125 340 110 333 b 15 406 49 333 15 364 b 36 456 15 425 22 442 l 156 575 l 156 1013 b 228 1085 156 1054 188 1085 b 300 1013 268 1085 300 1054 l 300 717 l 469 879 b 521 900 483 893 501 900 b 593 826 561 900 593 864 b 572 776 593 807 586 790 l 300 515 l 300 144 l 803 144 "},"M":{"ha":1364,"x_min":0,"x_max":0,"o":"m 1153 1085 b 1225 1013 1193 1085 1225 1054 l 1225 72 b 1153 0 1225 32 1192 0 b 1081 72 1113 0 1081 32 l 1081 763 l 744 78 b 682 42 729 54 710 42 b 615 85 651 42 629 56 l 283 750 l 283 72 b 211 0 283 32 251 0 b 139 72 171 0 139 32 l 139 1013 b 211 1085 139 1054 171 1085 b 275 1046 239 1085 260 1072 l 688 219 l 1089 1046 b 1153 1085 1104 1072 1126 1085 "},"N":{"ha":1153,"x_min":0,"x_max":0,"o":"m 871 1013 b 943 1085 871 1054 901 1085 b 1014 1013 985 1085 1014 1054 l 1014 72 b 943 0 1014 31 985 0 b 888 25 924 0 900 8 l 282 831 l 282 72 b 210 0 282 31 251 0 b 139 72 168 0 139 31 l 139 1013 b 210 1085 139 1054 168 1085 b 265 1058 229 1085 253 1074 l 871 253 l 871 1013 "},"Ń":{"ha":1153,"x_min":0,"x_max":0,"o":"m 664 1458 b 714 1479 678 1472 696 1479 b 785 1407 756 1479 785 1447 b 765 1358 785 1388 779 1371 l 631 1224 b 582 1204 617 1210 601 1204 b 511 1275 540 1204 511 1233 b 528 1322 511 1294 517 1310 l 664 1458 m 871 1013 b 943 1085 871 1054 901 1085 b 1014 1013 985 1085 1014 1054 l 1014 72 b 943 0 1014 31 985 0 b 888 25 924 0 900 8 l 282 831 l 282 72 b 210 0 282 31 251 0 b 139 72 168 0 139 31 l 139 1013 b 210 1085 139 1054 168 1085 b 265 1058 229 1085 253 1074 l 871 253 l 871 1013 "},"Ň":{"ha":1153,"x_min":0,"x_max":0,"o":"m 686 1388 b 801 1367 756 1435 801 1404 b 768 1307 801 1343 790 1324 l 614 1204 b 576 1193 601 1196 590 1193 b 540 1204 564 1193 551 1196 l 385 1307 b 351 1367 363 1324 351 1343 b 467 1388 351 1404 403 1432 l 576 1314 l 686 1388 m 871 1013 b 943 1085 871 1054 901 1085 b 1014 1013 985 1085 1014 1054 l 1014 72 b 943 0 1014 31 985 0 b 888 25 924 0 900 8 l 282 831 l 282 72 b 210 0 282 31 251 0 b 139 72 168 0 139 31 l 139 1013 b 210 1085 139 1054 168 1085 b 265 1058 229 1085 253 1074 l 871 253 l 871 1013 "},"Ņ":{"ha":1153,"x_min":0,"x_max":0,"o":"m 871 1013 b 943 1085 871 1054 901 1085 b 1014 1013 985 1085 1014 1054 l 1014 72 b 943 0 1014 31 985 0 b 888 25 924 0 900 8 l 282 831 l 282 72 b 210 0 282 31 251 0 b 139 72 168 0 139 31 l 139 1013 b 210 1085 139 1054 168 1085 b 265 1058 229 1085 253 1074 l 871 253 l 871 1013 m 576 -56 b 763 -199 688 -56 763 -115 b 582 -343 763 -289 685 -343 b 408 -233 506 -343 408 -310 b 457 -187 408 -206 429 -187 b 593 -254 514 -187 508 -254 b 667 -206 646 -254 667 -242 b 563 -149 667 -169 633 -149 b 496 -104 524 -149 496 -133 b 576 -56 496 -72 524 -56 "},"Ŋ":{"ha":1040,"x_min":0,"x_max":0,"o":"m 546 1086 b 943 633 796 1086 943 899 l 943 524 b 610 -14 943 172 825 -14 b 364 144 501 -14 403 36 b 397 224 351 179 365 213 b 481 182 432 236 465 218 b 601 124 499 139 551 124 b 800 524 753 124 800 254 l 800 633 b 536 951 800 835 710 951 b 282 732 382 951 282 861 l 282 72 b 210 0 282 31 250 0 b 139 72 169 0 139 31 l 139 1013 b 210 1085 139 1054 169 1085 b 282 1013 251 1085 282 1054 l 282 943 b 546 1086 347 1033 428 1086 "},"Ñ":{"ha":1153,"x_min":0,"x_max":0,"o":"m 501 1375 b 638 1333 561 1375 606 1350 b 721 1301 679 1310 696 1301 b 776 1325 744 1301 764 1313 b 858 1344 803 1351 824 1365 b 865 1254 886 1328 889 1283 b 725 1189 831 1211 782 1189 b 583 1232 663 1189 617 1214 b 492 1264 543 1254 514 1264 b 425 1226 465 1264 447 1257 b 335 1196 403 1196 369 1179 b 322 1281 308 1208 301 1250 b 501 1375 365 1343 429 1375 m 871 1013 b 943 1085 871 1054 901 1085 b 1014 1013 985 1085 1014 1054 l 1014 72 b 943 0 1014 31 985 0 b 888 25 924 0 900 8 l 282 831 l 282 72 b 210 0 282 31 251 0 b 139 72 168 0 139 31 l 139 1013 b 210 1085 139 1054 168 1085 b 265 1058 229 1085 253 1074 l 871 253 l 871 1013 "},"O":{"ha":1279,"x_min":0,"x_max":0,"o":"m 640 1099 b 1192 543 965 1099 1192 868 b 640 -14 1192 217 965 -14 b 89 543 314 -14 89 217 b 640 1099 89 868 314 1099 m 640 968 b 228 543 399 968 228 785 b 640 117 228 301 399 117 b 1053 543 882 117 1053 301 b 640 968 1053 785 882 968 "},"Ó":{"ha":1279,"x_min":0,"x_max":0,"o":"m 728 1458 b 778 1479 742 1472 760 1479 b 849 1407 819 1479 849 1447 b 829 1358 849 1388 843 1371 l 694 1224 b 646 1204 681 1210 665 1204 b 575 1275 604 1204 575 1233 b 592 1322 575 1294 581 1310 l 728 1458 m 640 1099 b 1192 543 965 1099 1192 868 b 640 -14 1192 217 965 -14 b 89 543 314 -14 89 217 b 640 1099 89 868 314 1099 m 640 968 b 228 543 399 968 228 785 b 640 117 228 301 399 117 b 1053 543 882 117 1053 301 b 640 968 1053 785 882 968 "},"Ŏ":{"ha":1279,"x_min":0,"x_max":0,"o":"m 481 1410 b 547 1353 514 1410 547 1388 b 640 1279 547 1310 596 1279 b 732 1353 697 1279 732 1310 b 800 1410 732 1388 764 1410 b 865 1339 840 1410 865 1379 b 640 1165 865 1240 764 1165 b 414 1339 515 1165 414 1240 b 481 1410 414 1379 440 1410 m 640 1099 b 1192 543 965 1099 1192 868 b 640 -14 1192 217 965 -14 b 89 543 314 -14 89 217 b 640 1099 89 868 314 1099 m 640 968 b 228 543 399 968 228 785 b 640 117 228 301 399 117 b 1053 543 882 117 1053 301 b 640 968 1053 785 882 968 "},"Ô":{"ha":1279,"x_min":0,"x_max":0,"o":"m 531 1194 b 486 1179 517 1183 503 1179 b 415 1236 446 1179 415 1203 b 449 1297 415 1260 426 1281 l 604 1399 b 640 1410 615 1406 628 1410 b 678 1399 654 1410 665 1407 l 832 1297 b 865 1236 854 1281 865 1260 b 796 1179 865 1203 836 1179 b 750 1194 778 1179 765 1183 l 640 1272 l 531 1194 m 640 1099 b 1192 543 965 1099 1192 868 b 640 -14 1192 217 965 -14 b 89 543 314 -14 89 217 b 640 1099 89 868 314 1099 m 640 968 b 228 543 399 968 228 785 b 640 117 228 301 399 117 b 1053 543 882 117 1053 301 b 640 968 1053 785 882 968 "},"Ố":{"ha":1279,"x_min":0,"x_max":0,"o":"m 872 1658 b 922 1679 886 1672 904 1679 b 993 1607 964 1679 993 1647 b 974 1558 993 1588 988 1571 l 839 1424 b 790 1404 825 1410 810 1404 b 719 1475 749 1404 719 1433 b 736 1522 719 1494 725 1510 l 872 1658 m 531 1194 b 486 1179 517 1183 503 1179 b 415 1236 446 1179 415 1203 b 449 1297 415 1260 426 1281 l 604 1399 b 640 1410 615 1406 628 1410 b 678 1399 654 1410 665 1407 l 832 1297 b 865 1236 854 1281 865 1260 b 796 1179 865 1203 836 1179 b 750 1194 778 1179 765 1183 l 640 1272 l 531 1194 m 640 1099 b 1192 543 965 1099 1192 868 b 640 -14 1192 217 965 -14 b 89 543 314 -14 89 217 b 640 1099 89 868 314 1099 m 640 968 b 228 543 399 968 228 785 b 640 117 228 301 399 117 b 1053 543 882 117 1053 301 b 640 968 1053 785 882 968 "},"Ộ":{"ha":1279,"x_min":0,"x_max":0,"o":"m 531 1194 b 486 1179 517 1183 503 1179 b 415 1236 446 1179 415 1203 b 449 1297 415 1260 426 1281 l 604 1399 b 640 1410 615 1406 628 1410 b 678 1399 654 1410 665 1407 l 832 1297 b 865 1236 854 1281 865 1260 b 796 1179 865 1203 836 1179 b 750 1194 778 1179 765 1183 l 640 1272 l 531 1194 m 640 1099 b 1192 543 965 1099 1192 868 b 640 -14 1192 217 965 -14 b 89 543 314 -14 89 217 b 640 1099 89 868 314 1099 m 640 968 b 228 543 399 968 228 785 b 640 117 228 301 399 117 b 1053 543 882 117 1053 301 b 640 968 1053 785 882 968 m 640 -128 b 732 -219 690 -128 732 -169 b 640 -311 732 -269 690 -311 b 549 -219 590 -311 549 -269 b 640 -128 549 -169 590 -128 "},"Ồ":{"ha":1279,"x_min":0,"x_max":0,"o":"m 596 1558 b 578 1607 583 1571 578 1588 b 647 1679 578 1647 607 1679 b 699 1658 667 1679 683 1672 l 833 1522 b 851 1475 846 1510 851 1494 b 781 1404 851 1433 821 1404 b 732 1424 761 1404 744 1410 l 596 1558 m 531 1194 b 486 1179 517 1183 503 1179 b 415 1236 446 1179 415 1203 b 449 1297 415 1260 426 1281 l 604 1399 b 640 1410 615 1406 628 1410 b 678 1399 654 1410 665 1407 l 832 1297 b 865 1236 854 1281 865 1260 b 796 1179 865 1203 836 1179 b 750 1194 778 1179 765 1183 l 640 1272 l 531 1194 m 640 1099 b 1192 543 965 1099 1192 868 b 640 -14 1192 217 965 -14 b 89 543 314 -14 89 217 b 640 1099 89 868 314 1099 m 640 968 b 228 543 399 968 228 785 b 640 117 228 301 399 117 b 1053 543 882 117 1053 301 b 640 968 1053 785 882 968 "},"Ổ":{"ha":1279,"x_min":0,"x_max":0,"o":"m 821 1529 b 878 1585 853 1536 878 1556 b 818 1638 878 1621 853 1638 b 753 1615 792 1638 767 1626 b 707 1600 742 1606 722 1600 b 656 1649 679 1600 656 1615 b 678 1697 656 1668 664 1686 b 815 1743 714 1726 757 1743 b 985 1589 915 1743 985 1676 b 828 1447 986 1496 914 1458 l 854 1450 b 792 1360 854 1388 826 1360 b 729 1422 757 1360 729 1388 l 729 1453 b 785 1521 729 1490 747 1513 l 821 1529 m 538 1194 b 493 1179 524 1183 510 1179 b 422 1236 453 1179 422 1203 b 456 1297 422 1260 433 1281 l 611 1399 b 647 1410 622 1406 635 1410 b 685 1399 661 1410 672 1407 l 839 1297 b 872 1236 861 1281 872 1260 b 803 1179 872 1203 843 1179 b 757 1194 785 1179 772 1183 l 647 1272 l 538 1194 m 640 1099 b 1192 543 965 1099 1192 868 b 640 -14 1192 217 965 -14 b 89 543 314 -14 89 217 b 640 1099 89 868 314 1099 m 640 968 b 228 543 399 968 228 785 b 640 117 228 301 399 117 b 1053 543 882 117 1053 301 b 640 968 1053 785 882 968 "},"Ỗ":{"ha":1279,"x_min":0,"x_max":0,"o":"m 543 1649 b 665 1588 607 1649 642 1608 b 713 1563 688 1568 700 1563 b 743 1583 725 1563 733 1569 b 826 1615 764 1613 796 1628 b 854 1532 861 1599 874 1564 b 728 1444 818 1471 778 1444 b 607 1501 679 1444 642 1468 b 554 1535 585 1522 572 1535 b 510 1496 535 1535 524 1519 b 429 1467 493 1468 460 1454 b 401 1547 397 1481 383 1515 b 543 1649 440 1617 486 1649 m 538 1194 b 493 1179 524 1183 510 1179 b 422 1236 453 1179 422 1203 b 456 1297 422 1260 433 1281 l 611 1399 b 647 1410 622 1406 635 1410 b 685 1399 661 1410 672 1407 l 839 1297 b 872 1236 861 1281 872 1260 b 803 1179 872 1203 843 1179 b 757 1194 785 1179 772 1183 l 647 1272 l 538 1194 m 640 1099 b 1192 543 965 1099 1192 868 b 640 -14 1192 217 965 -14 b 89 543 314 -14 89 217 b 640 1099 89 868 314 1099 m 640 968 b 228 543 399 968 228 785 b 640 117 228 301 399 117 b 1053 543 882 117 1053 301 b 640 968 1053 785 882 968 "},"Ȍ":{"ha":1279,"x_min":0,"x_max":0,"o":"m 635 1263 b 638 1240 636 1254 638 1246 b 581 1182 638 1203 607 1182 b 526 1218 556 1182 539 1194 l 450 1382 b 443 1408 444 1392 444 1401 b 515 1479 443 1446 475 1479 b 581 1435 544 1479 574 1460 m 833 1263 b 838 1240 836 1254 838 1246 b 779 1182 838 1203 806 1182 b 726 1218 756 1182 738 1194 l 649 1382 b 643 1408 644 1392 643 1401 b 715 1479 643 1446 674 1479 b 781 1435 744 1479 774 1460 m 640 1099 b 1192 543 965 1099 1192 868 b 640 -14 1192 217 965 -14 b 89 543 314 -14 89 217 b 640 1099 89 868 314 1099 m 640 968 b 228 543 399 968 228 785 b 640 117 228 301 399 117 b 1053 543 882 117 1053 301 b 640 968 1053 785 882 968 "},"Ö":{"ha":1279,"x_min":0,"x_max":0,"o":"m 486 1368 b 569 1285 531 1368 569 1329 b 486 1201 569 1238 531 1201 b 401 1285 439 1201 401 1238 b 486 1368 401 1329 439 1368 m 794 1368 b 878 1285 839 1368 878 1329 b 794 1201 878 1238 839 1201 b 711 1285 747 1201 711 1238 b 794 1368 711 1329 747 1368 m 640 1099 b 1192 543 965 1099 1192 868 b 640 -14 1192 217 965 -14 b 89 543 314 -14 89 217 b 640 1099 89 868 314 1099 m 640 968 b 228 543 399 968 228 785 b 640 117 228 301 399 117 b 1053 543 882 117 1053 301 b 640 968 1053 785 882 968 "},"Ȫ":{"ha":1279,"x_min":0,"x_max":0,"o":"m 813 1632 b 885 1571 853 1632 885 1611 b 813 1507 885 1529 853 1507 l 465 1507 b 394 1571 425 1507 394 1529 b 465 1632 394 1611 425 1632 l 813 1632 m 486 1368 b 569 1285 531 1368 569 1329 b 486 1201 569 1238 531 1201 b 401 1285 439 1201 401 1238 b 486 1368 401 1329 439 1368 m 794 1368 b 878 1285 839 1368 878 1329 b 794 1201 878 1238 839 1201 b 711 1285 747 1201 711 1238 b 794 1368 711 1329 747 1368 m 640 1099 b 1192 543 965 1099 1192 868 b 640 -14 1192 217 965 -14 b 89 543 314 -14 89 217 b 640 1099 89 868 314 1099 m 640 968 b 228 543 399 968 228 785 b 640 117 228 301 399 117 b 1053 543 882 117 1053 301 b 640 968 1053 785 882 968 "},"Ȱ":{"ha":1279,"x_min":0,"x_max":0,"o":"m 813 1603 b 885 1542 853 1603 885 1582 b 813 1478 885 1500 853 1478 l 465 1478 b 394 1542 425 1478 394 1500 b 465 1603 394 1582 425 1603 l 813 1603 m 640 1392 b 732 1300 690 1392 732 1350 b 640 1208 732 1250 690 1208 b 549 1300 590 1208 549 1250 b 640 1392 549 1350 590 1392 m 640 1099 b 1192 543 965 1099 1192 868 b 640 -14 1192 217 965 -14 b 89 543 314 -14 89 217 b 640 1099 89 868 314 1099 m 640 968 b 228 543 399 968 228 785 b 640 117 228 301 399 117 b 1053 543 882 117 1053 301 b 640 968 1053 785 882 968 "},"Ọ":{"ha":1279,"x_min":0,"x_max":0,"o":"m 640 1099 b 1192 543 965 1099 1192 868 b 640 -14 1192 217 965 -14 b 89 543 314 -14 89 217 b 640 1099 89 868 314 1099 m 640 968 b 228 543 399 968 228 785 b 640 117 228 301 399 117 b 1053 543 882 117 1053 301 b 640 968 1053 785 882 968 m 640 -128 b 732 -219 690 -128 732 -169 b 640 -311 732 -269 690 -311 b 549 -219 590 -311 549 -269 b 640 -128 549 -169 590 -128 "},"Ò":{"ha":1279,"x_min":0,"x_max":0,"o":"m 451 1358 b 433 1407 439 1371 433 1388 b 503 1479 433 1447 463 1479 b 554 1458 522 1479 539 1472 l 689 1322 b 707 1275 701 1310 707 1294 b 636 1204 707 1233 676 1204 b 588 1224 617 1204 600 1210 l 451 1358 m 640 1099 b 1192 543 965 1099 1192 868 b 640 -14 1192 217 965 -14 b 89 543 314 -14 89 217 b 640 1099 89 868 314 1099 m 640 968 b 228 543 399 968 228 785 b 640 117 228 301 399 117 b 1053 543 882 117 1053 301 b 640 968 1053 785 882 968 "},"Ỏ":{"ha":1279,"x_min":0,"x_max":0,"o":"m 669 1329 b 726 1385 701 1336 726 1356 b 667 1438 726 1421 701 1438 b 601 1415 640 1438 615 1426 b 556 1400 590 1406 571 1400 b 504 1449 528 1400 504 1415 b 526 1497 504 1468 513 1486 b 664 1543 563 1526 606 1543 b 833 1389 764 1543 833 1476 b 676 1247 835 1296 763 1258 l 703 1250 b 640 1160 703 1188 675 1160 b 578 1222 606 1160 578 1188 l 578 1253 b 633 1321 578 1290 596 1313 l 669 1329 m 640 1099 b 1192 543 965 1099 1192 868 b 640 -14 1192 217 965 -14 b 89 543 314 -14 89 217 b 640 1099 89 868 314 1099 m 640 968 b 228 543 399 968 228 785 b 640 117 228 301 399 117 b 1053 543 882 117 1053 301 b 640 968 1053 785 882 968 "},"Ơ":{"ha":1279,"x_min":0,"x_max":0,"o":"m 1057 924 b 1192 543 1142 826 1192 694 b 640 -14 1192 217 965 -14 b 89 543 314 -14 89 217 b 640 1099 89 868 314 1099 b 921 1031 746 1099 840 1075 l 981 1031 b 1042 1124 1014 1031 1042 1068 l 1042 1150 b 1104 1219 1042 1192 1067 1219 b 1167 1140 1144 1219 1167 1185 l 1167 1124 b 1057 924 1167 1032 1122 956 m 640 117 b 1053 543 882 117 1053 301 b 640 968 1053 785 882 968 b 228 543 399 968 228 785 b 640 117 228 301 399 117 "},"Ớ":{"ha":1279,"x_min":0,"x_max":0,"o":"m 646 1204 b 575 1275 604 1204 575 1233 b 592 1322 575 1294 581 1310 l 728 1458 b 778 1479 742 1472 760 1479 b 849 1407 819 1479 849 1447 b 829 1358 849 1388 843 1371 l 694 1224 b 646 1204 681 1210 665 1204 m 1057 924 b 1192 543 1142 826 1192 694 b 640 -14 1192 217 965 -14 b 89 543 314 -14 89 217 b 640 1099 89 868 314 1099 b 921 1031 746 1099 840 1075 l 981 1031 b 1042 1124 1014 1031 1042 1068 l 1042 1150 b 1104 1219 1042 1192 1067 1219 b 1167 1140 1144 1219 1167 1185 l 1167 1124 b 1057 924 1167 1032 1122 956 m 640 117 b 1053 543 882 117 1053 301 b 640 968 1053 785 882 968 b 228 543 399 968 228 785 b 640 117 228 301 399 117 "},"Ợ":{"ha":1279,"x_min":0,"x_max":0,"o":"m 1057 924 b 1192 543 1142 826 1192 694 b 640 -14 1192 217 965 -14 b 89 543 314 -14 89 217 b 640 1099 89 868 314 1099 b 921 1031 746 1099 840 1075 l 981 1031 b 1042 1124 1014 1031 1042 1068 l 1042 1150 b 1104 1219 1042 1192 1067 1219 b 1167 1140 1144 1219 1167 1185 l 1167 1124 b 1057 924 1167 1032 1122 956 m 640 117 b 1053 543 882 117 1053 301 b 640 968 1053 785 882 968 b 228 543 399 968 228 785 b 640 117 228 301 399 117 m 640 -128 b 732 -219 690 -128 732 -169 b 640 -311 732 -269 690 -311 b 549 -219 590 -311 549 -269 b 640 -128 549 -169 590 -128 "},"Ờ":{"ha":1279,"x_min":0,"x_max":0,"o":"m 451 1358 b 433 1407 439 1371 433 1388 b 503 1479 433 1447 463 1479 b 554 1458 522 1479 539 1472 l 689 1322 b 707 1275 701 1310 707 1294 b 636 1204 707 1233 676 1204 b 588 1224 617 1204 600 1210 m 1057 924 b 1192 543 1142 826 1192 694 b 640 -14 1192 217 965 -14 b 89 543 314 -14 89 217 b 640 1099 89 868 314 1099 b 921 1031 746 1099 840 1075 l 981 1031 b 1042 1124 1014 1031 1042 1068 l 1042 1150 b 1104 1219 1042 1192 1067 1219 b 1167 1140 1144 1219 1167 1185 l 1167 1124 b 1057 924 1167 1032 1122 956 m 640 117 b 1053 543 882 117 1053 301 b 640 968 1053 785 882 968 b 228 543 399 968 228 785 b 640 117 228 301 399 117 "},"Ở":{"ha":1279,"x_min":0,"x_max":0,"o":"m 556 1400 b 504 1449 528 1400 504 1415 b 526 1497 504 1468 513 1486 b 664 1543 563 1526 606 1543 b 833 1389 764 1543 833 1476 b 676 1247 835 1296 763 1258 l 703 1250 b 640 1160 703 1188 675 1160 b 578 1222 606 1160 578 1188 l 578 1253 b 633 1321 578 1290 596 1313 l 669 1329 b 726 1385 701 1336 726 1356 b 667 1438 726 1421 701 1438 b 601 1415 640 1438 615 1426 b 556 1400 590 1406 571 1400 m 1057 924 b 1192 543 1142 826 1192 694 b 640 -14 1192 217 965 -14 b 89 543 314 -14 89 217 b 640 1099 89 868 314 1099 b 921 1031 746 1099 840 1075 l 981 1031 b 1042 1124 1014 1031 1042 1068 l 1042 1150 b 1104 1219 1042 1192 1067 1219 b 1167 1140 1144 1219 1167 1185 l 1167 1124 b 1057 924 1167 1032 1122 956 m 640 117 b 1053 543 882 117 1053 301 b 640 968 1053 785 882 968 b 228 543 399 968 228 785 b 640 117 228 301 399 117 "},"Ỡ":{"ha":1279,"x_min":0,"x_max":0,"o":"m 399 1196 b 386 1281 372 1208 365 1250 b 565 1375 429 1343 493 1375 b 701 1333 625 1375 669 1350 b 785 1301 743 1310 760 1301 b 840 1325 808 1301 828 1313 b 922 1344 867 1351 888 1365 b 929 1254 950 1328 953 1283 b 789 1189 894 1211 846 1189 b 647 1232 726 1189 681 1214 b 556 1264 607 1254 578 1264 b 489 1226 529 1264 511 1257 b 399 1196 467 1196 433 1179 m 1057 924 b 1192 543 1142 826 1192 694 b 640 -14 1192 217 965 -14 b 89 543 314 -14 89 217 b 640 1099 89 868 314 1099 b 921 1031 746 1099 840 1075 l 981 1031 b 1042 1124 1014 1031 1042 1068 l 1042 1150 b 1104 1219 1042 1192 1067 1219 b 1167 1140 1144 1219 1167 1185 l 1167 1124 b 1057 924 1167 1032 1122 956 m 640 117 b 1053 543 882 117 1053 301 b 640 968 1053 785 882 968 b 228 543 399 968 228 785 b 640 117 228 301 399 117 "},"Ő":{"ha":1279,"x_min":0,"x_max":0,"o":"m 540 1435 b 606 1479 547 1460 576 1479 b 678 1408 647 1479 678 1446 b 672 1382 678 1401 676 1392 l 594 1218 b 542 1182 583 1194 565 1182 b 483 1240 515 1182 483 1203 b 488 1263 483 1246 485 1254 l 540 1435 m 740 1435 b 806 1479 747 1460 776 1479 b 878 1408 846 1479 878 1446 b 871 1382 876 1401 876 1392 l 794 1218 b 740 1182 782 1194 765 1182 b 683 1240 714 1182 683 1203 b 686 1263 683 1246 685 1254 l 740 1435 m 640 1099 b 1192 543 965 1099 1192 868 b 640 -14 1192 217 965 -14 b 89 543 314 -14 89 217 b 640 1099 89 868 314 1099 m 640 968 b 228 543 399 968 228 785 b 640 117 228 301 399 117 b 1053 543 882 117 1053 301 b 640 968 1053 785 882 968 "},"Ȏ":{"ha":1279,"x_min":0,"x_max":0,"o":"m 481 1165 b 414 1236 440 1165 414 1196 b 640 1410 414 1335 515 1410 b 865 1236 764 1410 865 1335 b 800 1165 865 1196 840 1165 b 732 1222 764 1165 732 1188 b 640 1296 732 1265 697 1296 b 547 1222 596 1296 547 1265 b 481 1165 547 1188 514 1165 m 640 1099 b 1192 543 965 1099 1192 868 b 640 -14 1192 217 965 -14 b 89 543 314 -14 89 217 b 640 1099 89 868 314 1099 m 640 968 b 228 543 399 968 228 785 b 640 117 228 301 399 117 b 1053 543 882 117 1053 301 b 640 968 1053 785 882 968 "},"Ō":{"ha":1279,"x_min":0,"x_max":0,"o":"m 813 1349 b 885 1288 853 1349 885 1328 b 813 1224 885 1246 853 1224 l 465 1224 b 394 1288 425 1224 394 1246 b 465 1349 394 1328 425 1349 l 813 1349 m 640 1099 b 1192 543 965 1099 1192 868 b 640 -14 1192 217 965 -14 b 89 543 314 -14 89 217 b 640 1099 89 868 314 1099 m 640 968 b 228 543 399 968 228 785 b 640 117 228 301 399 117 b 1053 543 882 117 1053 301 b 640 968 1053 785 882 968 "},"Ǫ":{"ha":1279,"x_min":0,"x_max":0,"o":"m 1192 543 b 692 -12 1192 235 989 11 b 708 -56 701 -24 707 -39 b 619 -182 708 -99 678 -140 b 606 -210 610 -190 606 -201 b 638 -242 606 -228 619 -242 b 654 -236 644 -242 650 -240 l 697 -204 b 740 -190 710 -196 724 -190 b 811 -261 782 -190 811 -221 b 786 -318 811 -285 803 -303 l 733 -353 b 638 -383 704 -374 672 -383 b 464 -210 544 -383 464 -306 b 536 -68 464 -153 489 -107 b 575 -24 556 -54 568 -37 l 583 -11 b 89 543 288 14 89 236 b 640 1099 89 868 314 1099 b 1192 543 965 1099 1192 868 m 640 117 b 1053 543 882 117 1053 301 b 640 968 1053 785 882 968 b 228 543 399 968 228 785 b 640 117 228 301 399 117 "},"Ø":{"ha":1279,"x_min":0,"x_max":0,"o":"m 1069 907 b 1192 543 1147 813 1192 688 b 640 -14 1192 217 965 -14 b 264 122 489 -14 358 36 l 153 11 b 124 0 144 3 135 0 b 92 71 83 0 67 46 l 206 185 b 89 543 131 279 89 401 b 640 1099 89 868 314 1099 b 1010 968 788 1099 915 1051 l 1117 1074 b 1146 1085 1125 1082 1135 1085 b 1178 1015 1181 1085 1207 1044 l 1069 907 m 640 968 b 228 543 399 968 228 785 b 311 279 228 442 258 350 l 907 875 b 640 968 836 933 744 968 m 640 117 b 1053 543 882 117 1053 301 b 965 813 1053 647 1021 740 l 368 215 b 640 117 439 153 532 117 "},"Ǿ":{"ha":1279,"x_min":0,"x_max":0,"o":"m 646 1204 b 575 1275 604 1204 575 1233 b 592 1322 575 1294 581 1310 l 728 1458 b 778 1479 742 1472 760 1479 b 849 1407 819 1479 849 1447 b 829 1358 849 1388 843 1371 l 694 1224 b 646 1204 681 1210 665 1204 m 1069 907 b 1192 543 1147 813 1192 688 b 640 -14 1192 217 965 -14 b 264 122 489 -14 358 36 l 153 11 b 124 0 144 3 135 0 b 92 71 83 0 67 46 l 206 185 b 89 543 131 279 89 401 b 640 1099 89 868 314 1099 b 1010 968 788 1099 915 1051 l 1117 1074 b 1146 1085 1125 1082 1135 1085 b 1178 1015 1181 1085 1207 1044 l 1069 907 m 640 968 b 228 543 399 968 228 785 b 311 279 228 442 258 350 l 907 875 b 640 968 836 933 744 968 m 640 117 b 1053 543 882 117 1053 301 b 965 813 1053 647 1021 740 l 368 215 b 640 117 439 153 532 117 "},"Õ":{"ha":1279,"x_min":0,"x_max":0,"o":"m 565 1375 b 701 1333 625 1375 669 1350 b 785 1301 743 1310 760 1301 b 840 1325 808 1301 828 1313 b 922 1344 867 1351 888 1365 b 929 1254 950 1328 953 1283 b 789 1189 894 1211 846 1189 b 647 1232 726 1189 681 1214 b 556 1264 607 1254 578 1264 b 489 1226 529 1264 511 1257 b 399 1196 467 1196 433 1179 b 386 1281 372 1208 365 1250 b 565 1375 429 1343 493 1375 m 640 1099 b 1192 543 965 1099 1192 868 b 640 -14 1192 217 965 -14 b 89 543 314 -14 89 217 b 640 1099 89 868 314 1099 m 640 968 b 228 543 399 968 228 785 b 640 117 228 301 399 117 b 1053 543 882 117 1053 301 b 640 968 1053 785 882 968 "},"Ȭ":{"ha":1279,"x_min":0,"x_max":0,"o":"m 826 1597 b 899 1536 867 1597 899 1576 b 826 1472 899 1494 867 1472 l 479 1472 b 408 1536 439 1472 408 1494 b 479 1597 408 1576 439 1597 l 826 1597 m 565 1375 b 701 1333 625 1375 669 1350 b 785 1301 743 1310 760 1301 b 840 1325 808 1301 828 1313 b 922 1344 867 1351 888 1365 b 929 1254 950 1328 953 1283 b 789 1189 894 1211 846 1189 b 647 1232 726 1189 681 1214 b 556 1264 607 1254 578 1264 b 489 1226 529 1264 511 1257 b 399 1196 467 1196 433 1179 b 386 1281 372 1208 365 1250 b 565 1375 429 1343 493 1375 m 640 1099 b 1192 543 965 1099 1192 868 b 640 -14 1192 217 965 -14 b 89 543 314 -14 89 217 b 640 1099 89 868 314 1099 m 640 968 b 228 543 399 968 228 785 b 640 117 228 301 399 117 b 1053 543 882 117 1053 301 b 640 968 1053 785 882 968 "},"Œ":{"ha":1613,"x_min":0,"x_max":0,"o":"m 1479 133 b 1550 68 1521 133 1550 107 b 1479 0 1550 28 1521 0 l 906 0 b 640 -14 829 -1 739 -14 b 89 543 314 -14 89 217 b 640 1099 89 868 314 1099 b 932 1085 750 1099 849 1085 l 1479 1085 b 1550 1017 1521 1085 1550 1057 b 1479 951 1550 978 1521 951 l 965 951 l 965 614 l 1322 614 b 1393 547 1364 614 1393 586 b 1322 481 1393 508 1364 481 l 965 481 l 965 133 l 1479 133 m 228 543 b 640 117 228 301 399 117 b 821 131 706 117 767 121 l 821 954 b 640 968 767 964 707 968 b 228 543 399 968 228 785 "},"P":{"ha":865,"x_min":0,"x_max":0,"o":"m 283 72 b 211 0 283 31 253 0 b 139 72 169 0 139 31 l 139 1013 b 211 1085 139 1054 169 1085 l 489 1085 b 844 725 697 1085 844 936 b 489 376 844 521 697 376 l 283 376 l 283 72 m 489 510 b 706 725 615 510 706 599 b 489 951 706 857 615 951 l 283 951 l 283 510 l 489 510 "},"Þ":{"ha":865,"x_min":0,"x_max":0,"o":"m 283 72 b 211 0 283 31 253 0 b 139 72 169 0 139 31 l 139 1013 b 211 1085 139 1054 169 1085 b 283 1013 253 1085 283 1054 l 283 882 l 489 882 b 844 558 697 882 844 753 b 489 246 844 371 697 246 l 283 246 l 283 72 m 489 371 b 706 558 615 371 706 449 b 489 757 706 674 615 757 l 283 757 l 283 371 l 489 371 "},"Q":{"ha":1279,"x_min":0,"x_max":0,"o":"m 1118 119 b 1118 22 1146 90 1147 51 b 1019 22 1089 -7 1049 -7 l 963 79 b 640 -14 874 19 764 -14 b 89 543 314 -14 89 217 b 640 1099 89 868 314 1099 b 1192 543 965 1099 1192 868 b 1065 172 1192 396 1146 268 m 640 117 b 863 179 725 117 800 139 l 729 313 b 729 411 700 342 700 382 b 828 411 758 440 799 440 l 965 272 b 1053 543 1021 346 1053 439 b 640 968 1053 785 882 968 b 228 543 399 968 228 785 b 640 117 228 301 399 117 "},"R":{"ha":878,"x_min":0,"x_max":0,"o":"m 843 111 b 788 0 876 57 847 0 b 725 35 761 0 740 11 l 486 418 l 461 418 l 283 418 l 283 72 b 211 0 283 31 253 0 b 139 72 169 0 139 31 l 139 1013 b 211 1085 139 1054 169 1085 l 461 1085 b 817 743 669 1085 817 944 b 631 453 817 610 744 504 l 843 111 m 461 551 b 678 743 588 551 678 631 b 461 951 678 865 588 951 l 283 951 l 283 551 "},"Ŕ":{"ha":878,"x_min":0,"x_max":0,"o":"m 489 1204 b 418 1275 447 1204 418 1233 b 435 1322 418 1294 424 1310 l 571 1458 b 621 1479 585 1472 603 1479 b 692 1407 663 1479 692 1447 b 672 1358 692 1388 686 1371 l 538 1224 b 489 1204 524 1210 508 1204 m 843 111 b 788 0 876 57 847 0 b 725 35 761 0 740 11 l 486 418 l 461 418 l 283 418 l 283 72 b 211 0 283 31 253 0 b 139 72 169 0 139 31 l 139 1013 b 211 1085 139 1054 169 1085 l 461 1085 b 817 743 669 1085 817 944 b 631 453 817 610 744 504 l 843 111 m 461 551 b 678 743 588 551 678 631 b 461 951 678 865 588 951 l 283 951 l 283 551 "},"Ř":{"ha":878,"x_min":0,"x_max":0,"o":"m 292 1307 b 258 1367 269 1324 258 1343 b 374 1388 258 1404 310 1432 l 483 1314 l 593 1388 b 708 1367 663 1435 708 1404 b 675 1307 708 1343 697 1324 l 521 1204 b 483 1193 508 1196 497 1193 b 447 1204 471 1193 458 1196 l 292 1307 m 843 111 b 788 0 876 57 847 0 b 725 35 761 0 740 11 l 486 418 l 461 418 l 283 418 l 283 72 b 211 0 283 31 253 0 b 139 72 169 0 139 31 l 139 1013 b 211 1085 139 1054 169 1085 l 461 1085 b 817 743 669 1085 817 944 b 631 453 817 610 744 504 l 843 111 m 461 551 b 678 743 588 551 678 631 b 461 951 678 865 588 951 l 283 951 l 283 551 "},"Ŗ":{"ha":878,"x_min":0,"x_max":0,"o":"m 843 111 b 788 0 876 57 847 0 b 725 35 761 0 740 11 l 486 418 l 461 418 l 283 418 l 283 72 b 211 0 283 31 253 0 b 139 72 169 0 139 31 l 139 1013 b 211 1085 139 1054 169 1085 l 461 1085 b 817 743 669 1085 817 944 b 631 453 817 610 744 504 l 843 111 m 461 551 b 678 743 588 551 678 631 b 461 951 678 865 588 951 l 283 951 l 283 551 m 483 -56 b 669 -199 594 -56 669 -115 b 489 -343 669 -289 592 -343 b 315 -233 413 -343 315 -310 b 364 -187 315 -206 336 -187 b 500 -254 421 -187 415 -254 b 574 -206 553 -254 574 -242 b 469 -149 574 -169 540 -149 b 403 -104 431 -149 403 -133 b 483 -56 403 -72 431 -56 "},"Ȑ":{"ha":878,"x_min":0,"x_max":0,"o":"m 293 1382 b 286 1408 288 1392 288 1401 b 358 1479 286 1446 318 1479 b 424 1435 388 1479 417 1460 l 478 1263 b 481 1240 479 1254 481 1246 b 424 1182 481 1203 450 1182 b 369 1218 399 1182 382 1194 m 492 1382 b 486 1408 488 1392 486 1401 b 558 1479 486 1446 517 1479 b 624 1435 588 1479 617 1460 l 676 1263 b 681 1240 679 1254 681 1246 b 622 1182 681 1203 649 1182 b 569 1218 599 1182 581 1194 m 843 111 b 788 0 876 57 847 0 b 725 35 761 0 740 11 l 486 418 l 461 418 l 283 418 l 283 72 b 211 0 283 31 253 0 b 139 72 169 0 139 31 l 139 1013 b 211 1085 139 1054 169 1085 l 461 1085 b 817 743 669 1085 817 944 b 631 453 817 610 744 504 l 843 111 m 461 551 b 678 743 588 551 678 631 b 461 951 678 865 588 951 l 283 951 l 283 551 "},"Ȓ":{"ha":878,"x_min":0,"x_max":0,"o":"m 324 1165 b 257 1236 283 1165 257 1196 b 483 1410 257 1335 358 1410 b 708 1236 607 1410 708 1335 b 643 1165 708 1196 683 1165 b 575 1222 607 1165 575 1188 b 483 1296 575 1265 540 1296 b 390 1222 439 1296 390 1265 b 324 1165 390 1188 357 1165 m 843 111 b 788 0 876 57 847 0 b 725 35 761 0 740 11 l 486 418 l 461 418 l 283 418 l 283 72 b 211 0 283 31 253 0 b 139 72 169 0 139 31 l 139 1013 b 211 1085 139 1054 169 1085 l 461 1085 b 817 743 669 1085 817 944 b 631 453 817 610 744 504 l 843 111 m 461 551 b 678 743 588 551 678 631 b 461 951 678 865 588 951 l 283 951 l 283 551 "},"S":{"ha":956,"x_min":0,"x_max":0,"o":"m 503 1097 b 843 910 671 1097 772 1022 b 832 810 869 868 864 831 b 729 839 797 788 750 803 b 499 967 683 918 614 965 b 257 807 361 968 257 917 b 524 622 257 724 306 644 b 874 300 744 600 874 483 b 483 -14 874 90 683 -14 b 86 207 306 -14 142 75 b 136 293 68 246 89 283 b 222 246 169 300 206 281 b 483 117 254 176 363 117 b 732 296 615 117 732 179 b 485 500 732 394 660 482 b 115 811 254 522 115 644 b 503 1097 115 993 285 1097 "},"Ś":{"ha":956,"x_min":0,"x_max":0,"o":"m 565 1458 b 615 1479 579 1472 597 1479 b 686 1407 657 1479 686 1447 b 667 1358 686 1388 681 1371 l 532 1224 b 483 1204 518 1210 503 1204 b 413 1275 442 1204 413 1233 b 429 1322 413 1294 418 1310 l 565 1458 m 503 1097 b 843 910 671 1097 772 1022 b 832 810 869 868 864 831 b 729 839 797 788 750 803 b 499 967 683 918 614 965 b 257 807 361 968 257 917 b 524 622 257 724 306 644 b 874 300 744 600 874 483 b 483 -14 874 90 683 -14 b 86 207 306 -14 142 75 b 136 293 68 246 89 283 b 222 246 169 300 206 281 b 483 117 254 176 363 117 b 732 296 615 117 732 179 b 485 500 732 394 660 482 b 115 811 254 522 115 644 b 503 1097 115 993 285 1097 "},"Š":{"ha":956,"x_min":0,"x_max":0,"o":"m 588 1388 b 703 1367 657 1435 703 1404 b 669 1307 703 1343 692 1324 l 515 1204 b 478 1193 503 1196 492 1193 b 442 1204 465 1193 453 1196 l 286 1307 b 253 1367 264 1324 253 1343 b 368 1388 253 1404 304 1432 l 478 1314 l 588 1388 m 503 1097 b 843 910 671 1097 772 1022 b 832 810 869 868 864 831 b 729 839 797 788 750 803 b 499 967 683 918 614 965 b 257 807 361 968 257 917 b 524 622 257 724 306 644 b 874 300 744 600 874 483 b 483 -14 874 90 683 -14 b 86 207 306 -14 142 75 b 136 293 68 246 89 283 b 222 246 169 300 206 281 b 483 117 254 176 363 117 b 732 296 615 117 732 179 b 485 500 732 394 660 482 b 115 811 254 522 115 644 b 503 1097 115 993 285 1097 "},"Ş":{"ha":956,"x_min":0,"x_max":0,"o":"m 874 300 b 561 -8 874 118 729 15 l 543 -49 b 682 -181 639 -69 682 -111 b 476 -325 682 -253 603 -325 b 286 -208 365 -325 286 -271 b 351 -142 286 -172 317 -142 b 399 -176 374 -142 389 -150 b 478 -225 411 -210 442 -225 b 542 -176 514 -225 542 -206 b 479 -115 542 -143 525 -124 b 417 -21 421 -106 396 -81 l 421 -10 b 86 207 268 8 135 90 b 136 293 68 246 89 283 b 222 246 169 300 206 281 b 483 117 254 176 363 117 b 732 296 615 117 732 179 b 485 500 732 394 660 482 b 115 811 254 522 115 644 b 503 1097 115 993 285 1097 b 843 910 671 1097 772 1022 b 832 810 869 868 864 831 b 729 839 797 788 750 803 b 499 967 683 918 614 965 b 257 807 361 968 257 917 b 524 622 257 724 306 644 b 874 300 744 600 874 483 "},"Ŝ":{"ha":956,"x_min":0,"x_max":0,"o":"m 368 1194 b 324 1179 354 1183 340 1179 b 253 1236 283 1179 253 1203 b 286 1297 253 1260 264 1281 l 442 1399 b 478 1410 453 1406 465 1410 b 515 1399 492 1410 503 1407 l 669 1297 b 703 1236 692 1281 703 1260 b 633 1179 703 1203 674 1179 b 588 1194 615 1179 603 1183 l 478 1272 l 368 1194 m 503 1097 b 843 910 671 1097 772 1022 b 832 810 869 868 864 831 b 729 839 797 788 750 803 b 499 967 683 918 614 965 b 257 807 361 968 257 917 b 524 622 257 724 306 644 b 874 300 744 600 874 483 b 483 -14 874 90 683 -14 b 86 207 306 -14 142 75 b 136 293 68 246 89 283 b 222 246 169 300 206 281 b 483 117 254 176 363 117 b 732 296 615 117 732 179 b 485 500 732 394 660 482 b 115 811 254 522 115 644 b 503 1097 115 993 285 1097 "},"Ș":{"ha":956,"x_min":0,"x_max":0,"o":"m 503 1097 b 843 910 671 1097 772 1022 b 832 810 869 868 864 831 b 729 839 797 788 750 803 b 499 967 683 918 614 965 b 257 807 361 968 257 917 b 524 622 257 724 306 644 b 874 300 744 600 874 483 b 483 -14 874 90 683 -14 b 86 207 306 -14 142 75 b 136 293 68 246 89 283 b 222 246 169 300 206 281 b 483 117 254 176 363 117 b 732 296 615 117 732 179 b 485 500 732 394 660 482 b 115 811 254 522 115 644 b 503 1097 115 993 285 1097 m 478 -56 b 664 -199 589 -56 664 -115 b 483 -343 664 -289 586 -343 b 310 -233 407 -343 310 -310 b 358 -187 310 -206 331 -187 b 494 -254 415 -187 410 -254 b 568 -206 547 -254 568 -242 b 464 -149 568 -169 535 -149 b 397 -104 425 -149 397 -133 b 478 -56 397 -72 425 -56 "},"ẞ":{"ha":1004,"x_min":0,"x_max":0,"o":"m 633 638 b 928 328 794 628 928 514 b 572 0 928 136 781 0 b 429 25 525 0 474 4 b 401 88 411 35 401 51 b 483 142 401 131 438 151 b 572 133 513 135 543 133 b 789 328 699 133 789 200 b 572 506 789 446 699 506 l 513 506 b 447 571 475 506 447 533 b 461 615 447 589 453 603 l 701 876 b 503 951 653 931 592 951 b 283 746 378 951 283 863 l 283 65 b 208 0 283 28 256 0 b 139 65 160 0 139 28 l 139 749 b 501 1085 139 940 294 1085 b 824 890 683 1085 824 986 b 781 792 824 839 807 819 l 633 638 "},"Ə":{"ha":1181,"x_min":0,"x_max":0,"o":"m 549 1097 b 1093 536 857 1097 1093 861 b 607 -12 1093 224 883 -12 b 89 518 311 -12 89 215 b 182 606 89 569 128 606 l 953 606 b 535 967 922 821 754 967 b 285 889 442 967 357 938 b 199 897 256 868 221 872 b 203 981 176 922 176 960 b 549 1097 297 1056 408 1097 m 607 117 b 954 478 790 117 932 268 l 232 478 b 607 117 250 271 407 117 "},"T":{"ha":918,"x_min":0,"x_max":0,"o":"m 831 1085 b 897 1018 869 1085 897 1057 b 831 951 897 979 869 951 l 532 951 l 532 72 b 460 0 532 32 500 0 b 388 72 419 0 388 32 l 388 951 l 88 951 b 21 1018 49 951 21 979 b 88 1085 21 1057 49 1085 l 831 1085 "},"Ŧ":{"ha":918,"x_min":0,"x_max":0,"o":"m 831 1085 b 897 1018 869 1085 897 1057 b 831 951 897 979 869 951 l 532 951 l 532 606 l 682 606 b 754 543 724 606 754 582 b 682 481 754 504 724 481 l 532 481 l 532 72 b 460 0 532 32 500 0 b 388 72 419 0 388 32 l 388 481 l 235 481 b 164 543 193 481 164 504 b 235 606 164 582 193 606 l 388 606 l 388 951 l 88 951 b 21 1018 49 951 21 979 b 88 1085 21 1057 49 1085 l 831 1085 "},"Ť":{"ha":918,"x_min":0,"x_max":0,"o":"m 268 1307 b 235 1367 246 1324 235 1343 b 350 1388 235 1404 286 1432 l 460 1314 l 569 1388 b 685 1367 639 1435 685 1404 b 651 1307 685 1343 674 1324 l 497 1204 b 460 1193 485 1196 474 1193 b 424 1204 447 1193 435 1196 l 268 1307 m 831 1085 b 897 1018 869 1085 897 1057 b 831 951 897 979 869 951 l 532 951 l 532 72 b 460 0 532 32 500 0 b 388 72 419 0 388 32 l 388 951 l 88 951 b 21 1018 49 951 21 979 b 88 1085 21 1057 49 1085 l 831 1085 "},"Ţ":{"ha":918,"x_min":0,"x_max":0,"o":"m 831 1085 b 897 1018 869 1085 897 1057 b 831 951 897 979 869 951 l 532 951 l 532 72 l 532 64 b 546 -1 551 51 558 26 l 525 -49 b 664 -181 621 -69 664 -111 b 458 -325 664 -253 585 -325 b 268 -208 347 -325 268 -271 b 333 -142 268 -172 299 -142 b 381 -176 356 -142 371 -150 b 460 -225 393 -210 424 -225 b 524 -176 496 -225 524 -206 b 461 -115 524 -143 507 -124 b 399 -21 403 -106 378 -81 l 413 18 b 388 72 397 31 388 50 l 388 951 l 88 951 b 21 1018 49 951 21 979 b 88 1085 21 1057 49 1085 l 831 1085 "},"Ț":{"ha":918,"x_min":0,"x_max":0,"o":"m 831 1085 b 897 1018 869 1085 897 1057 b 831 951 897 979 869 951 l 532 951 l 532 72 b 460 0 532 32 500 0 b 388 72 419 0 388 32 l 388 951 l 88 951 b 21 1018 49 951 21 979 b 88 1085 21 1057 49 1085 l 831 1085 m 460 -56 b 646 -199 571 -56 646 -115 b 465 -343 646 -289 568 -343 b 292 -233 389 -343 292 -310 b 340 -187 292 -206 313 -187 b 476 -254 397 -187 392 -254 b 550 -206 529 -254 550 -242 b 446 -149 550 -169 517 -149 b 379 -104 407 -149 379 -133 b 460 -56 379 -72 407 -56 "},"U":{"ha":1174,"x_min":0,"x_max":0,"o":"m 139 1013 b 211 1085 139 1054 169 1085 b 283 1013 253 1085 283 1054 l 283 364 b 593 108 283 214 411 108 b 892 364 768 108 892 214 l 892 1013 b 964 1085 892 1054 922 1085 b 1035 1013 1006 1085 1035 1054 l 1035 364 b 593 -22 1035 138 851 -22 b 139 364 326 -22 139 138 l 139 1013 "},"Ú":{"ha":1174,"x_min":0,"x_max":0,"o":"m 675 1458 b 725 1479 689 1472 707 1479 b 796 1407 767 1479 796 1447 b 776 1358 796 1388 790 1371 l 642 1224 b 593 1204 628 1210 613 1204 b 522 1275 551 1204 522 1233 b 539 1322 522 1294 528 1310 l 675 1458 m 139 1013 b 211 1085 139 1054 169 1085 b 283 1013 253 1085 283 1054 l 283 364 b 593 108 283 214 411 108 b 892 364 768 108 892 214 l 892 1013 b 964 1085 892 1054 922 1085 b 1035 1013 1006 1085 1035 1054 l 1035 364 b 593 -22 1035 138 851 -22 b 139 364 326 -22 139 138 l 139 1013 "},"Ŭ":{"ha":1174,"x_min":0,"x_max":0,"o":"m 428 1410 b 494 1353 461 1410 494 1388 b 588 1279 494 1310 543 1279 b 679 1353 644 1279 679 1310 b 747 1410 679 1388 711 1410 b 813 1339 788 1410 813 1379 b 588 1165 813 1240 711 1165 b 361 1339 463 1165 361 1240 b 428 1410 361 1379 388 1410 m 139 1013 b 211 1085 139 1054 169 1085 b 283 1013 253 1085 283 1054 l 283 364 b 593 108 283 214 411 108 b 892 364 768 108 892 214 l 892 1013 b 964 1085 892 1054 922 1085 b 1035 1013 1006 1085 1035 1054 l 1035 364 b 593 -22 1035 138 851 -22 b 139 364 326 -22 139 138 l 139 1013 "},"Û":{"ha":1174,"x_min":0,"x_max":0,"o":"m 478 1194 b 433 1179 464 1183 450 1179 b 363 1236 393 1179 363 1203 b 396 1297 363 1260 374 1281 l 551 1399 b 588 1410 563 1406 575 1410 b 625 1399 601 1410 613 1407 l 779 1297 b 813 1236 801 1281 813 1260 b 743 1179 813 1203 783 1179 b 697 1194 725 1179 713 1183 l 588 1272 l 478 1194 m 139 1013 b 211 1085 139 1054 169 1085 b 283 1013 253 1085 283 1054 l 283 364 b 593 108 283 214 411 108 b 892 364 768 108 892 214 l 892 1013 b 964 1085 892 1054 922 1085 b 1035 1013 1006 1085 1035 1054 l 1035 364 b 593 -22 1035 138 851 -22 b 139 364 326 -22 139 138 l 139 1013 "},"Ȕ":{"ha":1174,"x_min":0,"x_max":0,"o":"m 582 1263 b 585 1240 583 1254 585 1246 b 528 1182 585 1203 554 1182 b 474 1218 503 1182 486 1194 l 397 1382 b 390 1408 392 1392 392 1401 b 463 1479 390 1446 422 1479 b 528 1435 492 1479 521 1460 m 781 1263 b 785 1240 783 1254 785 1246 b 726 1182 785 1203 753 1182 b 674 1218 703 1182 685 1194 l 596 1382 b 590 1408 592 1392 590 1401 b 663 1479 590 1446 621 1479 b 728 1435 692 1479 721 1460 m 139 1013 b 211 1085 139 1054 169 1085 b 283 1013 253 1085 283 1054 l 283 364 b 593 108 283 214 411 108 b 892 364 768 108 892 214 l 892 1013 b 964 1085 892 1054 922 1085 b 1035 1013 1006 1085 1035 1054 l 1035 364 b 593 -22 1035 138 851 -22 b 139 364 326 -22 139 138 l 139 1013 "},"Ü":{"ha":1174,"x_min":0,"x_max":0,"o":"m 433 1368 b 517 1285 478 1368 517 1329 b 433 1201 517 1238 478 1201 b 349 1285 386 1201 349 1238 b 433 1368 349 1329 386 1368 m 742 1368 b 825 1285 786 1368 825 1329 b 742 1201 825 1238 786 1201 b 658 1285 694 1201 658 1238 b 742 1368 658 1329 694 1368 m 139 1013 b 211 1085 139 1054 169 1085 b 283 1013 253 1085 283 1054 l 283 364 b 593 108 283 214 411 108 b 892 364 768 108 892 214 l 892 1013 b 964 1085 892 1054 922 1085 b 1035 1013 1006 1085 1035 1054 l 1035 364 b 593 -22 1035 138 851 -22 b 139 364 326 -22 139 138 l 139 1013 "},"Ụ":{"ha":1174,"x_min":0,"x_max":0,"o":"m 139 1013 b 211 1085 139 1054 169 1085 b 283 1013 253 1085 283 1054 l 283 364 b 593 108 283 214 411 108 b 892 364 768 108 892 214 l 892 1013 b 964 1085 892 1054 922 1085 b 1035 1013 1006 1085 1035 1054 l 1035 364 b 593 -22 1035 138 851 -22 b 139 364 326 -22 139 138 l 139 1013 m 588 -128 b 679 -219 638 -128 679 -169 b 588 -311 679 -269 638 -311 b 496 -219 538 -311 496 -269 b 588 -128 496 -169 538 -128 "},"Ù":{"ha":1174,"x_min":0,"x_max":0,"o":"m 399 1358 b 381 1407 386 1371 381 1388 b 450 1479 381 1447 410 1479 b 501 1458 469 1479 486 1472 l 636 1322 b 654 1275 649 1310 654 1294 b 583 1204 654 1233 624 1204 b 535 1224 564 1204 547 1210 l 399 1358 m 139 1013 b 211 1085 139 1054 169 1085 b 283 1013 253 1085 283 1054 l 283 364 b 593 108 283 214 411 108 b 892 364 768 108 892 214 l 892 1013 b 964 1085 892 1054 922 1085 b 1035 1013 1006 1085 1035 1054 l 1035 364 b 593 -22 1035 138 851 -22 b 139 364 326 -22 139 138 l 139 1013 "},"Ủ":{"ha":1174,"x_min":0,"x_max":0,"o":"m 617 1329 b 674 1385 649 1336 674 1356 b 614 1438 674 1421 649 1438 b 549 1415 588 1438 563 1426 b 503 1400 538 1406 518 1400 b 451 1449 475 1400 451 1415 b 474 1497 451 1468 460 1486 b 611 1543 510 1526 553 1543 b 781 1389 711 1543 781 1476 b 624 1247 782 1296 710 1258 l 650 1250 b 588 1160 650 1188 622 1160 b 525 1222 553 1160 525 1188 l 525 1253 b 581 1321 525 1290 543 1313 l 617 1329 m 139 1013 b 211 1085 139 1054 169 1085 b 283 1013 253 1085 283 1054 l 283 364 b 593 108 283 214 411 108 b 892 364 768 108 892 214 l 892 1013 b 964 1085 892 1054 922 1085 b 1035 1013 1006 1085 1035 1054 l 1035 364 b 593 -22 1035 138 851 -22 b 139 364 326 -22 139 138 l 139 1013 "},"Ư":{"ha":1174,"x_min":0,"x_max":0,"o":"m 1154 1274 b 1217 1194 1194 1274 1217 1239 l 1217 1178 b 1035 960 1217 1056 1139 963 l 1035 364 b 593 -22 1035 138 851 -22 b 139 364 326 -22 139 138 l 139 1013 b 211 1085 139 1054 169 1085 b 283 1013 253 1085 283 1054 l 283 364 b 593 108 283 214 411 108 b 892 364 768 108 892 214 l 892 1013 b 964 1085 892 1054 922 1085 l 1031 1085 b 1092 1178 1064 1085 1092 1122 l 1092 1204 b 1154 1274 1092 1246 1117 1274 "},"Ứ":{"ha":1174,"x_min":0,"x_max":0,"o":"m 593 1204 b 522 1275 551 1204 522 1233 b 539 1322 522 1294 528 1310 l 675 1458 b 725 1479 689 1472 707 1479 b 796 1407 767 1479 796 1447 b 776 1358 796 1388 790 1371 l 642 1224 b 593 1204 628 1210 613 1204 m 1154 1274 b 1217 1194 1194 1274 1217 1239 l 1217 1178 b 1035 960 1217 1056 1139 963 l 1035 364 b 593 -22 1035 138 851 -22 b 139 364 326 -22 139 138 l 139 1013 b 211 1085 139 1054 169 1085 b 283 1013 253 1085 283 1054 l 283 364 b 593 108 283 214 411 108 b 892 364 768 108 892 214 l 892 1013 b 964 1085 892 1054 922 1085 l 1031 1085 b 1092 1178 1064 1085 1092 1122 l 1092 1204 b 1154 1274 1092 1246 1117 1274 "},"Ự":{"ha":1174,"x_min":0,"x_max":0,"o":"m 1154 1274 b 1217 1194 1194 1274 1217 1239 l 1217 1178 b 1035 960 1217 1056 1139 963 l 1035 364 b 593 -22 1035 138 851 -22 b 139 364 326 -22 139 138 l 139 1013 b 211 1085 139 1054 169 1085 b 283 1013 253 1085 283 1054 l 283 364 b 593 108 283 214 411 108 b 892 364 768 108 892 214 l 892 1013 b 964 1085 892 1054 922 1085 l 1031 1085 b 1092 1178 1064 1085 1092 1122 l 1092 1204 b 1154 1274 1092 1246 1117 1274 m 588 -128 b 679 -219 638 -128 679 -169 b 588 -311 679 -269 638 -311 b 496 -219 538 -311 496 -269 b 588 -128 496 -169 538 -128 "},"Ừ":{"ha":1174,"x_min":0,"x_max":0,"o":"m 399 1358 b 381 1407 386 1371 381 1388 b 450 1479 381 1447 410 1479 b 501 1458 469 1479 486 1472 l 636 1322 b 654 1275 649 1310 654 1294 b 583 1204 654 1233 624 1204 b 535 1224 564 1204 547 1210 m 1154 1274 b 1217 1194 1194 1274 1217 1239 l 1217 1178 b 1035 960 1217 1056 1139 963 l 1035 364 b 593 -22 1035 138 851 -22 b 139 364 326 -22 139 138 l 139 1013 b 211 1085 139 1054 169 1085 b 283 1013 253 1085 283 1054 l 283 364 b 593 108 283 214 411 108 b 892 364 768 108 892 214 l 892 1013 b 964 1085 892 1054 922 1085 l 1031 1085 b 1092 1178 1064 1085 1092 1122 l 1092 1204 b 1154 1274 1092 1246 1117 1274 "},"Ử":{"ha":1174,"x_min":0,"x_max":0,"o":"m 503 1400 b 451 1449 475 1400 451 1415 b 474 1497 451 1468 460 1486 b 611 1543 510 1526 553 1543 b 781 1389 711 1543 781 1476 b 624 1247 782 1296 710 1258 l 650 1250 b 588 1160 650 1188 622 1160 b 525 1222 553 1160 525 1188 l 525 1253 b 581 1321 525 1290 543 1313 l 617 1329 b 674 1385 649 1336 674 1356 b 614 1438 674 1421 649 1438 b 549 1415 588 1438 563 1426 b 503 1400 538 1406 518 1400 m 1154 1274 b 1217 1194 1194 1274 1217 1239 l 1217 1178 b 1035 960 1217 1056 1139 963 l 1035 364 b 593 -22 1035 138 851 -22 b 139 364 326 -22 139 138 l 139 1013 b 211 1085 139 1054 169 1085 b 283 1013 253 1085 283 1054 l 283 364 b 593 108 283 214 411 108 b 892 364 768 108 892 214 l 892 1013 b 964 1085 892 1054 922 1085 l 1031 1085 b 1092 1178 1064 1085 1092 1122 l 1092 1204 b 1154 1274 1092 1246 1117 1274 "},"Ữ":{"ha":1174,"x_min":0,"x_max":0,"o":"m 346 1196 b 333 1281 319 1208 313 1250 b 513 1375 376 1343 440 1375 b 649 1333 572 1375 617 1350 b 732 1301 690 1310 707 1301 b 788 1325 756 1301 775 1313 b 869 1344 814 1351 835 1365 b 876 1254 897 1328 900 1283 b 736 1189 842 1211 793 1189 b 594 1232 674 1189 628 1214 b 503 1264 554 1254 525 1264 b 436 1226 476 1264 458 1257 b 346 1196 414 1196 381 1179 m 1154 1274 b 1217 1194 1194 1274 1217 1239 l 1217 1178 b 1035 960 1217 1056 1139 963 l 1035 364 b 593 -22 1035 138 851 -22 b 139 364 326 -22 139 138 l 139 1013 b 211 1085 139 1054 169 1085 b 283 1013 253 1085 283 1054 l 283 364 b 593 108 283 214 411 108 b 892 364 768 108 892 214 l 892 1013 b 964 1085 892 1054 922 1085 l 1031 1085 b 1092 1178 1064 1085 1092 1122 l 1092 1204 b 1154 1274 1092 1246 1117 1274 "},"Ű":{"ha":1174,"x_min":0,"x_max":0,"o":"m 488 1435 b 553 1479 494 1460 524 1479 b 625 1408 594 1479 625 1446 b 619 1382 625 1401 624 1392 l 542 1218 b 489 1182 531 1194 513 1182 b 431 1240 463 1182 431 1203 b 435 1263 431 1246 432 1254 l 488 1435 m 688 1435 b 753 1479 694 1460 724 1479 b 825 1408 793 1479 825 1446 b 818 1382 824 1401 824 1392 l 742 1218 b 688 1182 729 1194 713 1182 b 631 1240 661 1182 631 1203 b 633 1263 631 1246 632 1254 l 688 1435 m 139 1013 b 211 1085 139 1054 169 1085 b 283 1013 253 1085 283 1054 l 283 364 b 593 108 283 214 411 108 b 892 364 768 108 892 214 l 892 1013 b 964 1085 892 1054 922 1085 b 1035 1013 1006 1085 1035 1054 l 1035 364 b 593 -22 1035 138 851 -22 b 139 364 326 -22 139 138 l 139 1013 "},"Ȗ":{"ha":1174,"x_min":0,"x_max":0,"o":"m 428 1165 b 361 1236 388 1165 361 1196 b 588 1410 361 1335 463 1410 b 813 1236 711 1410 813 1335 b 747 1165 813 1196 788 1165 b 679 1222 711 1165 679 1188 b 588 1296 679 1265 644 1296 b 494 1222 543 1296 494 1265 b 428 1165 494 1188 461 1165 m 139 1013 b 211 1085 139 1054 169 1085 b 283 1013 253 1085 283 1054 l 283 364 b 593 108 283 214 411 108 b 892 364 768 108 892 214 l 892 1013 b 964 1085 892 1054 922 1085 b 1035 1013 1006 1085 1035 1054 l 1035 364 b 593 -22 1035 138 851 -22 b 139 364 326 -22 139 138 l 139 1013 "},"Ū":{"ha":1174,"x_min":0,"x_max":0,"o":"m 760 1349 b 832 1288 800 1349 832 1328 b 760 1224 832 1246 800 1224 l 413 1224 b 342 1288 372 1224 342 1246 b 413 1349 342 1328 372 1349 l 760 1349 m 139 1013 b 211 1085 139 1054 169 1085 b 283 1013 253 1085 283 1054 l 283 364 b 593 108 283 214 411 108 b 892 364 768 108 892 214 l 892 1013 b 964 1085 892 1054 922 1085 b 1035 1013 1006 1085 1035 1054 l 1035 364 b 593 -22 1035 138 851 -22 b 139 364 326 -22 139 138 l 139 1013 "},"Ų":{"ha":1174,"x_min":0,"x_max":0,"o":"m 964 1085 b 1035 1013 1006 1085 1035 1054 l 1035 364 b 792 14 1035 201 940 74 b 704 -99 786 -24 757 -61 b 690 -126 694 -107 690 -118 b 722 -158 690 -144 704 -158 b 739 -153 729 -158 735 -157 l 782 -121 b 825 -107 794 -112 808 -107 b 896 -178 867 -107 896 -137 b 871 -235 896 -201 888 -219 l 818 -269 b 722 -300 789 -290 757 -300 b 549 -126 629 -300 549 -222 b 585 -22 549 -86 561 -53 b 139 364 322 -18 139 140 l 139 1013 b 211 1085 139 1054 169 1085 b 283 1013 253 1085 283 1054 l 283 364 b 593 108 283 214 411 108 b 892 364 768 108 892 214 l 892 1013 b 964 1085 892 1054 922 1085 "},"Ů":{"ha":1174,"x_min":0,"x_max":0,"o":"m 588 1438 b 736 1288 675 1438 736 1375 b 588 1139 736 1200 675 1139 b 439 1288 500 1139 439 1200 b 588 1438 439 1375 500 1438 m 588 1360 b 515 1288 546 1360 515 1329 b 588 1217 515 1246 546 1217 b 658 1288 629 1217 658 1246 b 588 1360 658 1329 629 1360 m 139 1013 b 211 1085 139 1054 169 1085 b 283 1013 253 1085 283 1054 l 283 364 b 593 108 283 214 411 108 b 892 364 768 108 892 214 l 892 1013 b 964 1085 892 1054 922 1085 b 1035 1013 1006 1085 1035 1054 l 1035 364 b 593 -22 1035 138 851 -22 b 139 364 326 -22 139 138 l 139 1013 "},"Ũ":{"ha":1174,"x_min":0,"x_max":0,"o":"m 513 1375 b 649 1333 572 1375 617 1350 b 732 1301 690 1310 707 1301 b 788 1325 756 1301 775 1313 b 869 1344 814 1351 835 1365 b 876 1254 897 1328 900 1283 b 736 1189 842 1211 793 1189 b 594 1232 674 1189 628 1214 b 503 1264 554 1254 525 1264 b 436 1226 476 1264 458 1257 b 346 1196 414 1196 381 1179 b 333 1281 319 1208 313 1250 b 513 1375 376 1343 440 1375 m 139 1013 b 211 1085 139 1054 169 1085 b 283 1013 253 1085 283 1054 l 283 364 b 593 108 283 214 411 108 b 892 364 768 108 892 214 l 892 1013 b 964 1085 892 1054 922 1085 b 1035 1013 1006 1085 1035 1054 l 1035 364 b 593 -22 1035 138 851 -22 b 139 364 326 -22 139 138 l 139 1013 "},"V":{"ha":1024,"x_min":0,"x_max":0,"o":"m 931 1085 b 988 989 986 1085 1010 1038 l 576 46 b 511 0 564 15 543 0 b 446 46 479 0 460 15 l 39 976 b 93 1085 13 1039 35 1085 b 160 1042 125 1085 147 1071 l 510 203 l 865 1042 b 931 1085 879 1075 897 1085 "},"W":{"ha":1303,"x_min":0,"x_max":0,"o":"m 1232 1085 b 1282 985 1283 1085 1297 1038 l 1003 58 b 931 0 990 24 964 0 b 858 57 896 0 869 25 l 651 857 l 442 58 b 369 0 429 24 403 0 b 297 57 336 0 308 21 l 18 985 b 72 1085 0 1046 24 1085 b 143 1031 103 1085 132 1068 l 371 239 l 581 1022 b 650 1071 588 1050 617 1071 b 718 1024 679 1071 710 1054 l 931 233 l 1161 1038 b 1232 1085 1171 1071 1193 1085 "},"Ẃ":{"ha":1303,"x_min":0,"x_max":0,"o":"m 657 1204 b 586 1275 615 1204 586 1233 b 603 1322 586 1294 592 1310 l 739 1458 b 789 1479 753 1472 771 1479 b 860 1407 831 1479 860 1447 b 840 1358 860 1388 854 1371 l 706 1224 b 657 1204 692 1210 676 1204 m 1232 1085 b 1282 985 1283 1085 1297 1038 l 1003 58 b 931 0 990 24 964 0 b 858 57 896 0 869 25 l 651 857 l 442 58 b 369 0 429 24 403 0 b 297 57 336 0 308 21 l 18 985 b 72 1085 0 1046 24 1085 b 143 1031 103 1085 132 1068 l 371 239 l 581 1022 b 650 1071 588 1050 617 1071 b 718 1024 679 1071 710 1054 l 931 233 l 1161 1038 b 1232 1085 1171 1071 1193 1085 "},"Ŵ":{"ha":1303,"x_min":0,"x_max":0,"o":"m 497 1179 b 426 1236 457 1179 426 1203 b 460 1297 426 1260 438 1281 l 615 1399 b 651 1410 626 1406 639 1410 b 689 1399 665 1410 676 1407 l 843 1297 b 876 1236 865 1281 876 1260 b 807 1179 876 1203 847 1179 b 761 1194 789 1179 776 1183 l 651 1272 l 542 1194 b 497 1179 528 1183 514 1179 m 1232 1085 b 1282 985 1283 1085 1297 1038 l 1003 58 b 931 0 990 24 964 0 b 858 57 896 0 869 25 l 651 857 l 442 58 b 369 0 429 24 403 0 b 297 57 336 0 308 21 l 18 985 b 72 1085 0 1046 24 1085 b 143 1031 103 1085 132 1068 l 371 239 l 581 1022 b 650 1071 588 1050 617 1071 b 718 1024 679 1071 710 1054 l 931 233 l 1161 1038 b 1232 1085 1171 1071 1193 1085 "},"Ẅ":{"ha":1303,"x_min":0,"x_max":0,"o":"m 497 1201 b 413 1285 450 1201 413 1238 b 497 1368 413 1329 450 1368 b 581 1285 542 1368 581 1329 b 497 1201 581 1238 542 1201 m 806 1201 b 722 1285 758 1201 722 1238 b 806 1368 722 1329 758 1368 b 889 1285 850 1368 889 1329 b 806 1201 889 1238 850 1201 m 1232 1085 b 1282 985 1283 1085 1297 1038 l 1003 58 b 931 0 990 24 964 0 b 858 57 896 0 869 25 l 651 857 l 442 58 b 369 0 429 24 403 0 b 297 57 336 0 308 21 l 18 985 b 72 1085 0 1046 24 1085 b 143 1031 103 1085 132 1068 l 371 239 l 581 1022 b 650 1071 588 1050 617 1071 b 718 1024 679 1071 710 1054 l 931 233 l 1161 1038 b 1232 1085 1171 1071 1193 1085 "},"Ẁ":{"ha":1303,"x_min":0,"x_max":0,"o":"m 463 1358 b 444 1407 450 1371 444 1388 b 514 1479 444 1447 474 1479 b 565 1458 533 1479 550 1472 l 700 1322 b 718 1275 713 1310 718 1294 b 647 1204 718 1233 688 1204 b 599 1224 628 1204 611 1210 m 1232 1085 b 1282 985 1283 1085 1297 1038 l 1003 58 b 931 0 990 24 964 0 b 858 57 896 0 869 25 l 651 857 l 442 58 b 369 0 429 24 403 0 b 297 57 336 0 308 21 l 18 985 b 72 1085 0 1046 24 1085 b 143 1031 103 1085 132 1068 l 371 239 l 581 1022 b 650 1071 588 1050 617 1071 b 718 1024 679 1071 710 1054 l 931 233 l 1161 1038 b 1232 1085 1171 1071 1193 1085 "},"X":{"ha":994,"x_min":0,"x_max":0,"o":"m 913 117 b 861 0 946 71 922 0 b 806 26 838 0 819 8 l 504 444 l 185 21 b 135 0 171 7 154 0 b 86 117 69 0 53 72 l 410 547 l 104 971 b 157 1085 72 1015 99 1085 b 208 1064 179 1085 197 1079 l 507 650 l 818 1064 b 869 1085 831 1078 849 1085 b 918 971 928 1085 950 1019 l 601 549 "},"Y":{"ha":931,"x_min":0,"x_max":0,"o":"m 863 1085 b 910 972 913 1085 942 1024 l 536 396 l 536 72 b 464 0 536 32 504 0 b 393 72 425 0 393 32 l 393 396 l 22 972 b 79 1085 -15 1029 25 1085 b 143 1044 110 1085 126 1071 l 468 529 l 799 1050 b 863 1085 813 1072 832 1085 "},"Ý":{"ha":931,"x_min":0,"x_max":0,"o":"m 471 1204 b 400 1275 429 1204 400 1233 b 417 1322 400 1294 406 1310 l 553 1458 b 603 1479 567 1472 585 1479 b 674 1407 644 1479 674 1447 b 654 1358 674 1388 668 1371 l 519 1224 b 471 1204 506 1210 490 1204 m 863 1085 b 910 972 913 1085 942 1024 l 536 396 l 536 72 b 464 0 536 32 504 0 b 393 72 425 0 393 32 l 393 396 l 22 972 b 79 1085 -15 1029 25 1085 b 143 1044 110 1085 126 1071 l 468 529 l 799 1050 b 863 1085 813 1072 832 1085 "},"Ŷ":{"ha":931,"x_min":0,"x_max":0,"o":"m 311 1179 b 240 1236 271 1179 240 1203 b 274 1297 240 1260 251 1281 l 429 1399 b 465 1410 440 1406 453 1410 b 503 1399 479 1410 490 1407 l 657 1297 b 690 1236 679 1281 690 1260 b 621 1179 690 1203 661 1179 b 575 1194 603 1179 590 1183 l 465 1272 l 356 1194 b 311 1179 342 1183 328 1179 m 863 1085 b 910 972 913 1085 942 1024 l 536 396 l 536 72 b 464 0 536 32 504 0 b 393 72 425 0 393 32 l 393 396 l 22 972 b 79 1085 -15 1029 25 1085 b 143 1044 110 1085 126 1071 l 468 529 l 799 1050 b 863 1085 813 1072 832 1085 "},"Ÿ":{"ha":931,"x_min":0,"x_max":0,"o":"m 311 1201 b 226 1285 264 1201 226 1238 b 311 1368 226 1329 264 1368 b 394 1285 356 1368 394 1329 b 311 1201 394 1238 356 1201 m 619 1201 b 536 1285 572 1201 536 1238 b 619 1368 536 1329 572 1368 b 703 1285 664 1368 703 1329 b 619 1201 703 1238 664 1201 m 863 1085 b 910 972 913 1085 942 1024 l 536 396 l 536 72 b 464 0 536 32 504 0 b 393 72 425 0 393 32 l 393 396 l 22 972 b 79 1085 -15 1029 25 1085 b 143 1044 110 1085 126 1071 l 468 529 l 799 1050 b 863 1085 813 1072 832 1085 "},"Ỵ":{"ha":931,"x_min":0,"x_max":0,"o":"m 863 1085 b 910 972 913 1085 942 1024 l 536 396 l 536 72 b 464 0 536 32 504 0 b 393 72 425 0 393 32 l 393 396 l 22 972 b 79 1085 -15 1029 25 1085 b 143 1044 110 1085 126 1071 l 468 529 l 799 1050 b 863 1085 813 1072 832 1085 m 465 -128 b 557 -219 515 -128 557 -169 b 465 -311 557 -269 515 -311 b 374 -219 415 -311 374 -269 b 465 -128 374 -169 415 -128 "},"Ỳ":{"ha":931,"x_min":0,"x_max":0,"o":"m 276 1358 b 258 1407 264 1371 258 1388 b 328 1479 258 1447 288 1479 b 379 1458 347 1479 364 1472 l 514 1322 b 532 1275 526 1310 532 1294 b 461 1204 532 1233 501 1204 b 413 1224 442 1204 425 1210 m 863 1085 b 910 972 913 1085 942 1024 l 536 396 l 536 72 b 464 0 536 32 504 0 b 393 72 425 0 393 32 l 393 396 l 22 972 b 79 1085 -15 1029 25 1085 b 143 1044 110 1085 126 1071 l 468 529 l 799 1050 b 863 1085 813 1072 832 1085 "},"Ỷ":{"ha":931,"x_min":0,"x_max":0,"o":"m 381 1400 b 329 1449 353 1400 329 1415 b 351 1497 329 1468 338 1486 b 489 1543 388 1526 431 1543 b 658 1389 589 1543 658 1476 b 501 1247 660 1296 588 1258 l 528 1250 b 465 1160 528 1188 500 1160 b 403 1222 431 1160 403 1188 l 403 1253 b 458 1321 403 1290 421 1313 l 494 1329 b 551 1385 526 1336 551 1356 b 492 1438 551 1421 526 1438 b 426 1415 465 1438 440 1426 b 381 1400 415 1406 396 1400 m 863 1085 b 910 972 913 1085 942 1024 l 536 396 l 536 72 b 464 0 536 32 504 0 b 393 72 425 0 393 32 l 393 396 l 22 972 b 79 1085 -15 1029 25 1085 b 143 1044 110 1085 126 1071 l 468 529 l 799 1050 b 863 1085 813 1072 832 1085 "},"Ȳ":{"ha":931,"x_min":0,"x_max":0,"o":"m 290 1224 b 219 1288 250 1224 219 1246 b 290 1349 219 1328 250 1349 l 638 1349 b 710 1288 678 1349 710 1328 b 638 1224 710 1246 678 1224 l 290 1224 m 863 1085 b 910 972 913 1085 942 1024 l 536 396 l 536 72 b 464 0 536 32 504 0 b 393 72 425 0 393 32 l 393 396 l 22 972 b 79 1085 -15 1029 25 1085 b 143 1044 110 1085 126 1071 l 468 529 l 799 1050 b 863 1085 813 1072 832 1085 "},"Ỹ":{"ha":931,"x_min":0,"x_max":0,"o":"m 224 1196 b 211 1281 197 1208 190 1250 b 390 1375 254 1343 318 1375 b 526 1333 450 1375 494 1350 b 610 1301 568 1310 585 1301 b 665 1325 633 1301 653 1313 b 747 1344 692 1351 713 1365 b 754 1254 775 1328 778 1283 b 614 1189 719 1211 671 1189 b 472 1232 551 1189 506 1214 b 381 1264 432 1254 403 1264 b 314 1226 354 1264 336 1257 b 224 1196 292 1196 258 1179 m 863 1085 b 910 972 913 1085 942 1024 l 536 396 l 536 72 b 464 0 536 32 504 0 b 393 72 425 0 393 32 l 393 396 l 22 972 b 79 1085 -15 1029 25 1085 b 143 1044 110 1085 126 1071 l 468 529 l 799 1050 b 863 1085 813 1072 832 1085 "},"Z":{"ha":1031,"x_min":0,"x_max":0,"o":"m 161 957 b 93 1018 115 957 92 982 b 164 1085 92 1057 122 1085 l 881 1085 b 939 971 944 1085 974 1013 l 257 128 l 881 128 b 951 65 922 128 951 99 b 881 0 951 25 922 0 l 147 0 b 90 117 83 0 57 75 l 769 957 l 161 957 "},"Ź":{"ha":1031,"x_min":0,"x_max":0,"o":"m 603 1458 b 653 1479 617 1472 635 1479 b 724 1407 694 1479 724 1447 b 704 1358 724 1388 718 1371 l 569 1224 b 521 1204 556 1210 540 1204 b 450 1275 479 1204 450 1233 b 467 1322 450 1294 456 1310 l 603 1458 m 161 957 b 93 1018 115 957 92 982 b 164 1085 92 1057 122 1085 l 881 1085 b 939 971 944 1085 974 1013 l 257 128 l 881 128 b 951 65 922 128 951 99 b 881 0 951 25 922 0 l 147 0 b 90 117 83 0 57 75 l 769 957 l 161 957 "},"Ž":{"ha":1031,"x_min":0,"x_max":0,"o":"m 625 1388 b 740 1367 694 1435 740 1404 b 707 1307 740 1343 729 1324 l 553 1204 b 515 1193 540 1196 529 1193 b 479 1204 503 1193 490 1196 l 324 1307 b 290 1367 301 1324 290 1343 b 406 1388 290 1404 342 1432 l 515 1314 l 625 1388 m 161 957 b 93 1018 115 957 92 982 b 164 1085 92 1057 122 1085 l 881 1085 b 939 971 944 1085 974 1013 l 257 128 l 881 128 b 951 65 922 128 951 99 b 881 0 951 25 922 0 l 147 0 b 90 117 83 0 57 75 l 769 957 l 161 957 "},"Ż":{"ha":1031,"x_min":0,"x_max":0,"o":"m 515 1392 b 607 1300 565 1392 607 1350 b 515 1208 607 1250 565 1208 b 424 1300 465 1208 424 1250 b 515 1392 424 1350 465 1392 m 161 957 b 93 1018 115 957 92 982 b 164 1085 92 1057 122 1085 l 881 1085 b 939 971 944 1085 974 1013 l 257 128 l 881 128 b 951 65 922 128 951 99 b 881 0 951 25 922 0 l 147 0 b 90 117 83 0 57 75 l 769 957 l 161 957 "},"a":{"ha":938,"x_min":0,"x_max":0,"o":"m 469 765 b 851 379 686 765 850 599 l 851 69 b 781 -1 851 29 821 -1 b 710 69 740 -1 710 29 l 710 121 b 442 -6 646 43 551 -6 b 86 379 239 -6 86 160 b 469 765 86 599 251 765 m 469 119 b 715 379 610 119 715 231 b 469 640 715 528 610 640 b 222 379 329 640 222 528 b 469 119 222 231 329 119 "},"á":{"ha":938,"x_min":0,"x_max":0,"o":"m 475 879 b 404 950 433 879 404 908 b 421 997 404 969 410 985 l 557 1133 b 607 1154 571 1147 589 1154 b 678 1082 649 1154 678 1122 b 658 1033 678 1063 672 1046 l 524 899 b 475 879 510 885 494 879 m 469 765 b 851 379 686 765 850 599 l 851 69 b 781 -1 851 29 821 -1 b 710 69 740 -1 710 29 l 710 121 b 442 -6 646 43 551 -6 b 86 379 239 -6 86 160 b 469 765 86 599 251 765 m 469 119 b 715 379 610 119 715 231 b 469 640 715 528 610 640 b 222 379 329 640 222 528 b 469 119 222 231 329 119 "},"ă":{"ha":938,"x_min":0,"x_max":0,"o":"m 469 840 b 243 1014 344 840 243 915 b 310 1085 243 1054 269 1085 b 376 1028 343 1085 376 1063 b 469 954 376 985 425 954 b 561 1028 526 954 561 985 b 629 1085 561 1063 593 1085 b 694 1014 669 1085 694 1054 b 469 840 694 915 593 840 m 469 765 b 851 379 686 765 850 599 l 851 69 b 781 -1 851 29 821 -1 b 710 69 740 -1 710 29 l 710 121 b 442 -6 646 43 551 -6 b 86 379 239 -6 86 160 b 469 765 86 599 251 765 m 469 119 b 715 379 610 119 715 231 b 469 640 715 528 610 640 b 222 379 329 640 222 528 b 469 119 222 231 329 119 "},"ắ":{"ha":938,"x_min":0,"x_max":0,"o":"m 475 1121 b 404 1192 433 1121 404 1150 b 421 1239 404 1211 410 1226 l 557 1375 b 607 1396 571 1389 589 1396 b 678 1324 649 1396 678 1364 b 658 1275 678 1304 672 1288 l 524 1140 b 475 1121 510 1126 494 1121 m 469 840 b 243 1014 344 840 243 915 b 310 1085 243 1054 269 1085 b 376 1028 343 1085 376 1063 b 469 954 376 985 425 954 b 561 1028 526 954 561 985 b 629 1085 561 1063 593 1085 b 694 1014 669 1085 694 1054 b 469 840 694 915 593 840 m 469 765 b 851 379 686 765 850 599 l 851 69 b 781 -1 851 29 821 -1 b 710 69 740 -1 710 29 l 710 121 b 442 -6 646 43 551 -6 b 86 379 239 -6 86 160 b 469 765 86 599 251 765 m 469 119 b 715 379 610 119 715 231 b 469 640 715 528 610 640 b 222 379 329 640 222 528 b 469 119 222 231 329 119 "},"ặ":{"ha":938,"x_min":0,"x_max":0,"o":"m 469 840 b 243 1014 344 840 243 915 b 310 1085 243 1054 269 1085 b 376 1028 343 1085 376 1063 b 469 954 376 985 425 954 b 561 1028 526 954 561 985 b 629 1085 561 1063 593 1085 b 694 1014 669 1085 694 1054 b 469 840 694 915 593 840 m 469 765 b 851 379 686 765 850 599 l 851 69 b 781 -1 851 29 821 -1 b 710 69 740 -1 710 29 l 710 121 b 442 -6 646 43 551 -6 b 86 379 239 -6 86 160 b 469 765 86 599 251 765 m 469 119 b 715 379 610 119 715 231 b 469 640 715 528 610 640 b 222 379 329 640 222 528 b 469 119 222 231 329 119 m 469 -128 b 561 -219 519 -128 561 -169 b 469 -311 561 -269 519 -311 b 378 -219 419 -311 378 -269 b 469 -128 378 -169 419 -128 "},"ằ":{"ha":938,"x_min":0,"x_max":0,"o":"m 281 1275 b 263 1324 268 1288 263 1304 b 332 1396 263 1364 292 1396 b 383 1375 351 1396 368 1389 l 518 1239 b 536 1192 531 1226 536 1211 b 465 1121 536 1150 506 1121 b 417 1140 446 1121 429 1126 m 469 840 b 243 1014 344 840 243 915 b 310 1085 243 1054 269 1085 b 376 1028 343 1085 376 1063 b 469 954 376 985 425 954 b 561 1028 526 954 561 985 b 629 1085 561 1063 593 1085 b 694 1014 669 1085 694 1054 b 469 840 694 915 593 840 m 469 765 b 851 379 686 765 850 599 l 851 69 b 781 -1 851 29 821 -1 b 710 69 740 -1 710 29 l 710 121 b 442 -6 646 43 551 -6 b 86 379 239 -6 86 160 b 469 765 86 599 251 765 m 469 119 b 715 379 610 119 715 231 b 469 640 715 528 610 640 b 222 379 329 640 222 528 b 469 119 222 231 329 119 "},"ẳ":{"ha":938,"x_min":0,"x_max":0,"o":"m 385 1317 b 333 1365 357 1317 333 1332 b 356 1414 333 1385 342 1403 b 493 1460 392 1443 435 1460 b 663 1306 593 1460 663 1393 b 506 1164 664 1213 592 1175 l 532 1167 b 469 1076 532 1104 504 1076 b 407 1139 435 1076 407 1104 l 407 1169 b 463 1238 407 1207 425 1229 l 499 1246 b 556 1301 531 1253 556 1272 b 496 1354 556 1338 531 1354 b 431 1332 469 1354 444 1343 b 385 1317 419 1322 400 1317 m 469 840 b 243 1014 344 840 243 915 b 310 1085 243 1054 269 1085 b 376 1028 343 1085 376 1063 b 469 954 376 985 425 954 b 561 1028 526 954 561 985 b 629 1085 561 1063 593 1085 b 694 1014 669 1085 694 1054 b 469 840 694 915 593 840 m 469 765 b 851 379 686 765 850 599 l 851 69 b 781 -1 851 29 821 -1 b 710 69 740 -1 710 29 l 710 121 b 442 -6 646 43 551 -6 b 86 379 239 -6 86 160 b 469 765 86 599 251 765 m 469 119 b 715 379 610 119 715 231 b 469 640 715 528 610 640 b 222 379 329 640 222 528 b 469 119 222 231 329 119 "},"ẵ":{"ha":938,"x_min":0,"x_max":0,"o":"m 269 1136 b 242 1217 238 1150 224 1185 b 383 1318 281 1286 326 1318 b 506 1257 447 1318 482 1278 b 553 1232 528 1238 540 1232 b 583 1253 565 1232 574 1239 b 667 1285 604 1282 636 1297 b 694 1201 701 1268 714 1233 b 568 1114 658 1140 618 1114 b 447 1171 519 1114 482 1138 b 394 1204 425 1192 413 1204 b 350 1165 375 1204 364 1189 b 269 1136 333 1138 300 1124 m 631 1085 b 696 1014 671 1085 696 1054 b 471 840 696 915 594 840 b 244 1014 346 840 244 915 b 311 1085 244 1054 271 1085 b 378 1028 344 1085 378 1063 b 471 954 378 985 426 954 b 563 1028 528 954 563 985 b 631 1085 563 1063 594 1085 m 469 765 b 851 379 686 765 850 599 l 851 69 b 781 -1 851 29 821 -1 b 710 69 740 -1 710 29 l 710 121 b 442 -6 646 43 551 -6 b 86 379 239 -6 86 160 b 469 765 86 599 251 765 m 469 119 b 715 379 610 119 715 231 b 469 640 715 528 610 640 b 222 379 329 640 222 528 b 469 119 222 231 329 119 "},"ǎ":{"ha":938,"x_min":0,"x_max":0,"o":"m 278 982 b 244 1042 256 999 244 1018 b 360 1063 244 1079 296 1107 l 469 989 l 579 1063 b 694 1042 649 1110 694 1079 b 661 982 694 1018 683 999 l 507 879 b 469 868 494 871 483 868 b 433 879 457 868 444 871 l 278 982 m 469 765 b 851 379 686 765 850 599 l 851 69 b 781 -1 851 29 821 -1 b 710 69 740 -1 710 29 l 710 121 b 442 -6 646 43 551 -6 b 86 379 239 -6 86 160 b 469 765 86 599 251 765 m 469 119 b 715 379 610 119 715 231 b 469 640 715 528 610 640 b 222 379 329 640 222 528 b 469 119 222 231 329 119 "},"â":{"ha":938,"x_min":0,"x_max":0,"o":"m 315 854 b 244 911 275 854 244 878 b 278 972 244 935 256 956 l 433 1074 b 469 1085 444 1081 457 1085 b 507 1074 483 1085 494 1082 l 661 972 b 694 911 683 956 694 935 b 625 854 694 878 665 854 b 579 869 607 854 594 858 l 469 947 l 360 869 b 315 854 346 858 332 854 m 469 765 b 851 379 686 765 850 599 l 851 69 b 781 -1 851 29 821 -1 b 710 69 740 -1 710 29 l 710 121 b 442 -6 646 43 551 -6 b 86 379 239 -6 86 160 b 469 765 86 599 251 765 m 469 119 b 715 379 610 119 715 231 b 469 640 715 528 610 640 b 222 379 329 640 222 528 b 469 119 222 231 329 119 "},"ấ":{"ha":938,"x_min":0,"x_max":0,"o":"m 619 1079 b 549 1150 578 1079 549 1108 b 565 1197 549 1169 554 1185 l 701 1333 b 751 1354 715 1347 733 1354 b 822 1282 793 1354 822 1322 b 803 1233 822 1263 817 1246 l 668 1099 b 619 1079 654 1085 639 1079 m 315 854 b 244 911 275 854 244 878 b 278 972 244 935 256 956 l 433 1074 b 469 1085 444 1081 457 1085 b 507 1074 483 1085 494 1082 l 661 972 b 694 911 683 956 694 935 b 625 854 694 878 665 854 b 579 869 607 854 594 858 l 469 947 l 360 869 b 315 854 346 858 332 854 m 469 765 b 851 379 686 765 850 599 l 851 69 b 781 -1 851 29 821 -1 b 710 69 740 -1 710 29 l 710 121 b 442 -6 646 43 551 -6 b 86 379 239 -6 86 160 b 469 765 86 599 251 765 m 469 119 b 715 379 610 119 715 231 b 469 640 715 528 610 640 b 222 379 329 640 222 528 b 469 119 222 231 329 119 "},"ậ":{"ha":938,"x_min":0,"x_max":0,"o":"m 315 854 b 244 911 275 854 244 878 b 278 972 244 935 256 956 l 433 1074 b 469 1085 444 1081 457 1085 b 507 1074 483 1085 494 1082 l 661 972 b 694 911 683 956 694 935 b 625 854 694 878 665 854 b 579 869 607 854 594 858 l 469 947 l 360 869 b 315 854 346 858 332 854 m 469 765 b 851 379 686 765 850 599 l 851 69 b 781 -1 851 29 821 -1 b 710 69 740 -1 710 29 l 710 121 b 442 -6 646 43 551 -6 b 86 379 239 -6 86 160 b 469 765 86 599 251 765 m 469 119 b 715 379 610 119 715 231 b 469 640 715 528 610 640 b 222 379 329 640 222 528 b 469 119 222 231 329 119 m 469 -128 b 561 -219 519 -128 561 -169 b 469 -311 561 -269 519 -311 b 378 -219 419 -311 378 -269 b 469 -128 378 -169 419 -128 "},"ầ":{"ha":938,"x_min":0,"x_max":0,"o":"m 425 1233 b 407 1282 413 1246 407 1263 b 476 1354 407 1322 436 1354 b 528 1333 496 1354 513 1347 l 663 1197 b 681 1150 675 1185 681 1169 b 610 1079 681 1108 650 1079 b 561 1099 590 1079 574 1085 m 315 854 b 244 911 275 854 244 878 b 278 972 244 935 256 956 l 433 1074 b 469 1085 444 1081 457 1085 b 507 1074 483 1085 494 1082 l 661 972 b 694 911 683 956 694 935 b 625 854 694 878 665 854 b 579 869 607 854 594 858 l 469 947 l 360 869 b 315 854 346 858 332 854 m 469 765 b 851 379 686 765 850 599 l 851 69 b 781 -1 851 29 821 -1 b 710 69 740 -1 710 29 l 710 121 b 442 -6 646 43 551 -6 b 86 379 239 -6 86 160 b 469 765 86 599 251 765 m 469 119 b 715 379 610 119 715 231 b 469 640 715 528 610 640 b 222 379 329 640 222 528 b 469 119 222 231 329 119 "},"ẩ":{"ha":938,"x_min":0,"x_max":0,"o":"m 536 1275 b 485 1324 508 1275 485 1290 b 507 1372 485 1343 493 1361 b 644 1418 543 1401 586 1418 b 814 1264 744 1418 814 1351 b 657 1122 815 1171 743 1133 l 683 1125 b 621 1035 683 1063 656 1035 b 558 1097 586 1035 558 1063 l 558 1128 b 614 1196 558 1165 576 1188 l 650 1204 b 707 1260 682 1211 707 1231 b 647 1313 707 1296 682 1313 b 582 1290 621 1313 596 1301 b 536 1275 571 1281 551 1275 m 322 854 b 251 911 282 854 251 878 b 285 972 251 935 263 956 l 440 1074 b 476 1085 451 1081 464 1085 b 514 1074 490 1085 501 1082 l 668 972 b 701 911 690 956 701 935 b 632 854 701 878 672 854 b 586 869 614 854 601 858 l 476 947 l 367 869 b 322 854 353 858 339 854 m 469 765 b 851 379 686 765 850 599 l 851 69 b 781 -1 851 29 821 -1 b 710 69 740 -1 710 29 l 710 121 b 442 -6 646 43 551 -6 b 86 379 239 -6 86 160 b 469 765 86 599 251 765 m 469 119 b 715 379 610 119 715 231 b 469 640 715 528 610 640 b 222 379 329 640 222 528 b 469 119 222 231 329 119 "},"ẫ":{"ha":938,"x_min":0,"x_max":0,"o":"m 258 1142 b 231 1222 226 1156 213 1190 b 372 1324 269 1292 315 1324 b 494 1263 436 1324 471 1283 b 542 1238 517 1243 529 1238 b 572 1258 554 1238 563 1244 b 656 1290 593 1288 625 1303 b 683 1207 690 1274 703 1239 b 557 1119 647 1146 607 1119 b 436 1176 508 1119 471 1143 b 383 1210 414 1197 401 1210 b 339 1171 364 1210 353 1194 b 258 1142 322 1143 289 1129 m 668 972 b 701 911 690 956 701 935 b 632 854 701 878 672 854 b 586 869 614 854 601 858 l 476 947 l 367 869 b 322 854 353 858 339 854 b 251 911 282 854 251 878 b 285 972 251 935 263 956 l 440 1074 b 476 1085 451 1081 464 1085 b 514 1074 490 1085 501 1082 l 668 972 m 469 765 b 851 379 686 765 850 599 l 851 69 b 781 -1 851 29 821 -1 b 710 69 740 -1 710 29 l 710 121 b 442 -6 646 43 551 -6 b 86 379 239 -6 86 160 b 469 765 86 599 251 765 m 469 119 b 715 379 610 119 715 231 b 469 640 715 528 610 640 b 222 379 329 640 222 528 b 469 119 222 231 329 119 "},"ȁ":{"ha":938,"x_min":0,"x_max":0,"o":"m 279 1057 b 272 1083 274 1067 274 1076 b 344 1154 272 1121 304 1154 b 410 1110 374 1154 403 1135 l 464 938 b 467 915 465 929 467 921 b 410 857 467 878 436 857 b 356 893 385 857 368 869 m 478 1057 b 472 1083 474 1067 472 1076 b 544 1154 472 1121 503 1154 b 610 1110 574 1154 603 1135 l 663 938 b 667 915 665 929 667 921 b 608 857 667 878 635 857 b 556 893 585 857 567 869 m 469 765 b 851 379 686 765 850 599 l 851 69 b 781 -1 851 29 821 -1 b 710 69 740 -1 710 29 l 710 121 b 442 -6 646 43 551 -6 b 86 379 239 -6 86 160 b 469 765 86 599 251 765 m 469 119 b 715 379 610 119 715 231 b 469 640 715 528 610 640 b 222 379 329 640 222 528 b 469 119 222 231 329 119 "},"ä":{"ha":938,"x_min":0,"x_max":0,"o":"m 315 876 b 231 960 268 876 231 913 b 315 1043 231 1004 268 1043 b 399 960 360 1043 399 1004 b 315 876 399 913 360 876 m 624 876 b 540 960 576 876 540 913 b 624 1043 540 1004 576 1043 b 707 960 668 1043 707 1004 b 624 876 707 913 668 876 m 469 765 b 851 379 686 765 850 599 l 851 69 b 781 -1 851 29 821 -1 b 710 69 740 -1 710 29 l 710 121 b 442 -6 646 43 551 -6 b 86 379 239 -6 86 160 b 469 765 86 599 251 765 m 469 119 b 715 379 610 119 715 231 b 469 640 715 528 610 640 b 222 379 329 640 222 528 b 469 119 222 231 329 119 "},"ạ":{"ha":938,"x_min":0,"x_max":0,"o":"m 469 765 b 851 379 686 765 850 599 l 851 69 b 781 -1 851 29 821 -1 b 710 69 740 -1 710 29 l 710 121 b 442 -6 646 43 551 -6 b 86 379 239 -6 86 160 b 469 765 86 599 251 765 m 469 119 b 715 379 610 119 715 231 b 469 640 715 528 610 640 b 222 379 329 640 222 528 b 469 119 222 231 329 119 m 469 -128 b 561 -219 519 -128 561 -169 b 469 -311 561 -269 519 -311 b 378 -219 419 -311 378 -269 b 469 -128 378 -169 419 -128 "},"à":{"ha":938,"x_min":0,"x_max":0,"o":"m 281 1033 b 263 1082 268 1046 263 1063 b 332 1154 263 1122 292 1154 b 383 1133 351 1154 368 1147 l 518 997 b 536 950 531 985 536 969 b 465 879 536 908 506 879 b 417 899 446 879 429 885 m 469 765 b 851 379 686 765 850 599 l 851 69 b 781 -1 851 29 821 -1 b 710 69 740 -1 710 29 l 710 121 b 442 -6 646 43 551 -6 b 86 379 239 -6 86 160 b 469 765 86 599 251 765 m 469 119 b 715 379 610 119 715 231 b 469 640 715 528 610 640 b 222 379 329 640 222 528 b 469 119 222 231 329 119 "},"ả":{"ha":938,"x_min":0,"x_max":0,"o":"m 385 1075 b 333 1124 357 1075 333 1090 b 356 1172 333 1143 342 1161 b 493 1218 392 1201 435 1218 b 663 1064 593 1218 663 1151 b 506 922 664 971 592 933 l 532 925 b 469 835 532 863 504 835 b 407 897 435 835 407 863 l 407 928 b 463 996 407 965 425 988 l 499 1004 b 556 1060 531 1011 556 1031 b 496 1113 556 1096 531 1113 b 431 1090 469 1113 444 1101 b 385 1075 419 1081 400 1075 m 469 765 b 851 379 686 765 850 599 l 851 69 b 781 -1 851 29 821 -1 b 710 69 740 -1 710 29 l 710 121 b 442 -6 646 43 551 -6 b 86 379 239 -6 86 160 b 469 765 86 599 251 765 m 469 119 b 715 379 610 119 715 231 b 469 640 715 528 610 640 b 222 379 329 640 222 528 b 469 119 222 231 329 119 "},"ȃ":{"ha":938,"x_min":0,"x_max":0,"o":"m 310 840 b 243 911 269 840 243 871 b 469 1085 243 1010 344 1085 b 694 911 593 1085 694 1010 b 629 840 694 871 669 840 b 561 897 593 840 561 863 b 469 971 561 940 526 971 b 376 897 425 971 376 940 b 310 840 376 863 343 840 m 469 765 b 851 379 686 765 850 599 l 851 69 b 781 -1 851 29 821 -1 b 710 69 740 -1 710 29 l 710 121 b 442 -6 646 43 551 -6 b 86 379 239 -6 86 160 b 469 765 86 599 251 765 m 469 119 b 715 379 610 119 715 231 b 469 640 715 528 610 640 b 222 379 329 640 222 528 b 469 119 222 231 329 119 "},"ā":{"ha":938,"x_min":0,"x_max":0,"o":"m 294 899 b 224 963 254 899 224 921 b 294 1024 224 1003 254 1024 l 642 1024 b 714 963 682 1024 714 1003 b 642 899 714 921 682 899 l 294 899 m 469 765 b 851 379 686 765 850 599 l 851 69 b 781 -1 851 29 821 -1 b 710 69 740 -1 710 29 l 710 121 b 442 -6 646 43 551 -6 b 86 379 239 -6 86 160 b 469 765 86 599 251 765 m 469 119 b 715 379 610 119 715 231 b 469 640 715 528 610 640 b 222 379 329 640 222 528 b 469 119 222 231 329 119 "},"ą":{"ha":938,"x_min":0,"x_max":0,"o":"m 946 -190 b 1017 -261 988 -190 1017 -221 b 992 -318 1017 -285 1008 -303 l 939 -353 b 843 -383 910 -374 878 -383 b 669 -210 750 -383 669 -306 b 742 -68 669 -153 694 -107 b 781 -24 761 -54 774 -37 b 803 1 786 -12 793 -4 b 781 -1 796 0 788 -1 b 710 69 740 -1 710 29 l 710 121 b 442 -6 646 43 551 -6 b 86 379 239 -6 86 160 b 469 765 86 599 251 765 b 851 379 686 765 850 599 l 851 69 b 822 11 851 44 840 24 b 843 14 828 13 835 14 b 914 -56 882 14 911 -15 b 825 -182 914 -99 883 -140 b 811 -210 815 -190 811 -201 b 843 -242 811 -228 825 -242 b 860 -236 850 -242 856 -240 l 903 -204 b 946 -190 915 -196 929 -190 m 469 119 b 715 379 610 119 715 231 b 469 640 715 528 610 640 b 222 379 329 640 222 528 b 469 119 222 231 329 119 "},"å":{"ha":938,"x_min":0,"x_max":0,"o":"m 469 814 b 321 963 382 814 321 875 b 469 1113 321 1050 382 1113 b 618 963 557 1113 618 1050 b 469 814 618 875 557 814 m 469 1035 b 397 963 428 1035 397 1004 b 469 892 397 921 428 892 b 540 963 511 892 540 921 b 469 1035 540 1004 511 1035 m 469 765 b 851 379 686 765 850 599 l 851 69 b 781 -1 851 29 821 -1 b 710 69 740 -1 710 29 l 710 121 b 442 -6 646 43 551 -6 b 86 379 239 -6 86 160 b 469 765 86 599 251 765 m 469 119 b 715 379 610 119 715 231 b 469 640 715 528 610 640 b 222 379 329 640 222 528 b 469 119 222 231 329 119 "},"ǻ":{"ha":938,"x_min":0,"x_max":0,"o":"m 475 1163 b 404 1233 433 1163 404 1192 b 421 1281 404 1253 410 1268 l 557 1417 b 607 1438 571 1431 589 1438 b 678 1365 649 1438 678 1406 b 658 1317 678 1346 672 1329 l 524 1182 b 475 1163 510 1168 494 1163 m 469 814 b 321 963 382 814 321 875 b 469 1113 321 1050 382 1113 b 618 963 557 1113 618 1050 b 469 814 618 875 557 814 m 469 1035 b 397 963 428 1035 397 1004 b 469 892 397 921 428 892 b 540 963 511 892 540 921 b 469 1035 540 1004 511 1035 m 469 765 b 851 379 686 765 850 599 l 851 69 b 781 -1 851 29 821 -1 b 710 69 740 -1 710 29 l 710 121 b 442 -6 646 43 551 -6 b 86 379 239 -6 86 160 b 469 765 86 599 251 765 m 469 119 b 715 379 610 119 715 231 b 469 640 715 528 610 640 b 222 379 329 640 222 528 b 469 119 222 231 329 119 "},"ã":{"ha":938,"x_min":0,"x_max":0,"o":"m 228 871 b 215 956 201 883 194 925 b 394 1050 258 1018 322 1050 b 531 1008 454 1050 499 1025 b 614 976 572 985 589 976 b 669 1000 638 976 657 988 b 751 1019 696 1026 717 1040 b 758 929 779 1003 782 958 b 618 864 724 886 675 864 b 476 907 556 864 510 889 b 385 939 436 929 407 939 b 318 901 358 939 340 932 b 228 871 296 871 263 854 m 469 765 b 851 379 686 765 850 599 l 851 69 b 781 -1 851 29 821 -1 b 710 69 740 -1 710 29 l 710 121 b 442 -6 646 43 551 -6 b 86 379 239 -6 86 160 b 469 765 86 599 251 765 m 469 119 b 715 379 610 119 715 231 b 469 640 715 528 610 640 b 222 379 329 640 222 528 b 469 119 222 231 329 119 "},"æ":{"ha":1499,"x_min":0,"x_max":0,"o":"m 851 331 l 851 329 b 1118 114 874 203 978 114 b 1279 167 1175 114 1242 139 b 1367 168 1307 188 1344 190 b 1369 79 1397 138 1400 103 b 1118 -6 1306 31 1203 -6 b 851 94 1011 -6 918 32 l 851 69 b 781 -1 851 29 821 -1 b 710 69 740 -1 710 29 l 710 121 b 442 -6 646 43 551 -6 b 86 379 239 -6 86 160 b 469 765 86 599 251 765 b 790 593 607 765 724 699 b 1097 765 851 700 963 765 b 1443 392 1314 765 1443 611 b 1379 331 1443 356 1417 331 m 1097 646 b 853 442 960 646 874 563 l 1315 442 b 1097 646 1299 561 1222 646 m 469 119 b 715 379 610 119 715 231 b 469 640 715 528 610 640 b 222 379 329 640 222 528 b 469 119 222 231 329 119 "},"ǽ":{"ha":1499,"x_min":0,"x_max":0,"o":"m 771 879 b 700 950 729 879 700 908 b 717 997 700 969 706 985 l 853 1133 b 903 1154 867 1147 885 1154 b 974 1082 944 1154 974 1122 b 954 1033 974 1063 968 1046 l 819 899 b 771 879 806 885 790 879 m 851 331 l 851 329 b 1118 114 874 203 978 114 b 1279 167 1175 114 1242 139 b 1367 168 1307 188 1344 190 b 1369 79 1397 138 1400 103 b 1118 -6 1306 31 1203 -6 b 851 94 1011 -6 918 32 l 851 69 b 781 -1 851 29 821 -1 b 710 69 740 -1 710 29 l 710 121 b 442 -6 646 43 551 -6 b 86 379 239 -6 86 160 b 469 765 86 599 251 765 b 790 593 607 765 724 699 b 1097 765 851 700 963 765 b 1443 392 1314 765 1443 611 b 1379 331 1443 356 1417 331 m 1097 646 b 853 442 960 646 874 563 l 1315 442 b 1097 646 1299 561 1222 646 m 469 119 b 715 379 610 119 715 231 b 469 640 715 528 610 640 b 222 379 329 640 222 528 b 469 119 222 231 329 119 "},"b":{"ha":976,"x_min":0,"x_max":0,"o":"m 535 765 b 890 381 738 765 890 600 b 507 -6 890 161 725 -6 b 125 381 290 -6 126 161 l 125 1014 b 196 1085 125 1056 154 1085 b 267 1014 238 1085 267 1056 l 267 639 b 535 765 331 717 425 765 m 507 119 b 754 381 647 119 754 232 b 507 640 754 529 647 640 b 261 381 367 640 261 529 b 507 119 261 232 367 119 "},"c":{"ha":835,"x_min":0,"x_max":0,"o":"m 463 765 b 735 640 572 765 663 724 b 718 553 760 611 751 576 b 632 568 692 535 657 542 b 463 640 585 618 532 640 b 222 379 319 640 222 536 b 469 119 222 229 322 119 b 622 168 533 119 582 135 b 710 175 651 192 686 194 b 719 88 742 149 746 113 b 469 -6 654 26 571 -6 b 86 379 246 -6 86 160 b 463 765 86 604 243 765 "},"ć":{"ha":835,"x_min":0,"x_max":0,"o":"m 550 1133 b 600 1154 564 1147 582 1154 b 671 1082 642 1154 671 1122 b 651 1033 671 1063 665 1046 l 517 899 b 468 879 503 885 488 879 b 397 950 426 879 397 908 b 414 997 397 969 403 985 l 550 1133 m 463 765 b 735 640 572 765 663 724 b 718 553 760 611 751 576 b 632 568 692 535 657 542 b 463 640 585 618 532 640 b 222 379 319 640 222 536 b 469 119 222 229 322 119 b 622 168 533 119 582 135 b 710 175 651 192 686 194 b 719 88 742 149 746 113 b 469 -6 654 26 571 -6 b 86 379 246 -6 86 160 b 463 765 86 604 243 765 "},"č":{"ha":835,"x_min":0,"x_max":0,"o":"m 572 1063 b 688 1042 642 1110 688 1079 b 654 982 688 1018 676 999 l 500 879 b 463 868 488 871 476 868 b 426 879 450 868 438 871 l 271 982 b 238 1042 249 999 238 1018 b 353 1063 238 1079 289 1107 l 463 989 l 572 1063 m 463 765 b 735 640 572 765 663 724 b 718 553 760 611 751 576 b 632 568 692 535 657 542 b 463 640 585 618 532 640 b 222 379 319 640 222 536 b 469 119 222 229 322 119 b 622 168 533 119 582 135 b 710 175 651 192 686 194 b 719 88 742 149 746 113 b 469 -6 654 26 571 -6 b 86 379 246 -6 86 160 b 463 765 86 604 243 765 "},"ç":{"ha":835,"x_min":0,"x_max":0,"o":"m 710 175 b 719 88 742 149 746 113 b 532 -1 668 39 606 10 l 511 -49 b 650 -181 607 -69 650 -111 b 444 -325 650 -253 571 -325 b 254 -208 333 -325 254 -271 b 319 -142 254 -172 285 -142 b 367 -176 342 -142 357 -150 b 446 -225 379 -210 410 -225 b 510 -176 482 -225 510 -206 b 447 -115 510 -143 493 -124 b 385 -21 389 -106 364 -81 l 393 1 b 86 379 210 35 86 186 b 463 765 86 604 243 765 b 735 640 572 765 663 724 b 718 553 760 611 751 576 b 632 568 692 535 657 542 b 463 640 585 618 532 640 b 222 379 319 640 222 536 b 469 119 222 229 322 119 b 622 168 533 119 582 135 b 710 175 651 192 686 194 "},"ĉ":{"ha":835,"x_min":0,"x_max":0,"o":"m 353 869 b 308 854 339 858 325 854 b 238 911 268 854 238 878 b 271 972 238 935 249 956 l 426 1074 b 463 1085 438 1081 450 1085 b 500 1074 476 1085 488 1082 l 654 972 b 688 911 676 956 688 935 b 618 854 688 878 658 854 b 572 869 600 854 588 858 l 463 947 l 353 869 m 463 765 b 735 640 572 765 663 724 b 718 553 760 611 751 576 b 632 568 692 535 657 542 b 463 640 585 618 532 640 b 222 379 319 640 222 536 b 469 119 222 229 322 119 b 622 168 533 119 582 135 b 710 175 651 192 686 194 b 719 88 742 149 746 113 b 469 -6 654 26 571 -6 b 86 379 246 -6 86 160 b 463 765 86 604 243 765 "},"ċ":{"ha":835,"x_min":0,"x_max":0,"o":"m 463 1067 b 554 975 513 1067 554 1025 b 463 883 554 925 513 883 b 371 975 413 883 371 925 b 463 1067 371 1025 413 1067 m 463 765 b 735 640 572 765 663 724 b 718 553 760 611 751 576 b 632 568 692 535 657 542 b 463 640 585 618 532 640 b 222 379 319 640 222 536 b 469 119 222 229 322 119 b 622 168 533 119 582 135 b 710 175 651 192 686 194 b 719 88 742 149 746 113 b 469 -6 654 26 571 -6 b 86 379 246 -6 86 160 b 463 765 86 604 243 765 "},"d":{"ha":976,"x_min":0,"x_max":0,"o":"m 781 1085 b 851 1014 822 1085 851 1056 l 851 381 b 469 -6 850 161 686 -6 b 86 381 251 -6 86 161 b 442 765 86 600 239 765 b 710 639 551 765 646 717 l 710 1014 b 781 1085 710 1056 739 1085 m 469 119 b 715 381 610 119 715 232 b 469 640 715 529 610 640 b 222 381 329 640 222 529 b 469 119 222 232 329 119 "},"ð":{"ha":935,"x_min":0,"x_max":0,"o":"m 838 353 b 456 -6 836 143 678 -6 b 86 353 239 -6 86 143 b 428 710 86 563 228 710 b 726 536 563 710 669 643 b 461 942 715 758 651 858 l 410 849 b 349 838 399 829 375 822 b 329 894 326 850 314 867 l 375 976 b 325 994 358 983 342 989 b 271 1068 275 1011 258 1033 b 356 1088 283 1101 318 1101 b 422 1063 379 1079 401 1071 l 463 1135 b 521 1147 478 1161 497 1161 b 543 1090 549 1131 554 1111 l 507 1025 b 836 510 756 907 835 768 m 456 119 b 701 353 600 119 701 217 b 456 585 701 489 600 585 b 222 353 318 585 222 489 b 456 119 222 217 318 119 "},"ď":{"ha":1117,"x_min":0,"x_max":0,"o":"m 1042 1096 b 1129 965 1101 1096 1138 1035 b 944 699 1118 835 999 692 b 910 736 921 701 907 713 b 996 903 915 785 988 836 b 974 1038 1003 961 974 979 b 1042 1096 974 1074 1004 1096 m 781 1085 b 851 1014 822 1085 851 1056 l 851 381 b 469 -6 850 161 686 -6 b 86 381 251 -6 86 161 b 442 765 86 600 239 765 b 710 639 551 765 646 717 l 710 1014 b 781 1085 710 1056 739 1085 m 469 119 b 715 381 610 119 715 232 b 469 640 715 529 610 640 b 222 381 329 640 222 529 b 469 119 222 232 329 119 "},"đ":{"ha":976,"x_min":0,"x_max":0,"o":"m 904 957 b 976 901 946 957 976 940 b 904 846 976 871 946 846 l 851 846 l 851 381 b 469 -6 850 161 686 -6 b 86 381 251 -6 86 161 b 442 765 86 600 239 765 b 710 639 551 765 646 717 l 710 846 l 513 846 b 442 901 471 846 442 871 b 513 957 442 940 471 957 l 710 957 l 710 1014 b 781 1085 710 1056 739 1085 b 851 1014 822 1085 851 1056 l 851 957 l 904 957 m 469 119 b 715 381 610 119 715 232 b 469 640 715 529 610 640 b 222 381 329 640 222 529 b 469 119 222 232 329 119 "},"e":{"ha":863,"x_min":0,"x_max":0,"o":"m 807 392 b 743 331 807 356 781 331 l 215 331 b 482 114 236 203 340 114 b 643 167 539 114 606 139 b 731 168 671 188 707 188 b 733 79 763 140 764 103 b 482 -6 671 29 567 -6 b 86 379 250 -6 86 154 b 461 765 86 606 242 765 b 807 392 678 765 807 611 m 461 646 b 217 442 324 646 238 563 l 679 442 b 461 646 663 561 586 646 "},"é":{"ha":863,"x_min":0,"x_max":0,"o":"m 453 879 b 382 950 411 879 382 908 b 399 997 382 969 388 985 l 535 1133 b 585 1154 549 1147 567 1154 b 656 1082 626 1154 656 1122 b 636 1033 656 1063 650 1046 l 501 899 b 453 879 488 885 472 879 m 807 392 b 743 331 807 356 781 331 l 215 331 b 482 114 236 203 340 114 b 643 167 539 114 606 139 b 731 168 671 188 707 188 b 733 79 763 140 764 103 b 482 -6 671 29 567 -6 b 86 379 250 -6 86 154 b 461 765 86 606 242 765 b 807 392 678 765 807 611 m 461 646 b 217 442 324 646 238 563 l 679 442 b 461 646 663 561 586 646 "},"ĕ":{"ha":863,"x_min":0,"x_max":0,"o":"m 447 840 b 221 1014 322 840 221 915 b 288 1085 221 1054 247 1085 b 354 1028 321 1085 354 1063 b 447 954 354 985 403 954 b 539 1028 504 954 539 985 b 607 1085 539 1063 571 1085 b 672 1014 647 1085 672 1054 b 447 840 672 915 571 840 m 807 392 b 743 331 807 356 781 331 l 215 331 b 482 114 236 203 340 114 b 643 167 539 114 606 139 b 731 168 671 188 707 188 b 733 79 763 140 764 103 b 482 -6 671 29 567 -6 b 86 379 250 -6 86 154 b 461 765 86 606 242 765 b 807 392 678 765 807 611 m 461 646 b 217 442 324 646 238 563 l 679 442 b 461 646 663 561 586 646 "},"ě":{"ha":863,"x_min":0,"x_max":0,"o":"m 256 982 b 222 1042 233 999 222 1018 b 338 1063 222 1079 274 1107 l 447 989 l 557 1063 b 672 1042 626 1110 672 1079 b 639 982 672 1018 661 999 l 485 879 b 447 868 472 871 461 868 b 411 879 435 868 422 871 l 256 982 m 807 392 b 743 331 807 356 781 331 l 215 331 b 482 114 236 203 340 114 b 643 167 539 114 606 139 b 731 168 671 188 707 188 b 733 79 763 140 764 103 b 482 -6 671 29 567 -6 b 86 379 250 -6 86 154 b 461 765 86 606 242 765 b 807 392 678 765 807 611 m 461 646 b 217 442 324 646 238 563 l 679 442 b 461 646 663 561 586 646 "},"ê":{"ha":863,"x_min":0,"x_max":0,"o":"m 293 854 b 222 911 253 854 222 878 b 256 972 222 935 233 956 l 411 1074 b 447 1085 422 1081 435 1085 b 485 1074 461 1085 472 1082 l 639 972 b 672 911 661 956 672 935 b 603 854 672 878 643 854 b 557 869 585 854 572 858 l 447 947 l 338 869 b 293 854 324 858 310 854 m 807 392 b 743 331 807 356 781 331 l 215 331 b 482 114 236 203 340 114 b 643 167 539 114 606 139 b 731 168 671 188 707 188 b 733 79 763 140 764 103 b 482 -6 671 29 567 -6 b 86 379 250 -6 86 154 b 461 765 86 606 242 765 b 807 392 678 765 807 611 m 461 646 b 217 442 324 646 238 563 l 679 442 b 461 646 663 561 586 646 "},"ế":{"ha":863,"x_min":0,"x_max":0,"o":"m 597 1079 b 526 1150 556 1079 526 1108 b 543 1197 526 1169 532 1185 l 679 1333 b 729 1354 693 1347 711 1354 b 800 1282 771 1354 800 1322 b 781 1233 800 1263 794 1246 l 646 1099 b 597 1079 632 1085 617 1079 m 293 854 b 222 911 253 854 222 878 b 256 972 222 935 233 956 l 411 1074 b 447 1085 422 1081 435 1085 b 485 1074 461 1085 472 1082 l 639 972 b 672 911 661 956 672 935 b 603 854 672 878 643 854 b 557 869 585 854 572 858 l 447 947 l 338 869 b 293 854 324 858 310 854 m 807 392 b 743 331 807 356 781 331 l 215 331 b 482 114 236 203 340 114 b 643 167 539 114 606 139 b 731 168 671 188 707 188 b 733 79 763 140 764 103 b 482 -6 671 29 567 -6 b 86 379 250 -6 86 154 b 461 765 86 606 242 765 b 807 392 678 765 807 611 m 461 646 b 217 442 324 646 238 563 l 679 442 b 461 646 663 561 586 646 "},"ệ":{"ha":863,"x_min":0,"x_max":0,"o":"m 293 854 b 222 911 253 854 222 878 b 256 972 222 935 233 956 l 411 1074 b 447 1085 422 1081 435 1085 b 485 1074 461 1085 472 1082 l 639 972 b 672 911 661 956 672 935 b 603 854 672 878 643 854 b 557 869 585 854 572 858 l 447 947 l 338 869 b 293 854 324 858 310 854 m 807 392 b 743 331 807 356 781 331 l 215 331 b 482 114 236 203 340 114 b 643 167 539 114 606 139 b 731 168 671 188 707 188 b 733 79 763 140 764 103 b 482 -6 671 29 567 -6 b 86 379 250 -6 86 154 b 461 765 86 606 242 765 b 807 392 678 765 807 611 m 461 646 b 217 442 324 646 238 563 l 679 442 b 461 646 663 561 586 646 m 447 -128 b 539 -219 497 -128 539 -169 b 447 -311 539 -269 497 -311 b 356 -219 397 -311 356 -269 b 447 -128 356 -169 397 -128 "},"ề":{"ha":863,"x_min":0,"x_max":0,"o":"m 403 1233 b 385 1282 390 1246 385 1263 b 454 1354 385 1322 414 1354 b 506 1333 474 1354 490 1347 l 640 1197 b 658 1150 653 1185 658 1169 b 588 1079 658 1108 628 1079 b 539 1099 568 1079 551 1085 m 293 854 b 222 911 253 854 222 878 b 256 972 222 935 233 956 l 411 1074 b 447 1085 422 1081 435 1085 b 485 1074 461 1085 472 1082 l 639 972 b 672 911 661 956 672 935 b 603 854 672 878 643 854 b 557 869 585 854 572 858 l 447 947 l 338 869 b 293 854 324 858 310 854 m 807 392 b 743 331 807 356 781 331 l 215 331 b 482 114 236 203 340 114 b 643 167 539 114 606 139 b 731 168 671 188 707 188 b 733 79 763 140 764 103 b 482 -6 671 29 567 -6 b 86 379 250 -6 86 154 b 461 765 86 606 242 765 b 807 392 678 765 807 611 m 461 646 b 217 442 324 646 238 563 l 679 442 b 461 646 663 561 586 646 "},"ể":{"ha":863,"x_min":0,"x_max":0,"o":"m 514 1275 b 463 1324 486 1275 463 1290 b 485 1372 463 1343 471 1361 b 622 1418 521 1401 564 1418 b 792 1264 722 1418 792 1351 b 635 1122 793 1171 721 1133 l 661 1125 b 599 1035 661 1063 633 1035 b 536 1097 564 1035 536 1063 l 536 1128 b 592 1196 536 1165 554 1188 l 628 1204 b 685 1260 660 1211 685 1231 b 625 1313 685 1296 660 1313 b 560 1290 599 1313 574 1301 b 514 1275 549 1281 529 1275 m 300 854 b 229 911 260 854 229 878 b 263 972 229 935 240 956 l 418 1074 b 454 1085 429 1081 442 1085 b 492 1074 468 1085 479 1082 l 646 972 b 679 911 668 956 679 935 b 610 854 679 878 650 854 b 564 869 592 854 579 858 l 454 947 l 344 869 b 300 854 331 858 317 854 m 807 392 b 743 331 807 356 781 331 l 215 331 b 482 114 236 203 340 114 b 643 167 539 114 606 139 b 731 168 671 188 707 188 b 733 79 763 140 764 103 b 482 -6 671 29 567 -6 b 86 379 250 -6 86 154 b 461 765 86 606 242 765 b 807 392 678 765 807 611 m 461 646 b 217 442 324 646 238 563 l 679 442 b 461 646 663 561 586 646 "},"ễ":{"ha":863,"x_min":0,"x_max":0,"o":"m 236 1142 b 208 1222 204 1156 190 1190 b 350 1324 247 1292 293 1324 b 472 1263 414 1324 449 1283 b 519 1238 494 1243 507 1238 b 550 1258 532 1238 540 1244 b 633 1290 571 1288 603 1303 b 661 1207 668 1274 681 1239 b 535 1119 625 1146 585 1119 b 414 1176 486 1119 449 1143 b 361 1210 392 1197 379 1210 b 317 1171 342 1210 331 1194 b 236 1142 300 1143 267 1129 m 646 972 b 679 911 668 956 679 935 b 610 854 679 878 650 854 b 564 869 592 854 579 858 l 454 947 l 344 869 b 300 854 331 858 317 854 b 229 911 260 854 229 878 b 263 972 229 935 240 956 l 418 1074 b 454 1085 429 1081 442 1085 b 492 1074 468 1085 479 1082 l 646 972 m 807 392 b 743 331 807 356 781 331 l 215 331 b 482 114 236 203 340 114 b 643 167 539 114 606 139 b 731 168 671 188 707 188 b 733 79 763 140 764 103 b 482 -6 671 29 567 -6 b 86 379 250 -6 86 154 b 461 765 86 606 242 765 b 807 392 678 765 807 611 m 461 646 b 217 442 324 646 238 563 l 679 442 b 461 646 663 561 586 646 "},"ȅ":{"ha":863,"x_min":0,"x_max":0,"o":"m 257 1057 b 250 1083 251 1067 251 1076 b 322 1154 250 1121 282 1154 b 388 1110 351 1154 381 1135 l 442 938 b 444 915 443 929 444 921 b 388 857 444 878 414 857 b 333 893 363 857 346 869 m 456 1057 b 450 1083 451 1067 450 1076 b 522 1154 450 1121 481 1154 b 588 1110 551 1154 581 1135 l 640 938 b 644 915 643 929 644 921 b 586 857 644 878 613 857 b 533 893 563 857 544 869 m 807 392 b 743 331 807 356 781 331 l 215 331 b 482 114 236 203 340 114 b 643 167 539 114 606 139 b 731 168 671 188 707 188 b 733 79 763 140 764 103 b 482 -6 671 29 567 -6 b 86 379 250 -6 86 154 b 461 765 86 606 242 765 b 807 392 678 765 807 611 m 461 646 b 217 442 324 646 238 563 l 679 442 b 461 646 663 561 586 646 "},"ë":{"ha":863,"x_min":0,"x_max":0,"o":"m 293 876 b 208 960 246 876 208 913 b 293 1043 208 1004 246 1043 b 376 960 338 1043 376 1004 b 293 876 376 913 338 876 m 601 876 b 518 960 554 876 518 913 b 601 1043 518 1004 554 1043 b 685 960 646 1043 685 1004 b 601 876 685 913 646 876 m 807 392 b 743 331 807 356 781 331 l 215 331 b 482 114 236 203 340 114 b 643 167 539 114 606 139 b 731 168 671 188 707 188 b 733 79 763 140 764 103 b 482 -6 671 29 567 -6 b 86 379 250 -6 86 154 b 461 765 86 606 242 765 b 807 392 678 765 807 611 m 461 646 b 217 442 324 646 238 563 l 679 442 b 461 646 663 561 586 646 "},"ė":{"ha":863,"x_min":0,"x_max":0,"o":"m 447 883 b 356 975 397 883 356 925 b 447 1067 356 1025 397 1067 b 539 975 497 1067 539 1025 b 447 883 539 925 497 883 m 807 392 b 743 331 807 356 781 331 l 215 331 b 482 114 236 203 340 114 b 643 167 539 114 606 139 b 731 168 671 188 707 188 b 733 79 763 140 764 103 b 482 -6 671 29 567 -6 b 86 379 250 -6 86 154 b 461 765 86 606 242 765 b 807 392 678 765 807 611 m 461 646 b 217 442 324 646 238 563 l 679 442 b 461 646 663 561 586 646 "},"ẹ":{"ha":863,"x_min":0,"x_max":0,"o":"m 807 392 b 743 331 807 356 781 331 l 215 331 b 482 114 236 203 340 114 b 643 167 539 114 606 139 b 731 168 671 188 707 188 b 733 79 763 140 764 103 b 482 -6 671 29 567 -6 b 86 379 250 -6 86 154 b 461 765 86 606 242 765 b 807 392 678 765 807 611 m 461 646 b 217 442 324 646 238 563 l 679 442 b 461 646 663 561 586 646 m 447 -128 b 539 -219 497 -128 539 -169 b 447 -311 539 -269 497 -311 b 356 -219 397 -311 356 -269 b 447 -128 356 -169 397 -128 "},"è":{"ha":863,"x_min":0,"x_max":0,"o":"m 258 1033 b 240 1082 246 1046 240 1063 b 310 1154 240 1122 269 1154 b 361 1133 329 1154 346 1147 l 496 997 b 514 950 508 985 514 969 b 443 879 514 908 483 879 b 394 899 424 879 407 885 m 807 392 b 743 331 807 356 781 331 l 215 331 b 482 114 236 203 340 114 b 643 167 539 114 606 139 b 731 168 671 188 707 188 b 733 79 763 140 764 103 b 482 -6 671 29 567 -6 b 86 379 250 -6 86 154 b 461 765 86 606 242 765 b 807 392 678 765 807 611 m 461 646 b 217 442 324 646 238 563 l 679 442 b 461 646 663 561 586 646 "},"ẻ":{"ha":863,"x_min":0,"x_max":0,"o":"m 363 1075 b 311 1124 335 1075 311 1090 b 333 1172 311 1143 319 1161 b 471 1218 369 1201 413 1218 b 640 1064 571 1218 640 1151 b 483 922 642 971 569 933 l 510 925 b 447 835 510 863 482 835 b 385 897 413 835 385 863 l 385 928 b 440 996 385 965 403 988 l 476 1004 b 533 1060 508 1011 533 1031 b 474 1113 533 1096 508 1113 b 408 1090 447 1113 422 1101 b 363 1075 397 1081 378 1075 m 807 392 b 743 331 807 356 781 331 l 215 331 b 482 114 236 203 340 114 b 643 167 539 114 606 139 b 731 168 671 188 707 188 b 733 79 763 140 764 103 b 482 -6 671 29 567 -6 b 86 379 250 -6 86 154 b 461 765 86 606 242 765 b 807 392 678 765 807 611 m 461 646 b 217 442 324 646 238 563 l 679 442 b 461 646 663 561 586 646 "},"ȇ":{"ha":863,"x_min":0,"x_max":0,"o":"m 288 840 b 221 911 247 840 221 871 b 447 1085 221 1010 322 1085 b 672 911 571 1085 672 1010 b 607 840 672 871 647 840 b 539 897 571 840 539 863 b 447 971 539 940 504 971 b 354 897 403 971 354 940 b 288 840 354 863 321 840 m 807 392 b 743 331 807 356 781 331 l 215 331 b 482 114 236 203 340 114 b 643 167 539 114 606 139 b 731 168 671 188 707 188 b 733 79 763 140 764 103 b 482 -6 671 29 567 -6 b 86 379 250 -6 86 154 b 461 765 86 606 242 765 b 807 392 678 765 807 611 m 461 646 b 217 442 324 646 238 563 l 679 442 b 461 646 663 561 586 646 "},"ē":{"ha":863,"x_min":0,"x_max":0,"o":"m 272 899 b 201 963 232 899 201 921 b 272 1024 201 1003 232 1024 l 619 1024 b 692 963 660 1024 692 1003 b 619 899 692 921 660 899 l 272 899 m 807 392 b 743 331 807 356 781 331 l 215 331 b 482 114 236 203 340 114 b 643 167 539 114 606 139 b 731 168 671 188 707 188 b 733 79 763 140 764 103 b 482 -6 671 29 567 -6 b 86 379 250 -6 86 154 b 461 765 86 606 242 765 b 807 392 678 765 807 611 m 461 646 b 217 442 324 646 238 563 l 679 442 b 461 646 663 561 586 646 "},"ę":{"ha":863,"x_min":0,"x_max":0,"o":"m 807 392 b 743 331 807 356 781 331 l 215 331 b 482 114 236 203 340 114 b 544 122 503 114 524 117 b 565 129 551 125 558 128 b 643 167 596 139 624 153 b 731 168 671 188 707 188 b 733 79 763 140 764 103 b 642 28 708 58 676 42 b 558 -67 631 -4 601 -36 b 544 -94 549 -75 544 -86 b 576 -126 544 -112 558 -126 b 593 -121 583 -126 589 -125 l 636 -89 b 679 -75 649 -81 663 -75 b 750 -146 721 -75 750 -106 b 725 -203 750 -169 742 -187 l 672 -237 b 576 -268 643 -258 611 -268 b 403 -94 483 -268 403 -190 b 429 -3 403 -60 413 -31 b 86 379 225 19 86 172 b 461 765 86 606 242 765 b 807 392 678 765 807 611 m 461 646 b 217 442 324 646 238 563 l 679 442 b 461 646 663 561 586 646 "},"ẽ":{"ha":863,"x_min":0,"x_max":0,"o":"m 206 871 b 193 956 179 883 172 925 b 372 1050 236 1018 300 1050 b 508 1008 432 1050 476 1025 b 592 976 550 985 567 976 b 647 1000 615 976 635 988 b 729 1019 674 1026 694 1040 b 736 929 757 1003 760 958 b 596 864 701 886 653 864 b 454 907 533 864 488 889 b 363 939 414 929 385 939 b 296 901 336 939 318 932 b 206 871 274 871 240 854 m 807 392 b 743 331 807 356 781 331 l 215 331 b 482 114 236 203 340 114 b 643 167 539 114 606 139 b 731 168 671 188 707 188 b 733 79 763 140 764 103 b 482 -6 671 29 567 -6 b 86 379 250 -6 86 154 b 461 765 86 606 242 765 b 807 392 678 765 807 611 m 461 646 b 217 442 324 646 238 563 l 679 442 b 461 646 663 561 586 646 "},"ə":{"ha":863,"x_min":0,"x_max":0,"o":"m 381 765 b 776 381 613 765 776 606 b 401 -6 776 154 621 -6 b 56 368 185 -6 56 149 b 119 429 56 404 82 429 l 647 429 b 381 646 626 557 522 646 b 219 593 324 646 257 621 b 132 592 192 572 156 572 b 129 681 100 619 99 657 b 381 765 192 731 296 765 m 401 114 b 646 318 539 114 625 197 l 183 318 b 401 114 200 199 276 114 "},"f":{"ha":510,"x_min":0,"x_max":0,"o":"m 453 957 b 281 769 349 957 281 882 l 281 732 l 422 732 b 488 671 461 732 488 707 b 422 613 488 638 461 613 l 281 613 l 281 71 b 207 0 281 28 253 0 b 139 71 171 0 139 28 l 139 613 l 79 613 b 14 671 40 613 14 638 b 79 732 14 707 40 732 l 139 732 l 139 756 b 453 1085 139 954 267 1085 b 524 1021 493 1085 524 1057 b 453 957 524 985 493 957 "},"g":{"ha":938,"x_min":0,"x_max":0,"o":"m 469 765 b 851 379 692 765 850 606 l 851 79 b 467 -315 851 -140 694 -315 b 136 -162 335 -315 215 -262 b 150 -74 111 -132 119 -94 b 246 -90 183 -51 224 -61 b 469 -190 296 -154 372 -190 b 715 89 603 -190 715 -92 l 715 157 b 442 -6 658 56 561 -6 b 86 379 233 -6 86 154 b 469 765 86 606 244 765 m 469 119 b 715 379 614 119 715 226 b 469 640 715 532 614 640 b 222 379 325 640 222 532 b 469 119 222 226 325 119 "},"ğ":{"ha":938,"x_min":0,"x_max":0,"o":"m 469 840 b 243 1014 344 840 243 915 b 310 1085 243 1054 269 1085 b 376 1028 343 1085 376 1063 b 469 954 376 985 425 954 b 561 1028 526 954 561 985 b 629 1085 561 1063 593 1085 b 694 1014 669 1085 694 1054 b 469 840 694 915 593 840 m 469 765 b 851 379 692 765 850 606 l 851 79 b 467 -315 851 -140 694 -315 b 136 -162 335 -315 215 -262 b 150 -74 111 -132 119 -94 b 246 -90 183 -51 224 -61 b 469 -190 296 -154 372 -190 b 715 89 603 -190 715 -92 l 715 157 b 442 -6 658 56 561 -6 b 86 379 233 -6 86 154 b 469 765 86 606 244 765 m 469 119 b 715 379 614 119 715 226 b 469 640 715 532 614 640 b 222 379 325 640 222 532 b 469 119 222 226 325 119 "},"ǧ":{"ha":938,"x_min":0,"x_max":0,"o":"m 278 982 b 244 1042 256 999 244 1018 b 360 1063 244 1079 296 1107 l 469 989 l 579 1063 b 694 1042 649 1110 694 1079 b 661 982 694 1018 683 999 l 507 879 b 469 868 494 871 483 868 b 433 879 457 868 444 871 l 278 982 m 469 765 b 851 379 692 765 850 606 l 851 79 b 467 -315 851 -140 694 -315 b 136 -162 335 -315 215 -262 b 150 -74 111 -132 119 -94 b 246 -90 183 -51 224 -61 b 469 -190 296 -154 372 -190 b 715 89 603 -190 715 -92 l 715 157 b 442 -6 658 56 561 -6 b 86 379 233 -6 86 154 b 469 765 86 606 244 765 m 469 119 b 715 379 614 119 715 226 b 469 640 715 532 614 640 b 222 379 325 640 222 532 b 469 119 222 226 325 119 "},"ĝ":{"ha":938,"x_min":0,"x_max":0,"o":"m 315 854 b 244 911 275 854 244 878 b 278 972 244 935 256 956 l 433 1074 b 469 1085 444 1081 457 1085 b 507 1074 483 1085 494 1082 l 661 972 b 694 911 683 956 694 935 b 625 854 694 878 665 854 b 579 869 607 854 594 858 l 469 947 l 360 869 b 315 854 346 858 332 854 m 469 765 b 851 379 692 765 850 606 l 851 79 b 467 -315 851 -140 694 -315 b 136 -162 335 -315 215 -262 b 150 -74 111 -132 119 -94 b 246 -90 183 -51 224 -61 b 469 -190 296 -154 372 -190 b 715 89 603 -190 715 -92 l 715 157 b 442 -6 658 56 561 -6 b 86 379 233 -6 86 154 b 469 765 86 606 244 765 m 469 119 b 715 379 614 119 715 226 b 469 640 715 532 614 640 b 222 379 325 640 222 532 b 469 119 222 226 325 119 "},"ģ":{"ha":938,"x_min":0,"x_max":0,"o":"m 478 871 b 369 1004 407 871 371 922 b 528 1282 368 1122 461 1282 b 563 1246 550 1282 563 1265 b 499 1097 563 1192 499 1165 b 571 958 499 1035 571 1026 b 478 871 571 908 535 871 m 469 765 b 851 379 692 765 850 606 l 851 79 b 467 -315 851 -140 694 -315 b 136 -162 335 -315 215 -262 b 150 -74 111 -132 119 -94 b 246 -90 183 -51 224 -61 b 469 -190 296 -154 372 -190 b 715 89 603 -190 715 -92 l 715 157 b 442 -6 658 56 561 -6 b 86 379 233 -6 86 154 b 469 765 86 606 244 765 m 469 119 b 715 379 614 119 715 226 b 469 640 715 532 614 640 b 222 379 325 640 222 532 b 469 119 222 226 325 119 "},"ġ":{"ha":938,"x_min":0,"x_max":0,"o":"m 469 883 b 378 975 419 883 378 925 b 469 1067 378 1025 419 1067 b 561 975 519 1067 561 1025 b 469 883 561 925 519 883 m 469 765 b 851 379 692 765 850 606 l 851 79 b 467 -315 851 -140 694 -315 b 136 -162 335 -315 215 -262 b 150 -74 111 -132 119 -94 b 246 -90 183 -51 224 -61 b 469 -190 296 -154 372 -190 b 715 89 603 -190 715 -92 l 715 157 b 442 -6 658 56 561 -6 b 86 379 233 -6 86 154 b 469 765 86 606 244 765 m 469 119 b 715 379 614 119 715 226 b 469 640 715 532 614 640 b 222 379 325 640 222 532 b 469 119 222 226 325 119 "},"h":{"ha":949,"x_min":0,"x_max":0,"o":"m 503 767 b 838 411 693 767 838 642 l 838 69 b 767 -1 838 29 807 -1 b 696 69 726 -1 696 29 l 696 411 b 475 639 696 568 601 639 b 267 461 357 639 267 563 l 267 69 b 196 -1 267 28 238 -1 b 125 69 154 -1 125 28 l 125 1014 b 196 1085 125 1056 154 1085 b 267 1014 238 1085 267 1056 l 267 674 b 503 767 325 732 408 767 "},"ħ":{"ha":949,"x_min":0,"x_max":0,"o":"m 503 767 b 838 411 693 767 838 642 l 838 69 b 767 -1 838 29 807 -1 b 696 69 726 -1 696 29 l 696 411 b 475 639 696 568 601 639 b 267 461 357 639 267 563 l 267 69 b 196 -1 267 28 238 -1 b 125 69 154 -1 125 28 l 125 835 l 67 835 b -4 897 25 835 -4 858 b 67 960 -4 936 25 960 l 125 960 l 125 1014 b 196 1085 125 1056 154 1085 b 267 1014 238 1085 267 1056 l 267 960 l 514 960 b 586 897 556 960 586 936 b 514 835 586 858 556 835 l 267 835 l 267 674 b 503 767 325 732 408 767 "},"ĥ":{"ha":949,"x_min":0,"x_max":0,"o":"m 196 1272 l 86 1194 b 42 1179 72 1183 58 1179 b -29 1236 1 1179 -29 1203 b 4 1297 -29 1260 -18 1281 l 160 1399 b 196 1410 171 1406 183 1410 b 233 1399 210 1410 221 1407 l 388 1297 b 421 1236 410 1281 421 1260 b 351 1179 421 1203 392 1179 b 306 1194 333 1179 321 1183 m 503 767 b 838 411 693 767 838 642 l 838 69 b 767 -1 838 29 807 -1 b 696 69 726 -1 696 29 l 696 411 b 475 639 696 568 601 639 b 267 461 357 639 267 563 l 267 69 b 196 -1 267 28 238 -1 b 125 69 154 -1 125 28 l 125 1014 b 196 1085 125 1056 154 1085 b 267 1014 238 1085 267 1056 l 267 674 b 503 767 325 732 408 767 "},"i":{"ha":419,"x_min":0,"x_max":0,"o":"m 210 1067 b 301 975 260 1067 301 1025 b 210 883 301 925 260 883 b 118 975 160 883 118 925 b 210 1067 118 1025 160 1067 m 139 689 b 210 760 139 731 168 760 b 281 689 251 760 281 731 l 281 71 b 210 0 281 29 251 0 b 139 71 168 0 139 29 l 139 689 "},"ı":{"ha":419,"x_min":0,"x_max":0,"o":"m 139 689 b 210 760 139 731 168 760 b 281 689 251 760 281 731 l 281 71 b 210 0 281 29 251 0 b 139 71 168 0 139 29 l 139 689 "},"í":{"ha":419,"x_min":0,"x_max":0,"o":"m 297 1133 b 347 1154 311 1147 329 1154 b 418 1082 389 1154 418 1122 b 399 1033 418 1063 413 1046 l 264 899 b 215 879 250 885 235 879 b 144 950 174 879 144 908 b 161 997 144 969 150 985 l 297 1133 m 139 689 b 210 760 139 731 168 760 b 281 689 251 760 281 731 l 281 71 b 210 0 281 29 251 0 b 139 71 168 0 139 29 l 139 689 "},"ĭ":{"ha":419,"x_min":0,"x_max":0,"o":"m 65 1085 b 125 1028 96 1085 125 1063 b 210 954 125 985 169 954 b 292 1028 260 954 292 985 b 353 1085 292 1063 321 1085 b 411 1014 389 1085 411 1054 b 210 840 411 915 321 840 b 6 1014 97 840 6 915 b 65 1085 6 1054 29 1085 m 139 689 b 210 760 139 731 168 760 b 281 689 251 760 281 731 l 281 71 b 210 0 281 29 251 0 b 139 71 168 0 139 29 l 139 689 "},"î":{"ha":419,"x_min":0,"x_max":0,"o":"m 111 869 b 71 854 99 858 86 854 b 7 911 35 854 7 878 b 36 972 7 935 17 956 l 176 1074 b 210 1085 186 1081 199 1085 b 243 1074 222 1085 232 1082 l 382 972 b 411 911 401 956 411 935 b 349 854 411 878 386 854 b 308 869 333 854 322 858 l 210 947 l 111 869 m 139 689 b 210 760 139 731 168 760 b 281 689 251 760 281 731 l 281 71 b 210 0 281 29 251 0 b 139 71 168 0 139 29 l 139 689 "},"ȉ":{"ha":419,"x_min":0,"x_max":0,"o":"m 204 938 b 207 915 206 929 207 921 b 150 857 207 878 176 857 b 96 893 125 857 108 869 l 19 1057 b 13 1083 14 1067 14 1076 b 85 1154 13 1121 44 1154 b 150 1110 114 1154 143 1135 m 403 938 b 407 915 406 929 407 921 b 349 857 407 878 375 857 b 296 893 325 857 307 869 l 218 1057 b 213 1083 214 1067 213 1076 b 285 1154 213 1121 243 1154 b 350 1110 314 1154 343 1135 m 139 689 b 210 760 139 731 168 760 b 281 689 251 760 281 731 l 281 71 b 210 0 281 29 251 0 b 139 71 168 0 139 29 l 139 689 "},"ï":{"ha":419,"x_min":0,"x_max":0,"o":"m 69 1085 b 153 1001 114 1085 153 1046 b 69 918 153 954 114 918 b -15 1001 22 918 -15 954 b 69 1085 -15 1046 22 1085 m 350 1085 b 433 1001 394 1085 433 1046 b 350 918 433 954 394 918 b 267 1001 303 918 267 954 b 350 1085 267 1046 303 1085 m 139 689 b 210 760 139 731 168 760 b 281 689 251 760 281 731 l 281 71 b 210 0 281 29 251 0 b 139 71 168 0 139 29 l 139 689 "},"ị":{"ha":419,"x_min":0,"x_max":0,"o":"m 210 1067 b 301 975 260 1067 301 1025 b 210 883 301 925 260 883 b 118 975 160 883 118 925 b 210 1067 118 1025 160 1067 m 139 689 b 210 760 139 731 168 760 b 281 689 251 760 281 731 l 281 71 b 210 0 281 29 251 0 b 139 71 168 0 139 29 l 139 689 m 210 -128 b 301 -219 260 -128 301 -169 b 210 -311 301 -269 260 -311 b 118 -219 160 -311 118 -269 b 210 -128 118 -169 160 -128 "},"ì":{"ha":419,"x_min":0,"x_max":0,"o":"m 21 1033 b 3 1082 8 1046 3 1063 b 72 1154 3 1122 32 1154 b 124 1133 92 1154 108 1147 l 258 997 b 276 950 271 985 276 969 b 206 879 276 908 246 879 b 157 899 186 879 169 885 l 21 1033 m 139 689 b 210 760 139 731 168 760 b 281 689 251 760 281 731 l 281 71 b 210 0 281 29 251 0 b 139 71 168 0 139 29 l 139 689 "},"ỉ":{"ha":419,"x_min":0,"x_max":0,"o":"m 239 1004 b 296 1060 271 1011 296 1031 b 236 1113 296 1096 271 1113 b 171 1090 210 1113 185 1101 b 125 1075 160 1081 140 1075 b 74 1124 97 1075 74 1090 b 96 1172 74 1143 82 1161 b 233 1218 132 1201 175 1218 b 403 1064 333 1218 403 1151 b 246 922 404 971 332 933 l 272 925 b 210 835 272 863 244 835 b 147 897 175 835 147 863 l 147 928 b 203 996 147 965 165 988 l 239 1004 m 139 689 b 210 760 139 731 168 760 b 281 689 251 760 281 731 l 281 71 b 210 0 281 29 251 0 b 139 71 168 0 139 29 l 139 689 "},"ȋ":{"ha":419,"x_min":0,"x_max":0,"o":"m 65 840 b 6 911 29 840 6 871 b 210 1085 6 1010 97 1085 b 411 911 321 1085 411 1010 b 353 840 411 871 389 840 b 292 897 321 840 292 863 b 210 971 292 940 261 971 b 125 897 169 971 125 940 b 65 840 125 863 96 840 m 139 689 b 210 760 139 731 168 760 b 281 689 251 760 281 731 l 281 71 b 210 0 281 29 251 0 b 139 71 168 0 139 29 l 139 689 "},"ĳ":{"ha":818,"x_min":0,"x_max":0,"o":"m 210 1067 b 301 975 260 1067 301 1025 b 210 883 301 925 260 883 b 118 975 160 883 118 925 b 210 1067 118 1025 160 1067 m 608 1067 b 700 975 658 1067 700 1025 b 608 883 700 925 658 883 b 517 975 558 883 517 925 b 608 1067 517 1025 558 1067 m 139 689 b 210 760 139 731 168 760 b 281 689 251 760 281 731 l 281 71 b 210 0 281 29 251 0 b 139 71 168 0 139 29 l 139 689 m 679 3 b 350 -325 679 -189 543 -325 b 281 -254 310 -325 281 -296 b 350 -183 281 -212 310 -183 b 538 3 460 -183 538 -106 l 538 689 b 608 760 538 731 567 760 b 679 689 650 760 679 731 l 679 3 "},"ī":{"ha":419,"x_min":0,"x_max":0,"o":"m 347 1024 b 406 963 379 1024 406 1003 b 347 899 406 921 379 899 l 69 899 b 13 963 38 899 13 921 b 69 1024 13 1003 38 1024 l 347 1024 m 139 689 b 210 760 139 731 168 760 b 281 689 251 760 281 731 l 281 71 b 210 0 281 29 251 0 b 139 71 168 0 139 29 l 139 689 "},"į":{"ha":419,"x_min":0,"x_max":0,"o":"m 210 883 b 118 975 160 883 118 925 b 210 1067 118 1025 160 1067 b 301 975 260 1067 301 1025 b 210 883 301 925 260 883 m 313 -190 b 383 -261 354 -190 383 -221 b 358 -318 383 -285 375 -303 l 306 -353 b 210 -383 276 -374 244 -383 b 36 -210 117 -383 36 -306 b 108 -68 36 -153 61 -107 b 147 -24 128 -54 140 -37 b 178 7 154 -10 164 0 b 139 71 154 18 139 42 l 139 689 b 210 760 139 731 168 760 b 281 689 251 760 281 731 l 281 71 b 242 7 281 40 265 18 b 281 -56 264 -4 279 -28 b 192 -182 281 -99 250 -140 b 178 -210 182 -190 178 -201 b 210 -242 178 -228 192 -242 b 226 -236 217 -242 222 -240 l 269 -204 b 313 -190 282 -196 296 -190 "},"ĩ":{"ha":419,"x_min":0,"x_max":0,"o":"m 122 1076 b 244 1015 186 1076 221 1036 b 292 990 267 996 279 990 b 322 1011 304 990 313 997 b 406 1043 343 1040 375 1056 b 433 960 440 1026 453 992 b 307 872 397 899 357 872 b 186 929 258 872 221 896 b 133 963 164 950 151 963 b 89 924 114 963 103 947 b 8 894 72 896 39 882 b -19 975 -24 908 -37 943 b 122 1076 19 1044 65 1076 m 139 689 b 210 760 139 731 168 760 b 281 689 251 760 281 731 l 281 71 b 210 0 281 29 251 0 b 139 71 168 0 139 29 l 139 689 "},"j":{"ha":399,"x_min":0,"x_max":0,"o":"m 189 1067 b 281 975 239 1067 281 1025 b 189 883 281 925 239 883 b 97 975 139 883 97 925 b 189 1067 97 1025 139 1067 m 260 3 b -69 -325 260 -189 124 -325 b -139 -254 -110 -325 -139 -296 b -69 -183 -139 -212 -110 -183 b 118 3 40 -183 118 -106 l 118 689 b 189 760 118 731 147 760 b 260 689 231 760 260 731 l 260 3 "},"ȷ":{"ha":399,"x_min":0,"x_max":0,"o":"m 260 3 b -69 -325 260 -189 124 -325 b -139 -254 -110 -325 -139 -296 b -69 -183 -139 -212 -110 -183 b 118 3 40 -183 118 -106 l 118 689 b 189 760 118 731 147 760 b 260 689 231 760 260 731 l 260 3 "},"ĵ":{"ha":399,"x_min":0,"x_max":0,"o":"m 90 869 b 50 854 78 858 65 854 b -14 911 14 854 -14 878 b 15 972 -14 935 -4 956 l 156 1074 b 189 1085 165 1081 178 1085 b 222 1074 201 1085 211 1082 l 361 972 b 390 911 381 956 390 935 b 328 854 390 878 365 854 b 288 869 313 854 301 858 l 189 947 l 90 869 m 260 3 b -69 -325 260 -189 124 -325 b -139 -254 -110 -325 -139 -296 b -69 -183 -139 -212 -110 -183 b 118 3 40 -183 118 -106 l 118 689 b 189 760 118 731 147 760 b 260 689 231 760 260 731 l 260 3 "},"k":{"ha":790,"x_min":0,"x_max":0,"o":"m 699 100 b 689 7 722 71 719 32 b 594 15 658 -18 618 -14 l 331 342 l 261 281 l 261 68 b 193 0 261 28 233 0 b 125 68 153 0 125 28 l 125 1017 b 193 1085 125 1057 153 1085 b 261 1017 233 1085 261 1057 l 261 451 l 599 753 b 689 749 626 778 664 776 b 685 658 714 721 713 683 l 429 431 l 699 100 "},"ķ":{"ha":790,"x_min":0,"x_max":0,"o":"m 699 100 b 689 7 722 71 719 32 b 594 15 658 -18 618 -14 l 331 342 l 261 281 l 261 68 b 193 0 261 28 233 0 b 125 68 153 0 125 28 l 125 1017 b 193 1085 125 1057 153 1085 b 261 1017 233 1085 261 1057 l 261 451 l 599 753 b 689 749 626 778 664 776 b 685 658 714 721 713 683 l 429 431 l 699 100 m 382 -56 b 568 -199 493 -56 568 -115 b 388 -343 568 -289 490 -343 b 214 -233 311 -343 214 -310 b 263 -187 214 -206 235 -187 b 399 -254 319 -187 314 -254 b 472 -206 451 -254 472 -242 b 368 -149 472 -169 439 -149 b 301 -104 329 -149 301 -133 b 382 -56 301 -72 329 -56 "},"ĸ":{"ha":790,"x_min":0,"x_max":0,"o":"m 699 100 b 689 7 722 71 719 32 b 594 15 658 -18 618 -14 l 331 342 l 261 281 l 261 68 b 193 0 261 28 233 0 b 125 68 153 0 125 28 l 125 692 b 193 760 125 732 153 760 b 261 692 233 760 261 732 l 261 451 l 599 753 b 689 749 626 778 664 776 b 685 658 714 721 713 683 l 429 431 l 699 100 "},"l":{"ha":417,"x_min":0,"x_max":0,"o":"m 97 1015 b 167 1085 97 1056 126 1085 b 236 1015 207 1085 236 1056 l 236 257 b 306 139 236 188 265 139 l 340 139 b 403 69 376 139 403 110 b 308 0 403 29 364 0 l 306 0 b 97 257 183 0 97 107 l 97 1015 "},"ĺ":{"ha":417,"x_min":0,"x_max":0,"o":"m 254 1292 b 304 1313 268 1306 286 1313 b 375 1240 346 1313 375 1281 b 356 1192 375 1221 369 1206 l 221 1057 b 172 1038 207 1043 192 1038 b 101 1108 131 1038 101 1067 b 118 1156 101 1128 107 1143 l 254 1292 m 97 876 b 167 946 97 917 126 946 b 236 876 207 946 236 917 l 236 257 b 306 139 236 188 265 139 l 340 139 b 403 69 376 139 403 110 b 308 0 403 29 364 0 l 306 0 b 97 257 183 0 97 107 l 97 876 "},"ľ":{"ha":557,"x_min":0,"x_max":0,"o":"m 517 1096 b 604 965 576 1096 613 1035 b 419 699 593 835 474 692 b 385 736 396 701 382 713 b 471 903 390 785 463 836 b 449 1038 478 961 449 979 b 517 1096 449 1074 479 1096 m 97 1015 b 167 1085 97 1056 126 1085 b 236 1015 207 1085 236 1056 l 236 257 b 306 139 236 188 265 139 l 340 139 b 403 69 376 139 403 110 b 308 0 403 29 364 0 l 306 0 b 97 257 183 0 97 107 l 97 1015 "},"ļ":{"ha":417,"x_min":0,"x_max":0,"o":"m 97 1015 b 167 1085 97 1056 126 1085 b 236 1015 207 1085 236 1056 l 236 257 b 306 139 236 188 265 139 l 340 139 b 403 69 376 139 403 110 b 308 0 403 29 364 0 l 306 0 b 97 257 183 0 97 107 l 97 1015 m 308 -56 b 494 -199 419 -56 494 -115 b 314 -343 494 -289 417 -343 b 140 -233 238 -343 140 -310 b 189 -187 140 -206 161 -187 b 325 -254 246 -187 240 -254 b 399 -206 378 -254 399 -242 b 294 -149 399 -169 365 -149 b 228 -104 256 -149 228 -133 b 308 -56 228 -72 256 -56 "},"ŀ":{"ha":524,"x_min":0,"x_max":0,"o":"m 97 1015 b 167 1085 97 1056 126 1085 b 236 1015 207 1085 236 1056 l 236 257 b 306 139 236 188 265 139 l 340 139 b 403 69 376 139 403 110 b 308 0 403 29 364 0 l 306 0 b 97 257 183 0 97 107 l 97 1015 m 442 606 b 538 508 494 606 538 561 b 442 413 538 457 496 413 b 346 508 389 413 346 456 b 442 606 346 563 390 606 "},"ł":{"ha":489,"x_min":0,"x_max":0,"o":"m 325 142 b 396 71 367 142 396 111 b 325 0 396 32 365 0 l 222 0 b 151 71 182 0 151 32 l 151 367 l 135 349 b 85 328 119 333 104 328 b 14 399 47 328 14 358 b 33 449 14 418 21 435 l 151 565 l 151 997 b 222 1069 151 1038 182 1069 b 293 997 261 1069 293 1038 l 293 706 l 326 739 b 376 760 342 753 357 760 b 447 689 415 760 447 728 b 428 639 447 669 440 653 l 293 507 l 293 142 l 325 142 "},"m":{"ha":1303,"x_min":0,"x_max":0,"o":"m 924 767 b 1193 467 1082 767 1193 658 l 1193 69 b 1122 -1 1193 28 1164 -1 b 1051 69 1081 -1 1051 28 l 1051 467 b 896 639 1051 583 988 639 b 731 461 799 639 731 565 l 731 69 b 660 -1 731 28 701 -1 b 589 69 618 -1 589 28 l 589 467 b 433 639 589 583 525 639 b 267 461 336 639 267 565 l 267 69 b 196 -1 267 28 238 -1 b 125 69 154 -1 125 28 l 125 688 b 196 758 125 729 154 758 b 267 690 236 758 265 731 b 461 767 315 739 383 767 b 681 657 556 767 632 728 b 924 767 735 725 819 767 "},"n":{"ha":947,"x_min":0,"x_max":0,"o":"m 503 767 b 838 411 693 767 838 642 l 838 69 b 767 -1 838 29 807 -1 b 696 69 726 -1 696 29 l 696 411 b 475 639 696 568 601 639 b 267 461 357 639 267 563 l 267 69 b 196 -1 267 28 238 -1 b 125 69 154 -1 125 28 l 125 689 b 196 760 125 731 154 760 b 267 689 238 760 267 731 l 267 674 b 503 767 325 732 408 767 "},"ń":{"ha":947,"x_min":0,"x_max":0,"o":"m 479 879 b 408 950 438 879 408 908 b 425 997 408 969 414 985 l 561 1133 b 611 1154 575 1147 593 1154 b 682 1082 653 1154 682 1122 b 663 1033 682 1063 676 1046 l 528 899 b 479 879 514 885 499 879 m 503 767 b 838 411 693 767 838 642 l 838 69 b 767 -1 838 29 807 -1 b 696 69 726 -1 696 29 l 696 411 b 475 639 696 568 601 639 b 267 461 357 639 267 563 l 267 69 b 196 -1 267 28 238 -1 b 125 69 154 -1 125 28 l 125 689 b 196 760 125 731 154 760 b 267 689 238 760 267 731 l 267 674 b 503 767 325 732 408 767 "},"ň":{"ha":947,"x_min":0,"x_max":0,"o":"m 282 982 b 249 1042 260 999 249 1018 b 364 1063 249 1079 300 1107 l 474 989 l 583 1063 b 699 1042 653 1110 699 1079 b 665 982 699 1018 688 999 l 511 879 b 474 868 499 871 488 868 b 438 879 461 868 449 871 l 282 982 m 503 767 b 838 411 693 767 838 642 l 838 69 b 767 -1 838 29 807 -1 b 696 69 726 -1 696 29 l 696 411 b 475 639 696 568 601 639 b 267 461 357 639 267 563 l 267 69 b 196 -1 267 28 238 -1 b 125 69 154 -1 125 28 l 125 689 b 196 760 125 731 154 760 b 267 689 238 760 267 731 l 267 674 b 503 767 325 732 408 767 "},"ņ":{"ha":947,"x_min":0,"x_max":0,"o":"m 503 767 b 838 411 693 767 838 642 l 838 69 b 767 -1 838 29 807 -1 b 696 69 726 -1 696 29 l 696 411 b 475 639 696 568 601 639 b 267 461 357 639 267 563 l 267 69 b 196 -1 267 28 238 -1 b 125 69 154 -1 125 28 l 125 689 b 196 760 125 731 154 760 b 267 689 238 760 267 731 l 267 674 b 503 767 325 732 408 767 m 474 -56 b 660 -199 585 -56 660 -115 b 479 -343 660 -289 582 -343 b 306 -233 403 -343 306 -310 b 354 -187 306 -206 326 -187 b 490 -254 411 -187 406 -254 b 564 -206 543 -254 564 -242 b 460 -149 564 -169 531 -149 b 393 -104 421 -149 393 -133 b 474 -56 393 -72 421 -56 "},"ŋ":{"ha":935,"x_min":0,"x_max":0,"o":"m 838 176 b 535 -301 838 -140 711 -301 b 289 -153 421 -301 326 -254 b 318 -85 278 -122 290 -94 b 390 -121 346 -74 376 -89 b 521 -183 410 -165 450 -183 b 696 176 629 -183 696 -78 l 696 411 b 475 639 696 544 604 639 b 267 461 353 639 267 565 l 267 69 b 196 -1 267 28 238 -1 b 125 69 154 -1 125 28 l 125 689 b 196 760 125 731 154 760 b 267 689 238 760 267 731 l 267 667 b 503 767 322 729 404 767 b 838 411 699 767 838 619 l 838 176 "},"ñ":{"ha":947,"x_min":0,"x_max":0,"o":"m 232 871 b 219 956 206 883 199 925 b 399 1050 263 1018 326 1050 b 535 1008 458 1050 503 1025 b 618 976 576 985 593 976 b 674 1000 642 976 661 988 b 756 1019 700 1026 721 1040 b 763 929 783 1003 786 958 b 622 864 728 886 679 864 b 481 907 560 864 514 889 b 389 939 440 929 411 939 b 322 901 363 939 344 932 b 232 871 300 871 267 854 m 503 767 b 838 411 693 767 838 642 l 838 69 b 767 -1 838 29 807 -1 b 696 69 726 -1 696 29 l 696 411 b 475 639 696 568 601 639 b 267 461 357 639 267 563 l 267 69 b 196 -1 267 28 238 -1 b 125 69 154 -1 125 28 l 125 689 b 196 760 125 731 154 760 b 267 689 238 760 267 731 l 267 674 b 503 767 325 732 408 767 "},"o":{"ha":938,"x_min":0,"x_max":0,"o":"m 469 765 b 851 379 692 765 850 606 b 469 -6 851 154 693 -6 b 86 379 244 -6 86 154 b 469 765 86 606 244 765 m 469 640 b 222 379 325 640 222 532 b 469 119 222 226 325 119 b 715 379 614 119 715 226 b 469 640 715 532 614 640 "},"ó":{"ha":938,"x_min":0,"x_max":0,"o":"m 557 1133 b 607 1154 571 1147 589 1154 b 678 1082 649 1154 678 1122 b 658 1033 678 1063 672 1046 l 524 899 b 475 879 510 885 494 879 b 404 950 433 879 404 908 b 421 997 404 969 410 985 l 557 1133 m 469 765 b 851 379 692 765 850 606 b 469 -6 851 154 693 -6 b 86 379 244 -6 86 154 b 469 765 86 606 244 765 m 469 640 b 222 379 325 640 222 532 b 469 119 222 226 325 119 b 715 379 614 119 715 226 b 469 640 715 532 614 640 "},"ŏ":{"ha":938,"x_min":0,"x_max":0,"o":"m 310 1085 b 376 1028 343 1085 376 1063 b 469 954 376 985 425 954 b 561 1028 526 954 561 985 b 629 1085 561 1063 593 1085 b 694 1014 669 1085 694 1054 b 469 840 694 915 593 840 b 243 1014 344 840 243 915 b 310 1085 243 1054 269 1085 m 469 765 b 851 379 692 765 850 606 b 469 -6 851 154 693 -6 b 86 379 244 -6 86 154 b 469 765 86 606 244 765 m 469 640 b 222 379 325 640 222 532 b 469 119 222 226 325 119 b 715 379 614 119 715 226 b 469 640 715 532 614 640 "},"ô":{"ha":938,"x_min":0,"x_max":0,"o":"m 360 869 b 315 854 346 858 332 854 b 244 911 275 854 244 878 b 278 972 244 935 256 956 l 433 1074 b 469 1085 444 1081 457 1085 b 507 1074 483 1085 494 1082 l 661 972 b 694 911 683 956 694 935 b 625 854 694 878 665 854 b 579 869 607 854 594 858 l 469 947 l 360 869 m 469 765 b 851 379 692 765 850 606 b 469 -6 851 154 693 -6 b 86 379 244 -6 86 154 b 469 765 86 606 244 765 m 469 640 b 222 379 325 640 222 532 b 469 119 222 226 325 119 b 715 379 614 119 715 226 b 469 640 715 532 614 640 "},"ố":{"ha":938,"x_min":0,"x_max":0,"o":"m 701 1333 b 751 1354 715 1347 733 1354 b 822 1282 793 1354 822 1322 b 803 1233 822 1263 817 1246 l 668 1099 b 619 1079 654 1085 639 1079 b 549 1150 578 1079 549 1108 b 565 1197 549 1169 554 1185 l 701 1333 m 360 869 b 315 854 346 858 332 854 b 244 911 275 854 244 878 b 278 972 244 935 256 956 l 433 1074 b 469 1085 444 1081 457 1085 b 507 1074 483 1085 494 1082 l 661 972 b 694 911 683 956 694 935 b 625 854 694 878 665 854 b 579 869 607 854 594 858 l 469 947 l 360 869 m 469 765 b 851 379 692 765 850 606 b 469 -6 851 154 693 -6 b 86 379 244 -6 86 154 b 469 765 86 606 244 765 m 469 640 b 222 379 325 640 222 532 b 469 119 222 226 325 119 b 715 379 614 119 715 226 b 469 640 715 532 614 640 "},"ộ":{"ha":938,"x_min":0,"x_max":0,"o":"m 360 869 b 315 854 346 858 332 854 b 244 911 275 854 244 878 b 278 972 244 935 256 956 l 433 1074 b 469 1085 444 1081 457 1085 b 507 1074 483 1085 494 1082 l 661 972 b 694 911 683 956 694 935 b 625 854 694 878 665 854 b 579 869 607 854 594 858 l 469 947 l 360 869 m 469 765 b 851 379 692 765 850 606 b 469 -6 851 154 693 -6 b 86 379 244 -6 86 154 b 469 765 86 606 244 765 m 469 640 b 222 379 325 640 222 532 b 469 119 222 226 325 119 b 715 379 614 119 715 226 b 469 640 715 532 614 640 m 469 -128 b 561 -219 519 -128 561 -169 b 469 -311 561 -269 519 -311 b 378 -219 419 -311 378 -269 b 469 -128 378 -169 419 -128 "},"ồ":{"ha":938,"x_min":0,"x_max":0,"o":"m 425 1233 b 407 1282 413 1246 407 1263 b 476 1354 407 1322 436 1354 b 528 1333 496 1354 513 1347 l 663 1197 b 681 1150 675 1185 681 1169 b 610 1079 681 1108 650 1079 b 561 1099 590 1079 574 1085 l 425 1233 m 360 869 b 315 854 346 858 332 854 b 244 911 275 854 244 878 b 278 972 244 935 256 956 l 433 1074 b 469 1085 444 1081 457 1085 b 507 1074 483 1085 494 1082 l 661 972 b 694 911 683 956 694 935 b 625 854 694 878 665 854 b 579 869 607 854 594 858 l 469 947 l 360 869 m 469 765 b 851 379 692 765 850 606 b 469 -6 851 154 693 -6 b 86 379 244 -6 86 154 b 469 765 86 606 244 765 m 469 640 b 222 379 325 640 222 532 b 469 119 222 226 325 119 b 715 379 614 119 715 226 b 469 640 715 532 614 640 "},"ổ":{"ha":938,"x_min":0,"x_max":0,"o":"m 650 1204 b 707 1260 682 1211 707 1231 b 647 1313 707 1296 682 1313 b 582 1290 621 1313 596 1301 b 536 1275 571 1281 551 1275 b 485 1324 508 1275 485 1290 b 507 1372 485 1343 493 1361 b 644 1418 543 1401 586 1418 b 814 1264 744 1418 814 1351 b 657 1122 815 1171 743 1133 l 683 1125 b 621 1035 683 1063 656 1035 b 558 1097 586 1035 558 1063 l 558 1128 b 614 1196 558 1165 576 1188 l 650 1204 m 367 869 b 322 854 353 858 339 854 b 251 911 282 854 251 878 b 285 972 251 935 263 956 l 440 1074 b 476 1085 451 1081 464 1085 b 514 1074 490 1085 501 1082 l 668 972 b 701 911 690 956 701 935 b 632 854 701 878 672 854 b 586 869 614 854 601 858 l 476 947 l 367 869 m 469 765 b 851 379 692 765 850 606 b 469 -6 851 154 693 -6 b 86 379 244 -6 86 154 b 469 765 86 606 244 765 m 469 640 b 222 379 325 640 222 532 b 469 119 222 226 325 119 b 715 379 614 119 715 226 b 469 640 715 532 614 640 "},"ỗ":{"ha":938,"x_min":0,"x_max":0,"o":"m 372 1324 b 494 1263 436 1324 471 1283 b 542 1238 517 1243 529 1238 b 572 1258 554 1238 563 1244 b 656 1290 593 1288 625 1303 b 683 1207 690 1274 703 1239 b 557 1119 647 1146 607 1119 b 436 1176 508 1119 471 1143 b 383 1210 414 1197 401 1210 b 339 1171 364 1210 353 1194 b 258 1142 322 1143 289 1129 b 231 1222 226 1156 213 1190 b 372 1324 269 1292 315 1324 m 367 869 b 322 854 353 858 339 854 b 251 911 282 854 251 878 b 285 972 251 935 263 956 l 440 1074 b 476 1085 451 1081 464 1085 b 514 1074 490 1085 501 1082 l 668 972 b 701 911 690 956 701 935 b 632 854 701 878 672 854 b 586 869 614 854 601 858 l 476 947 l 367 869 m 469 765 b 851 379 692 765 850 606 b 469 -6 851 154 693 -6 b 86 379 244 -6 86 154 b 469 765 86 606 244 765 m 469 640 b 222 379 325 640 222 532 b 469 119 222 226 325 119 b 715 379 614 119 715 226 b 469 640 715 532 614 640 "},"ȍ":{"ha":938,"x_min":0,"x_max":0,"o":"m 464 938 b 467 915 465 929 467 921 b 410 857 467 878 436 857 b 356 893 385 857 368 869 l 279 1057 b 272 1083 274 1067 274 1076 b 344 1154 272 1121 304 1154 b 410 1110 374 1154 403 1135 m 663 938 b 667 915 665 929 667 921 b 608 857 667 878 635 857 b 556 893 585 857 567 869 l 478 1057 b 472 1083 474 1067 472 1076 b 544 1154 472 1121 503 1154 b 610 1110 574 1154 603 1135 m 469 765 b 851 379 692 765 850 606 b 469 -6 851 154 693 -6 b 86 379 244 -6 86 154 b 469 765 86 606 244 765 m 469 640 b 222 379 325 640 222 532 b 469 119 222 226 325 119 b 715 379 614 119 715 226 b 469 640 715 532 614 640 "},"ö":{"ha":938,"x_min":0,"x_max":0,"o":"m 315 1043 b 399 960 360 1043 399 1004 b 315 876 399 913 360 876 b 231 960 268 876 231 913 b 315 1043 231 1004 268 1043 m 624 1043 b 707 960 668 1043 707 1004 b 624 876 707 913 668 876 b 540 960 576 876 540 913 b 624 1043 540 1004 576 1043 m 469 765 b 851 379 692 765 850 606 b 469 -6 851 154 693 -6 b 86 379 244 -6 86 154 b 469 765 86 606 244 765 m 469 640 b 222 379 325 640 222 532 b 469 119 222 226 325 119 b 715 379 614 119 715 226 b 469 640 715 532 614 640 "},"ȫ":{"ha":938,"x_min":0,"x_max":0,"o":"m 642 1307 b 714 1246 682 1307 714 1286 b 642 1182 714 1204 682 1182 l 294 1182 b 224 1246 254 1182 224 1204 b 294 1307 224 1286 254 1307 l 642 1307 m 315 1043 b 399 960 360 1043 399 1004 b 315 876 399 913 360 876 b 231 960 268 876 231 913 b 315 1043 231 1004 268 1043 m 624 1043 b 707 960 668 1043 707 1004 b 624 876 707 913 668 876 b 540 960 576 876 540 913 b 624 1043 540 1004 576 1043 m 469 765 b 851 379 692 765 850 606 b 469 -6 851 154 693 -6 b 86 379 244 -6 86 154 b 469 765 86 606 244 765 m 469 640 b 222 379 325 640 222 532 b 469 119 222 226 325 119 b 715 379 614 119 715 226 b 469 640 715 532 614 640 "},"ȱ":{"ha":938,"x_min":0,"x_max":0,"o":"m 642 1278 b 714 1217 682 1278 714 1257 b 642 1153 714 1175 682 1153 l 294 1153 b 224 1217 254 1153 224 1175 b 294 1278 224 1257 254 1278 l 642 1278 m 469 1067 b 561 975 519 1067 561 1025 b 469 883 561 925 519 883 b 378 975 419 883 378 925 b 469 1067 378 1025 419 1067 m 469 765 b 851 379 692 765 850 606 b 469 -6 851 154 693 -6 b 86 379 244 -6 86 154 b 469 765 86 606 244 765 m 469 640 b 222 379 325 640 222 532 b 469 119 222 226 325 119 b 715 379 614 119 715 226 b 469 640 715 532 614 640 "},"ọ":{"ha":938,"x_min":0,"x_max":0,"o":"m 469 765 b 851 379 692 765 850 606 b 469 -6 851 154 693 -6 b 86 379 244 -6 86 154 b 469 765 86 606 244 765 m 469 640 b 222 379 325 640 222 532 b 469 119 222 226 325 119 b 715 379 614 119 715 226 b 469 640 715 532 614 640 m 469 -128 b 561 -219 519 -128 561 -169 b 469 -311 561 -269 519 -311 b 378 -219 419 -311 378 -269 b 469 -128 378 -169 419 -128 "},"ò":{"ha":938,"x_min":0,"x_max":0,"o":"m 281 1033 b 263 1082 268 1046 263 1063 b 332 1154 263 1122 292 1154 b 383 1133 351 1154 368 1147 l 518 997 b 536 950 531 985 536 969 b 465 879 536 908 506 879 b 417 899 446 879 429 885 l 281 1033 m 469 765 b 851 379 692 765 850 606 b 469 -6 851 154 693 -6 b 86 379 244 -6 86 154 b 469 765 86 606 244 765 m 469 640 b 222 379 325 640 222 532 b 469 119 222 226 325 119 b 715 379 614 119 715 226 b 469 640 715 532 614 640 "},"ỏ":{"ha":938,"x_min":0,"x_max":0,"o":"m 499 1004 b 556 1060 531 1011 556 1031 b 496 1113 556 1096 531 1113 b 431 1090 469 1113 444 1101 b 385 1075 419 1081 400 1075 b 333 1124 357 1075 333 1090 b 356 1172 333 1143 342 1161 b 493 1218 392 1201 435 1218 b 663 1064 593 1218 663 1151 b 506 922 664 971 592 933 l 532 925 b 469 835 532 863 504 835 b 407 897 435 835 407 863 l 407 928 b 463 996 407 965 425 988 l 499 1004 m 469 765 b 851 379 692 765 850 606 b 469 -6 851 154 693 -6 b 86 379 244 -6 86 154 b 469 765 86 606 244 765 m 469 640 b 222 379 325 640 222 532 b 469 119 222 226 325 119 b 715 379 614 119 715 226 b 469 640 715 532 614 640 "},"ơ":{"ha":938,"x_min":0,"x_max":0,"o":"m 885 826 b 772 625 885 733 840 657 b 851 379 822 560 851 475 b 469 -6 851 154 693 -6 b 86 379 244 -6 86 154 b 469 765 86 606 244 765 b 632 733 529 765 583 754 l 699 733 b 760 826 732 733 760 771 l 760 853 b 822 922 760 894 785 922 b 885 843 863 922 885 888 l 885 826 m 469 119 b 715 379 614 119 715 226 b 469 640 715 532 614 640 b 222 379 325 640 222 532 b 469 119 222 226 325 119 "},"ớ":{"ha":938,"x_min":0,"x_max":0,"o":"m 475 879 b 404 950 433 879 404 908 b 421 997 404 969 410 985 l 557 1133 b 607 1154 571 1147 589 1154 b 678 1082 649 1154 678 1122 b 658 1033 678 1063 672 1046 l 524 899 b 475 879 510 885 494 879 m 885 826 b 772 625 885 733 840 657 b 851 379 822 560 851 475 b 469 -6 851 154 693 -6 b 86 379 244 -6 86 154 b 469 765 86 606 244 765 b 632 733 529 765 583 754 l 699 733 b 760 826 732 733 760 771 l 760 853 b 822 922 760 894 785 922 b 885 843 863 922 885 888 l 885 826 m 469 119 b 715 379 614 119 715 226 b 469 640 715 532 614 640 b 222 379 325 640 222 532 b 469 119 222 226 325 119 "},"ợ":{"ha":938,"x_min":0,"x_max":0,"o":"m 885 826 b 772 625 885 733 840 657 b 851 379 822 560 851 475 b 469 -6 851 154 693 -6 b 86 379 244 -6 86 154 b 469 765 86 606 244 765 b 632 733 529 765 583 754 l 699 733 b 760 826 732 733 760 771 l 760 853 b 822 922 760 894 785 922 b 885 843 863 922 885 888 l 885 826 m 469 119 b 715 379 614 119 715 226 b 469 640 715 532 614 640 b 222 379 325 640 222 532 b 469 119 222 226 325 119 m 469 -128 b 561 -219 519 -128 561 -169 b 469 -311 561 -269 519 -311 b 378 -219 419 -311 378 -269 b 469 -128 378 -169 419 -128 "},"ờ":{"ha":938,"x_min":0,"x_max":0,"o":"m 281 1033 b 263 1082 268 1046 263 1063 b 332 1154 263 1122 292 1154 b 383 1133 351 1154 368 1147 l 518 997 b 536 950 531 985 536 969 b 465 879 536 908 506 879 b 417 899 446 879 429 885 m 885 826 b 772 625 885 733 840 657 b 851 379 822 560 851 475 b 469 -6 851 154 693 -6 b 86 379 244 -6 86 154 b 469 765 86 606 244 765 b 632 733 529 765 583 754 l 699 733 b 760 826 732 733 760 771 l 760 853 b 822 922 760 894 785 922 b 885 843 863 922 885 888 l 885 826 m 469 119 b 715 379 614 119 715 226 b 469 640 715 532 614 640 b 222 379 325 640 222 532 b 469 119 222 226 325 119 "},"ở":{"ha":938,"x_min":0,"x_max":0,"o":"m 385 1075 b 333 1124 357 1075 333 1090 b 356 1172 333 1143 342 1161 b 493 1218 392 1201 435 1218 b 663 1064 593 1218 663 1151 b 506 922 664 971 592 933 l 532 925 b 469 835 532 863 504 835 b 407 897 435 835 407 863 l 407 928 b 463 996 407 965 425 988 l 499 1004 b 556 1060 531 1011 556 1031 b 496 1113 556 1096 531 1113 b 431 1090 469 1113 444 1101 b 385 1075 419 1081 400 1075 m 885 826 b 772 625 885 733 840 657 b 851 379 822 560 851 475 b 469 -6 851 154 693 -6 b 86 379 244 -6 86 154 b 469 765 86 606 244 765 b 632 733 529 765 583 754 l 699 733 b 760 826 732 733 760 771 l 760 853 b 822 922 760 894 785 922 b 885 843 863 922 885 888 l 885 826 m 469 119 b 715 379 614 119 715 226 b 469 640 715 532 614 640 b 222 379 325 640 222 532 b 469 119 222 226 325 119 "},"ỡ":{"ha":938,"x_min":0,"x_max":0,"o":"m 228 871 b 215 956 201 883 194 925 b 394 1050 258 1018 322 1050 b 531 1008 454 1050 499 1025 b 614 976 572 985 589 976 b 669 1000 638 976 657 988 b 751 1019 696 1026 717 1040 b 758 929 779 1003 782 958 b 618 864 724 886 675 864 b 476 907 556 864 510 889 b 385 939 436 929 407 939 b 318 901 358 939 340 932 b 228 871 296 871 263 854 m 885 826 b 772 625 885 733 840 657 b 851 379 822 560 851 475 b 469 -6 851 154 693 -6 b 86 379 244 -6 86 154 b 469 765 86 606 244 765 b 632 733 529 765 583 754 l 699 733 b 760 826 732 733 760 771 l 760 853 b 822 922 760 894 785 922 b 885 843 863 922 885 888 l 885 826 m 469 119 b 715 379 614 119 715 226 b 469 640 715 532 614 640 b 222 379 325 640 222 532 b 469 119 222 226 325 119 "},"ő":{"ha":938,"x_min":0,"x_max":0,"o":"m 369 1110 b 435 1154 376 1135 406 1154 b 507 1083 476 1154 507 1121 b 501 1057 507 1076 506 1067 l 424 893 b 371 857 413 869 394 857 b 313 915 344 857 313 878 b 317 938 313 921 314 929 l 369 1110 m 569 1110 b 635 1154 576 1135 606 1154 b 707 1083 675 1154 707 1121 b 700 1057 706 1076 706 1067 l 624 893 b 569 857 611 869 594 857 b 513 915 543 857 513 878 b 515 938 513 921 514 929 l 569 1110 m 469 765 b 851 379 692 765 850 606 b 469 -6 851 154 693 -6 b 86 379 244 -6 86 154 b 469 765 86 606 244 765 m 469 640 b 222 379 325 640 222 532 b 469 119 222 226 325 119 b 715 379 614 119 715 226 b 469 640 715 532 614 640 "},"ȏ":{"ha":938,"x_min":0,"x_max":0,"o":"m 310 840 b 243 911 269 840 243 871 b 469 1085 243 1010 344 1085 b 694 911 593 1085 694 1010 b 629 840 694 871 669 840 b 561 897 593 840 561 863 b 469 971 561 940 526 971 b 376 897 425 971 376 940 b 310 840 376 863 343 840 m 469 765 b 851 379 692 765 850 606 b 469 -6 851 154 693 -6 b 86 379 244 -6 86 154 b 469 765 86 606 244 765 m 469 640 b 222 379 325 640 222 532 b 469 119 222 226 325 119 b 715 379 614 119 715 226 b 469 640 715 532 614 640 "},"ō":{"ha":938,"x_min":0,"x_max":0,"o":"m 642 1024 b 714 963 682 1024 714 1003 b 642 899 714 921 682 899 l 294 899 b 224 963 254 899 224 921 b 294 1024 224 1003 254 1024 l 642 1024 m 469 765 b 851 379 692 765 850 606 b 469 -6 851 154 693 -6 b 86 379 244 -6 86 154 b 469 765 86 606 244 765 m 469 640 b 222 379 325 640 222 532 b 469 119 222 226 325 119 b 715 379 614 119 715 226 b 469 640 715 532 614 640 "},"ǫ":{"ha":938,"x_min":0,"x_max":0,"o":"m 701 -136 b 772 -207 743 -136 772 -167 b 747 -264 772 -231 764 -249 l 694 -299 b 599 -329 665 -319 633 -329 b 425 -156 506 -329 425 -251 b 497 -14 425 -99 450 -53 l 510 -4 b 469 -6 497 -6 483 -6 b 86 379 244 -6 86 154 b 469 765 86 606 244 765 b 851 379 692 765 850 606 b 657 38 851 224 776 100 b 669 -1 664 26 668 14 b 581 -128 669 -44 639 -86 b 567 -156 571 -136 567 -147 b 599 -187 567 -174 581 -187 b 615 -182 606 -187 611 -186 l 658 -150 b 701 -136 671 -142 685 -136 m 222 379 b 469 119 222 226 325 119 b 715 379 614 119 715 226 b 469 640 715 532 614 640 b 222 379 325 640 222 532 "},"ø":{"ha":983,"x_min":0,"x_max":0,"o":"m 856 767 b 886 694 897 767 908 717 l 804 613 b 879 372 851 547 879 465 b 497 -12 879 147 721 -12 b 249 71 399 -12 313 18 l 161 -17 b 131 -29 150 -26 140 -29 b 100 43 92 -29 71 15 l 189 133 b 114 372 142 197 114 279 b 497 758 114 599 272 758 b 744 675 594 758 679 728 l 824 753 b 856 767 832 761 842 767 m 497 633 b 250 372 353 633 250 525 b 290 224 250 315 264 264 l 650 583 b 497 633 608 615 557 633 m 497 113 b 743 372 642 113 743 219 b 704 519 743 429 729 479 l 346 163 b 497 113 386 131 439 113 "},"ǿ":{"ha":983,"x_min":0,"x_max":0,"o":"m 503 872 b 432 943 461 872 432 901 b 449 990 432 963 438 978 l 585 1126 b 635 1147 599 1140 617 1147 b 706 1075 676 1147 706 1115 b 686 1026 706 1056 700 1039 l 551 892 b 503 872 538 878 522 872 m 856 767 b 886 694 897 767 908 717 l 804 613 b 879 372 851 547 879 465 b 497 -12 879 147 721 -12 b 249 71 399 -12 313 18 l 161 -17 b 131 -29 150 -26 140 -29 b 100 43 92 -29 71 15 l 189 133 b 114 372 142 197 114 279 b 497 758 114 599 272 758 b 744 675 594 758 679 728 l 824 753 b 856 767 832 761 842 767 m 497 633 b 250 372 353 633 250 525 b 290 224 250 315 264 264 l 650 583 b 497 633 608 615 557 633 m 497 113 b 743 372 642 113 743 219 b 704 519 743 429 729 479 l 346 163 b 497 113 386 131 439 113 "},"õ":{"ha":938,"x_min":0,"x_max":0,"o":"m 394 1050 b 531 1008 454 1050 499 1025 b 614 976 572 985 589 976 b 669 1000 638 976 657 988 b 751 1019 696 1026 717 1040 b 758 929 779 1003 782 958 b 618 864 724 886 675 864 b 476 907 556 864 510 889 b 385 939 436 929 407 939 b 318 901 358 939 340 932 b 228 871 296 871 263 854 b 215 956 201 883 194 925 b 394 1050 258 1018 322 1050 m 469 765 b 851 379 692 765 850 606 b 469 -6 851 154 693 -6 b 86 379 244 -6 86 154 b 469 765 86 606 244 765 m 469 640 b 222 379 325 640 222 532 b 469 119 222 226 325 119 b 715 379 614 119 715 226 b 469 640 715 532 614 640 "},"ȭ":{"ha":938,"x_min":0,"x_max":0,"o":"m 656 1272 b 728 1211 696 1272 728 1251 b 656 1147 728 1169 696 1147 l 308 1147 b 238 1211 268 1147 238 1169 b 308 1272 238 1251 268 1272 l 656 1272 m 394 1050 b 531 1008 454 1050 499 1025 b 614 976 572 985 589 976 b 669 1000 638 976 657 988 b 751 1019 696 1026 717 1040 b 758 929 779 1003 782 958 b 618 864 724 886 675 864 b 476 907 556 864 510 889 b 385 939 436 929 407 939 b 318 901 358 939 340 932 b 228 871 296 871 263 854 b 215 956 201 883 194 925 b 394 1050 258 1018 322 1050 m 469 765 b 851 379 692 765 850 606 b 469 -6 851 154 693 -6 b 86 379 244 -6 86 154 b 469 765 86 606 244 765 m 469 640 b 222 379 325 640 222 532 b 469 119 222 226 325 119 b 715 379 614 119 715 226 b 469 640 715 532 614 640 "},"œ":{"ha":1492,"x_min":0,"x_max":0,"o":"m 1436 392 b 1372 331 1436 356 1410 331 l 844 331 b 1111 114 865 203 969 114 b 1272 167 1168 114 1235 139 b 1360 168 1300 188 1336 188 b 1363 79 1392 140 1393 103 b 1111 -6 1300 29 1196 -6 b 785 169 967 -6 849 61 b 469 -6 722 61 608 -6 b 86 379 244 -6 86 154 b 469 765 86 606 244 765 b 782 592 607 765 719 699 b 1090 765 844 699 954 765 b 1436 392 1307 765 1436 611 m 1090 646 b 846 442 953 646 867 563 l 1308 442 b 1090 646 1292 561 1215 646 m 469 119 b 715 379 614 119 715 226 b 469 640 715 532 614 640 b 222 379 325 640 222 532 b 469 119 222 226 325 119 "},"p":{"ha":976,"x_min":0,"x_max":0,"o":"m 507 765 b 890 379 725 765 890 599 b 535 -6 890 160 738 -6 b 267 121 425 -6 331 43 l 267 -254 b 196 -325 267 -296 238 -325 b 125 -254 154 -325 125 -296 l 125 379 b 507 765 126 599 290 765 m 507 119 b 754 379 647 119 754 231 b 507 640 754 528 647 640 b 261 379 367 640 261 528 b 507 119 261 231 367 119 "},"þ":{"ha":976,"x_min":0,"x_max":0,"o":"m 535 765 b 890 379 738 765 890 606 b 535 -6 890 154 743 -6 b 267 147 419 -6 324 53 l 267 -254 b 196 -325 268 -296 238 -325 b 125 -254 154 -325 125 -296 l 125 1014 b 196 1085 125 1056 154 1085 b 267 1014 238 1085 268 1056 l 256 603 b 535 765 319 710 429 765 m 507 119 b 754 379 651 119 754 226 b 507 640 754 532 651 640 b 261 379 363 640 261 532 b 507 119 261 226 363 119 "},"q":{"ha":976,"x_min":0,"x_max":0,"o":"m 469 765 b 851 379 686 765 850 599 l 851 -254 b 781 -325 851 -296 822 -325 b 710 -254 739 -325 710 -296 l 710 121 b 442 -6 646 43 551 -6 b 86 379 239 -6 86 160 b 469 765 86 599 251 765 m 469 119 b 715 379 610 119 715 231 b 469 640 715 528 610 640 b 222 379 329 640 222 528 b 469 119 222 231 329 119 "},"r":{"ha":675,"x_min":0,"x_max":0,"o":"m 497 768 b 653 676 608 768 665 726 b 576 635 643 638 613 626 b 264 475 399 669 264 603 l 264 69 b 194 0 264 25 240 0 b 125 69 150 0 125 24 l 125 690 b 194 760 125 735 150 760 b 264 690 240 760 264 736 l 264 664 b 497 768 319 728 404 768 "},"ŕ":{"ha":675,"x_min":0,"x_max":0,"o":"m 399 879 b 328 950 357 879 328 908 b 344 997 328 969 333 985 l 481 1133 b 531 1154 494 1147 513 1154 b 601 1082 572 1154 601 1122 b 582 1033 601 1063 596 1046 l 447 899 b 399 879 433 885 418 879 m 497 768 b 653 676 608 768 665 726 b 576 635 643 638 613 626 b 264 475 399 669 264 603 l 264 69 b 194 0 264 25 240 0 b 125 69 150 0 125 24 l 125 690 b 194 760 125 735 150 760 b 264 690 240 760 264 736 l 264 664 b 497 768 319 728 404 768 "},"ř":{"ha":675,"x_min":0,"x_max":0,"o":"m 201 982 b 168 1042 179 999 168 1018 b 283 1063 168 1079 219 1107 l 393 989 l 503 1063 b 618 1042 572 1110 618 1079 b 585 982 618 1018 607 999 l 431 879 b 393 868 418 871 407 868 b 357 879 381 868 368 871 l 201 982 m 497 768 b 653 676 608 768 665 726 b 576 635 643 638 613 626 b 264 475 399 669 264 603 l 264 69 b 194 0 264 25 240 0 b 125 69 150 0 125 24 l 125 690 b 194 760 125 735 150 760 b 264 690 240 760 264 736 l 264 664 b 497 768 319 728 404 768 "},"ŗ":{"ha":675,"x_min":0,"x_max":0,"o":"m 497 768 b 653 676 608 768 665 726 b 576 635 643 638 613 626 b 264 475 399 669 264 603 l 264 69 b 194 0 264 25 240 0 b 125 69 150 0 125 24 l 125 690 b 194 760 125 735 150 760 b 264 690 240 760 264 736 l 264 664 b 497 768 319 728 404 768 m 194 -56 b 381 -199 306 -56 381 -115 b 200 -343 381 -289 303 -343 b 26 -233 124 -343 26 -310 b 75 -187 26 -206 47 -187 b 211 -254 132 -187 126 -254 b 285 -206 264 -254 285 -242 b 181 -149 285 -169 251 -149 b 114 -104 142 -149 114 -133 b 194 -56 114 -72 142 -56 "},"ȑ":{"ha":675,"x_min":0,"x_max":0,"o":"m 203 1057 b 196 1083 197 1067 197 1076 b 268 1154 196 1121 228 1154 b 333 1110 297 1154 326 1135 l 388 938 b 390 915 389 929 390 921 b 333 857 390 878 360 857 b 279 893 308 857 292 869 m 401 1057 b 396 1083 397 1067 396 1076 b 468 1154 396 1121 426 1154 b 533 1110 497 1154 526 1135 l 586 938 b 590 915 589 929 590 921 b 532 857 590 878 558 857 b 479 893 508 857 490 869 m 497 768 b 653 676 608 768 665 726 b 576 635 643 638 613 626 b 264 475 399 669 264 603 l 264 69 b 194 0 264 25 240 0 b 125 69 150 0 125 24 l 125 690 b 194 760 125 735 150 760 b 264 690 240 760 264 736 l 264 664 b 497 768 319 728 404 768 "},"ȓ":{"ha":675,"x_min":0,"x_max":0,"o":"m 233 840 b 167 911 193 840 167 871 b 393 1085 167 1010 268 1085 b 618 911 517 1085 618 1010 b 553 840 618 871 593 840 b 485 897 517 840 485 863 b 393 971 485 940 450 971 b 300 897 349 971 300 940 b 233 840 300 863 267 840 m 497 768 b 653 676 608 768 665 726 b 576 635 643 638 613 626 b 264 475 399 669 264 603 l 264 69 b 194 0 264 25 240 0 b 125 69 150 0 125 24 l 125 690 b 194 760 125 735 150 760 b 264 690 240 760 264 736 l 264 664 b 497 768 319 728 404 768 "},"s":{"ha":754,"x_min":0,"x_max":0,"o":"m 392 765 b 667 656 514 765 611 724 b 661 568 692 625 690 590 b 557 583 631 547 585 557 b 389 642 510 628 460 642 b 243 560 307 642 243 613 b 422 447 243 508 272 478 b 700 222 631 406 700 332 b 401 -6 700 96 597 -6 b 93 100 272 -6 154 39 b 103 197 65 129 71 172 b 204 192 139 226 178 219 b 396 119 236 157 311 119 b 563 214 503 119 561 158 b 374 336 564 269 518 310 b 107 556 186 372 107 449 b 392 765 107 697 250 765 "},"ś":{"ha":754,"x_min":0,"x_max":0,"o":"m 472 1133 b 522 1154 486 1147 504 1154 b 593 1082 564 1154 593 1122 b 574 1033 593 1063 588 1046 l 439 899 b 390 879 425 885 410 879 b 319 950 349 879 319 908 b 336 997 319 969 325 985 l 472 1133 m 392 765 b 667 656 514 765 611 724 b 661 568 692 625 690 590 b 557 583 631 547 585 557 b 389 642 510 628 460 642 b 243 560 307 642 243 613 b 422 447 243 508 272 478 b 700 222 631 406 700 332 b 401 -6 700 96 597 -6 b 93 100 272 -6 154 39 b 103 197 65 129 71 172 b 204 192 139 226 178 219 b 396 119 236 157 311 119 b 563 214 503 119 561 158 b 374 336 564 269 518 310 b 107 556 186 372 107 449 b 392 765 107 697 250 765 "},"š":{"ha":754,"x_min":0,"x_max":0,"o":"m 494 1063 b 610 1042 564 1110 610 1079 b 576 982 610 1018 599 999 l 422 879 b 385 868 410 871 399 868 b 349 879 372 868 360 871 l 193 982 b 160 1042 171 999 160 1018 b 275 1063 160 1079 211 1107 l 385 989 l 494 1063 m 392 765 b 667 656 514 765 611 724 b 661 568 692 625 690 590 b 557 583 631 547 585 557 b 389 642 510 628 460 642 b 243 560 307 642 243 613 b 422 447 243 508 272 478 b 700 222 631 406 700 332 b 401 -6 700 96 597 -6 b 93 100 272 -6 154 39 b 103 197 65 129 71 172 b 204 192 139 226 178 219 b 396 119 236 157 311 119 b 563 214 503 119 561 158 b 374 336 564 269 518 310 b 107 556 186 372 107 449 b 392 765 107 697 250 765 "},"ş":{"ha":754,"x_min":0,"x_max":0,"o":"m 450 -49 b 589 -181 546 -69 589 -111 b 383 -325 589 -253 510 -325 b 193 -208 272 -325 193 -271 b 258 -142 193 -172 224 -142 b 306 -176 281 -142 296 -150 b 385 -225 318 -210 349 -225 b 449 -176 421 -225 449 -206 b 386 -115 449 -143 432 -124 b 324 -21 328 -106 303 -81 l 331 -1 b 93 100 231 11 143 50 b 103 197 65 129 71 172 b 204 192 139 226 178 219 b 396 119 236 157 311 119 b 563 214 503 119 561 158 b 374 336 564 269 518 310 b 107 556 186 372 107 449 b 392 765 107 697 250 765 b 667 656 514 765 611 724 b 661 568 692 625 690 590 b 557 583 631 547 585 557 b 389 642 510 628 460 642 b 243 560 307 642 243 613 b 422 447 243 508 272 478 b 700 222 631 406 700 332 b 471 -1 700 111 621 21 "},"ŝ":{"ha":754,"x_min":0,"x_max":0,"o":"m 275 869 b 231 854 261 858 247 854 b 160 911 190 854 160 878 b 193 972 160 935 171 956 l 349 1074 b 385 1085 360 1081 372 1085 b 422 1074 399 1085 410 1082 l 576 972 b 610 911 599 956 610 935 b 540 854 610 878 581 854 b 494 869 522 854 510 858 l 385 947 l 275 869 m 392 765 b 667 656 514 765 611 724 b 661 568 692 625 690 590 b 557 583 631 547 585 557 b 389 642 510 628 460 642 b 243 560 307 642 243 613 b 422 447 243 508 272 478 b 700 222 631 406 700 332 b 401 -6 700 96 597 -6 b 93 100 272 -6 154 39 b 103 197 65 129 71 172 b 204 192 139 226 178 219 b 396 119 236 157 311 119 b 563 214 503 119 561 158 b 374 336 564 269 518 310 b 107 556 186 372 107 449 b 392 765 107 697 250 765 "},"ș":{"ha":754,"x_min":0,"x_max":0,"o":"m 392 765 b 667 656 514 765 611 724 b 661 568 692 625 690 590 b 557 583 631 547 585 557 b 389 642 510 628 460 642 b 243 560 307 642 243 613 b 422 447 243 508 272 478 b 700 222 631 406 700 332 b 401 -6 700 96 597 -6 b 93 100 272 -6 154 39 b 103 197 65 129 71 172 b 204 192 139 226 178 219 b 396 119 236 157 311 119 b 563 214 503 119 561 158 b 374 336 564 269 518 310 b 107 556 186 372 107 449 b 392 765 107 697 250 765 m 385 -56 b 571 -199 496 -56 571 -115 b 390 -343 571 -289 493 -343 b 217 -233 314 -343 217 -310 b 265 -187 217 -206 238 -187 b 401 -254 322 -187 317 -254 b 475 -206 454 -254 475 -242 b 371 -149 475 -169 442 -149 b 304 -104 332 -149 304 -133 b 385 -56 304 -72 332 -56 "},"ß":{"ha":760,"x_min":0,"x_max":0,"o":"m 53 803 b 356 1083 53 967 185 1083 b 629 831 519 1083 629 972 b 517 590 629 707 517 674 b 714 253 517 485 714 438 b 438 0 714 104 603 0 b 231 135 347 0 231 61 b 293 196 231 175 253 196 b 451 125 353 196 351 125 b 575 253 531 125 575 178 b 392 586 575 392 392 429 b 504 833 392 721 504 714 b 353 958 504 911 444 958 b 197 803 265 958 197 897 l 197 71 b 124 0 197 29 167 0 b 53 71 82 0 53 29 l 53 803 "},"ſ":{"ha":468,"x_min":0,"x_max":0,"o":"m 83 756 b 397 1085 83 954 211 1085 b 468 1021 438 1085 468 1057 b 397 957 468 985 438 957 b 225 769 293 957 225 882 l 225 71 b 151 0 225 28 197 0 b 83 71 115 0 83 28 l 83 756 "},"t":{"ha":557,"x_min":0,"x_max":0,"o":"m 449 139 b 508 69 482 139 508 110 b 426 0 508 29 474 0 l 401 0 b 157 269 263 0 157 115 l 157 613 l 93 613 b 28 671 54 613 28 638 b 93 732 28 707 54 732 l 157 732 l 157 932 b 226 1001 157 972 186 1001 b 296 932 267 1001 296 972 l 296 732 l 414 732 b 479 671 453 732 479 707 b 414 613 479 638 453 613 l 296 613 l 296 269 b 401 139 296 194 342 139 l 449 139 "},"ŧ":{"ha":557,"x_min":0,"x_max":0,"o":"m 449 139 b 508 69 482 139 508 110 b 426 0 508 29 474 0 l 401 0 b 157 269 263 0 157 115 l 157 376 l 93 376 b 28 435 54 376 28 401 b 93 496 28 471 54 496 l 157 496 l 157 613 l 93 613 b 28 671 54 613 28 638 b 93 732 28 707 54 732 l 157 732 l 157 932 b 226 1001 157 972 186 1001 b 296 932 267 1001 296 972 l 296 732 l 414 732 b 479 671 453 732 479 707 b 414 613 479 638 453 613 l 296 613 l 296 496 l 414 496 b 479 435 453 496 479 471 b 414 376 479 401 453 376 l 296 376 l 296 269 b 401 139 296 194 342 139 l 449 139 "},"ť":{"ha":557,"x_min":0,"x_max":0,"o":"m 476 1249 b 564 1118 536 1249 572 1188 b 379 851 553 988 433 844 b 344 889 356 854 342 865 b 431 1056 350 938 422 989 b 408 1190 438 1114 408 1132 b 476 1249 408 1226 439 1249 m 449 139 b 508 69 482 139 508 110 b 426 0 508 29 474 0 l 401 0 b 157 269 263 0 157 115 l 157 613 l 93 613 b 28 671 54 613 28 638 b 93 732 28 707 54 732 l 157 732 l 157 932 b 226 1001 157 972 186 1001 b 296 932 267 1001 296 972 l 296 732 l 414 732 b 479 671 453 732 479 707 b 414 613 479 638 453 613 l 296 613 l 296 269 b 401 139 296 194 342 139 l 449 139 "}}}
